G04 #@! TF.FileFunction,Copper,L1,Top,Signal*
%FSLAX46Y46*%
G04 Gerber Fmt 4.6, Leading zero omitted, Abs format (unit mm)*
G04 Created by KiCad (PCBNEW 4.0.7) date 07/09/18 15:47:45*
%MOMM*%
%LPD*%
G01*
G04 APERTURE LIST*
%ADD10C,0.100000*%
%ADD11C,0.150000*%
%ADD12R,1.700000X0.900000*%
%ADD13R,1.700000X1.700000*%
%ADD14O,1.700000X1.700000*%
%ADD15C,0.600000*%
%ADD16C,0.250000*%
%ADD17C,0.254000*%
G04 APERTURE END LIST*
D10*
D11*
X144606190Y-109672381D02*
X144606190Y-108672381D01*
X144844285Y-108672381D01*
X144987143Y-108720000D01*
X145082381Y-108815238D01*
X145130000Y-108910476D01*
X145177619Y-109100952D01*
X145177619Y-109243810D01*
X145130000Y-109434286D01*
X145082381Y-109529524D01*
X144987143Y-109624762D01*
X144844285Y-109672381D01*
X144606190Y-109672381D01*
X145606190Y-109672381D02*
X145606190Y-109005714D01*
X145606190Y-109196190D02*
X145653809Y-109100952D01*
X145701428Y-109053333D01*
X145796666Y-109005714D01*
X145891905Y-109005714D01*
X147558572Y-109577143D02*
X147510953Y-109624762D01*
X147368096Y-109672381D01*
X147272858Y-109672381D01*
X147130000Y-109624762D01*
X147034762Y-109529524D01*
X146987143Y-109434286D01*
X146939524Y-109243810D01*
X146939524Y-109100952D01*
X146987143Y-108910476D01*
X147034762Y-108815238D01*
X147130000Y-108720000D01*
X147272858Y-108672381D01*
X147368096Y-108672381D01*
X147510953Y-108720000D01*
X147558572Y-108767619D01*
X147939524Y-109386667D02*
X148415715Y-109386667D01*
X147844286Y-109672381D02*
X148177619Y-108672381D01*
X148510953Y-109672381D01*
X148844286Y-109672381D02*
X148844286Y-108672381D01*
X149082381Y-108672381D01*
X149225239Y-108720000D01*
X149320477Y-108815238D01*
X149368096Y-108910476D01*
X149415715Y-109100952D01*
X149415715Y-109243810D01*
X149368096Y-109434286D01*
X149320477Y-109529524D01*
X149225239Y-109624762D01*
X149082381Y-109672381D01*
X148844286Y-109672381D01*
X149844286Y-109672381D02*
X149844286Y-108672381D01*
X150891905Y-109577143D02*
X150844286Y-109624762D01*
X150701429Y-109672381D01*
X150606191Y-109672381D01*
X150463333Y-109624762D01*
X150368095Y-109529524D01*
X150320476Y-109434286D01*
X150272857Y-109243810D01*
X150272857Y-109100952D01*
X150320476Y-108910476D01*
X150368095Y-108815238D01*
X150463333Y-108720000D01*
X150606191Y-108672381D01*
X150701429Y-108672381D01*
X150844286Y-108720000D01*
X150891905Y-108767619D01*
X152082381Y-109672381D02*
X152082381Y-108672381D01*
X152463334Y-108672381D01*
X152558572Y-108720000D01*
X152606191Y-108767619D01*
X152653810Y-108862857D01*
X152653810Y-109005714D01*
X152606191Y-109100952D01*
X152558572Y-109148571D01*
X152463334Y-109196190D01*
X152082381Y-109196190D01*
X153082381Y-109672381D02*
X153082381Y-108672381D01*
X153510953Y-109672381D02*
X153510953Y-109148571D01*
X153463334Y-109053333D01*
X153368096Y-109005714D01*
X153225238Y-109005714D01*
X153130000Y-109053333D01*
X153082381Y-109100952D01*
X153987143Y-109672381D02*
X153987143Y-109005714D01*
X153987143Y-108672381D02*
X153939524Y-108720000D01*
X153987143Y-108767619D01*
X154034762Y-108720000D01*
X153987143Y-108672381D01*
X153987143Y-108767619D01*
X154606190Y-109672381D02*
X154510952Y-109624762D01*
X154463333Y-109529524D01*
X154463333Y-108672381D01*
X154987143Y-109672381D02*
X154987143Y-109005714D01*
X154987143Y-108672381D02*
X154939524Y-108720000D01*
X154987143Y-108767619D01*
X155034762Y-108720000D01*
X154987143Y-108672381D01*
X154987143Y-108767619D01*
X155463333Y-109005714D02*
X155463333Y-110005714D01*
X155463333Y-109053333D02*
X155558571Y-109005714D01*
X155749048Y-109005714D01*
X155844286Y-109053333D01*
X155891905Y-109100952D01*
X155939524Y-109196190D01*
X155939524Y-109481905D01*
X155891905Y-109577143D01*
X155844286Y-109624762D01*
X155749048Y-109672381D01*
X155558571Y-109672381D01*
X155463333Y-109624762D01*
X156368095Y-109005714D02*
X156368095Y-110005714D01*
X156368095Y-109053333D02*
X156463333Y-109005714D01*
X156653810Y-109005714D01*
X156749048Y-109053333D01*
X156796667Y-109100952D01*
X156844286Y-109196190D01*
X156844286Y-109481905D01*
X156796667Y-109577143D01*
X156749048Y-109624762D01*
X156653810Y-109672381D01*
X156463333Y-109672381D01*
X156368095Y-109624762D01*
X157653810Y-109624762D02*
X157558572Y-109672381D01*
X157368095Y-109672381D01*
X157272857Y-109624762D01*
X157225238Y-109529524D01*
X157225238Y-109148571D01*
X157272857Y-109053333D01*
X157368095Y-109005714D01*
X157558572Y-109005714D01*
X157653810Y-109053333D01*
X157701429Y-109148571D01*
X157701429Y-109243810D01*
X157225238Y-109339048D01*
D12*
X139700000Y-107520000D03*
X139700000Y-110920000D03*
X124460000Y-88060000D03*
X124460000Y-84660000D03*
X124460000Y-103300000D03*
X124460000Y-99900000D03*
X162560000Y-99900000D03*
X162560000Y-103300000D03*
X193040000Y-92280000D03*
X193040000Y-95680000D03*
X147320000Y-99900000D03*
X147320000Y-103300000D03*
X139700000Y-92280000D03*
X139700000Y-95680000D03*
X139700000Y-88060000D03*
X139700000Y-84660000D03*
X185420000Y-99900000D03*
X185420000Y-103300000D03*
X147320000Y-92280000D03*
X147320000Y-95680000D03*
X154940000Y-92280000D03*
X154940000Y-95680000D03*
X162560000Y-92280000D03*
X162560000Y-95680000D03*
X177800000Y-88060000D03*
X177800000Y-84660000D03*
D13*
X162560000Y-80010000D03*
D14*
X160020000Y-80010000D03*
X157480000Y-80010000D03*
X154940000Y-80010000D03*
D12*
X170180000Y-92280000D03*
X170180000Y-95680000D03*
X177800000Y-92280000D03*
X177800000Y-95680000D03*
X185420000Y-92280000D03*
X185420000Y-95680000D03*
X177800000Y-103300000D03*
X177800000Y-99900000D03*
X170180000Y-99900000D03*
X170180000Y-103300000D03*
X185420000Y-88060000D03*
X185420000Y-84660000D03*
X193040000Y-88060000D03*
X193040000Y-84660000D03*
X124460000Y-92280000D03*
X124460000Y-95680000D03*
X147320000Y-88060000D03*
X147320000Y-84660000D03*
X193040000Y-99900000D03*
X193040000Y-103300000D03*
X132080000Y-95680000D03*
X132080000Y-92280000D03*
X132080000Y-107520000D03*
X132080000Y-110920000D03*
X177800000Y-110920000D03*
X177800000Y-107520000D03*
X162585400Y-107545400D03*
X162585400Y-110945400D03*
X185420000Y-107520000D03*
X185420000Y-110920000D03*
X154940000Y-88060000D03*
X154940000Y-84660000D03*
X170180000Y-88060000D03*
X170180000Y-84660000D03*
X154940000Y-99900000D03*
X154940000Y-103300000D03*
X132080000Y-99900000D03*
X132080000Y-103300000D03*
X139700000Y-99900000D03*
X139700000Y-103300000D03*
X162560000Y-88060000D03*
X162560000Y-84660000D03*
X132080000Y-88060000D03*
X132080000Y-84660000D03*
D15*
X157200600Y-83820000D03*
X166090600Y-104978200D03*
X166370000Y-102057200D03*
X164795200Y-98044000D03*
X164642800Y-83896200D03*
X164871400Y-85445600D03*
X165049200Y-87426800D03*
X188341000Y-90830400D03*
X184454800Y-89585800D03*
X179679600Y-89738200D03*
X185445400Y-109245400D03*
X160604200Y-83870800D03*
X139344400Y-107492800D03*
X132105400Y-98221800D03*
X135509000Y-94259400D03*
X131826000Y-88011000D03*
X127152400Y-80111600D03*
X124536200Y-83769200D03*
X128168400Y-83235800D03*
X141782800Y-90170000D03*
X126212600Y-84480400D03*
X128066800Y-84658200D03*
X162610800Y-102006400D03*
X162814000Y-99822000D03*
X165582600Y-94513400D03*
X162610800Y-88011000D03*
X147878800Y-97459800D03*
X149555200Y-99796600D03*
X149834600Y-94970600D03*
X148818600Y-86893400D03*
X139877800Y-92735400D03*
X139979400Y-99898200D03*
X143687800Y-105613200D03*
X139623800Y-87985600D03*
X185597800Y-92151200D03*
X189026800Y-98348800D03*
X185470800Y-101523800D03*
X183642000Y-105613200D03*
X154838400Y-88061800D03*
X151130000Y-88360000D03*
X154051000Y-97028000D03*
X177723800Y-94361000D03*
X177774600Y-101854000D03*
X170230800Y-88087200D03*
X170154600Y-99872800D03*
X170205400Y-94411800D03*
D16*
X157480000Y-83540600D02*
X157480000Y-80010000D01*
X157200600Y-83820000D02*
X157480000Y-83540600D01*
X168632400Y-107520000D02*
X171321200Y-107520000D01*
X166090600Y-104978200D02*
X168632400Y-107520000D01*
X166370000Y-99618800D02*
X166370000Y-102057200D01*
X164795200Y-98044000D02*
X166370000Y-99618800D01*
X177800000Y-107520000D02*
X178411400Y-107520000D01*
X178411400Y-107520000D02*
X181811400Y-110920000D01*
X181811400Y-110920000D02*
X185420000Y-110920000D01*
X162585400Y-110945400D02*
X167895800Y-110945400D01*
X171321200Y-107520000D02*
X177800000Y-107520000D01*
X167895800Y-110945400D02*
X171321200Y-107520000D01*
X139700000Y-110920000D02*
X162560000Y-110920000D01*
X162560000Y-110920000D02*
X162585400Y-110945400D01*
X132080000Y-110920000D02*
X139700000Y-110920000D01*
X164211000Y-81661000D02*
X162560000Y-80010000D01*
X164211000Y-83464400D02*
X164211000Y-81661000D01*
X164642800Y-83896200D02*
X164211000Y-83464400D01*
X164871400Y-87249000D02*
X164871400Y-85445600D01*
X165049200Y-87426800D02*
X164871400Y-87249000D01*
X193040000Y-92280000D02*
X193040000Y-88060000D01*
X191412600Y-90652600D02*
X193040000Y-92280000D01*
X188518800Y-90652600D02*
X191412600Y-90652600D01*
X188341000Y-90830400D02*
X188518800Y-90652600D01*
X179832000Y-89585800D02*
X184454800Y-89585800D01*
X179679600Y-89738200D02*
X179832000Y-89585800D01*
X185445400Y-109245400D02*
X185521600Y-109169200D01*
X185521600Y-109169200D02*
X190246000Y-109169200D01*
X190246000Y-109169200D02*
X191084200Y-108331000D01*
X191084200Y-108331000D02*
X192125600Y-108331000D01*
X195453000Y-97383600D02*
X195453000Y-105511600D01*
X177800000Y-111633000D02*
X177800000Y-110920000D01*
X178206400Y-112039400D02*
X177800000Y-111633000D01*
X188417200Y-112039400D02*
X178206400Y-112039400D01*
X192125600Y-108331000D02*
X188417200Y-112039400D01*
X192633600Y-108331000D02*
X192125600Y-108331000D01*
X195453000Y-105511600D02*
X192633600Y-108331000D01*
X193040000Y-99900000D02*
X193040000Y-99796600D01*
X193040000Y-99796600D02*
X195453000Y-97383600D01*
X195453000Y-97383600D02*
X195453000Y-90017600D01*
X195453000Y-90017600D02*
X193495400Y-88060000D01*
X193495400Y-88060000D02*
X193040000Y-88060000D01*
X160020000Y-83286600D02*
X160020000Y-80010000D01*
X160604200Y-83870800D02*
X160020000Y-83286600D01*
X139344400Y-107492800D02*
X139371600Y-107520000D01*
X139371600Y-107520000D02*
X139700000Y-107520000D01*
X132105400Y-98221800D02*
X132105400Y-95705400D01*
X132105400Y-95705400D02*
X132080000Y-95680000D01*
X132080000Y-88060000D02*
X132281400Y-88060000D01*
X132281400Y-88060000D02*
X135509000Y-91287600D01*
X132080000Y-98247200D02*
X132080000Y-99900000D01*
X132105400Y-98221800D02*
X132080000Y-98247200D01*
X135509000Y-91287600D02*
X135509000Y-94259400D01*
X131826000Y-88011000D02*
X131875000Y-88060000D01*
X131875000Y-88060000D02*
X132080000Y-88060000D01*
X124460000Y-103300000D02*
X124460000Y-104267000D01*
X127713000Y-107520000D02*
X132080000Y-107520000D01*
X124460000Y-104267000D02*
X127713000Y-107520000D01*
X124460000Y-92280000D02*
X124153400Y-92280000D01*
X124153400Y-92280000D02*
X122656600Y-93776800D01*
X122656600Y-101496600D02*
X124460000Y-103300000D01*
X122656600Y-93776800D02*
X122656600Y-101496600D01*
X124460000Y-88060000D02*
X124460000Y-92280000D01*
X124460000Y-88060000D02*
X125274600Y-88060000D01*
X125274600Y-88060000D02*
X127152400Y-86182200D01*
X127152400Y-86182200D02*
X127152400Y-80111600D01*
X132080000Y-84660000D02*
X129592600Y-84660000D01*
X124460000Y-83845400D02*
X124460000Y-84660000D01*
X124536200Y-83769200D02*
X124460000Y-83845400D01*
X129592600Y-84660000D02*
X128168400Y-83235800D01*
X143103600Y-84660000D02*
X143103600Y-88849200D01*
X143103600Y-88849200D02*
X141782800Y-90170000D01*
X139700000Y-84660000D02*
X128068600Y-84660000D01*
X126033000Y-84660000D02*
X124460000Y-84660000D01*
X126212600Y-84480400D02*
X126033000Y-84660000D01*
X128068600Y-84660000D02*
X128066800Y-84658200D01*
X147320000Y-84660000D02*
X143103600Y-84660000D01*
X143103600Y-84660000D02*
X139700000Y-84660000D01*
X154940000Y-84660000D02*
X147320000Y-84660000D01*
X162560000Y-84660000D02*
X154940000Y-84660000D01*
X170180000Y-84660000D02*
X162560000Y-84660000D01*
X177800000Y-84660000D02*
X170180000Y-84660000D01*
X185420000Y-84660000D02*
X177800000Y-84660000D01*
X193040000Y-84660000D02*
X185420000Y-84660000D01*
X147320000Y-103300000D02*
X154940000Y-103300000D01*
X139700000Y-103300000D02*
X147320000Y-103300000D01*
X132080000Y-103300000D02*
X139700000Y-103300000D01*
X124460000Y-99900000D02*
X127078000Y-99900000D01*
X130608600Y-101828600D02*
X132080000Y-103300000D01*
X129006600Y-101828600D02*
X130608600Y-101828600D01*
X127078000Y-99900000D02*
X129006600Y-101828600D01*
X154940000Y-103300000D02*
X162560000Y-103300000D01*
X185420000Y-103300000D02*
X193040000Y-103300000D01*
X177800000Y-99900000D02*
X178944800Y-99900000D01*
X184380400Y-102260400D02*
X185420000Y-103300000D01*
X181305200Y-102260400D02*
X184380400Y-102260400D01*
X178944800Y-99900000D02*
X181305200Y-102260400D01*
X170180000Y-103300000D02*
X174169600Y-103300000D01*
X174169600Y-103300000D02*
X177569600Y-99900000D01*
X177569600Y-99900000D02*
X177800000Y-99900000D01*
X162560000Y-103300000D02*
X170180000Y-103300000D01*
X162560000Y-102057200D02*
X162560000Y-103300000D01*
X162610800Y-102006400D02*
X162560000Y-102057200D01*
X162560000Y-92280000D02*
X162560000Y-93853000D01*
X162814000Y-99822000D02*
X162736000Y-99900000D01*
X163220400Y-94513400D02*
X165582600Y-94513400D01*
X162560000Y-93853000D02*
X163220400Y-94513400D01*
X162736000Y-99900000D02*
X162560000Y-99900000D01*
X162560000Y-88060000D02*
X162560000Y-92280000D01*
X162610800Y-88011000D02*
X162561800Y-88060000D01*
X162561800Y-88060000D02*
X162560000Y-88060000D01*
X147320000Y-95680000D02*
X147320000Y-96901000D01*
X147320000Y-96901000D02*
X147878800Y-97459800D01*
X185420000Y-95680000D02*
X193040000Y-95680000D01*
X177800000Y-95680000D02*
X185420000Y-95680000D01*
X170180000Y-95680000D02*
X177800000Y-95680000D01*
X162560000Y-95680000D02*
X170180000Y-95680000D01*
X154940000Y-95680000D02*
X162560000Y-95680000D01*
X147320000Y-95680000D02*
X154940000Y-95680000D01*
X139700000Y-95680000D02*
X147320000Y-95680000D01*
X132080000Y-92280000D02*
X132080000Y-93192600D01*
X134567400Y-95680000D02*
X139700000Y-95680000D01*
X132080000Y-93192600D02*
X134567400Y-95680000D01*
X124460000Y-95680000D02*
X127967000Y-95680000D01*
X130176800Y-94183200D02*
X132080000Y-92280000D01*
X129463800Y-94183200D02*
X130176800Y-94183200D01*
X127967000Y-95680000D02*
X129463800Y-94183200D01*
X147320000Y-92280000D02*
X148058400Y-92280000D01*
X148058400Y-92280000D02*
X149834600Y-94056200D01*
X149199600Y-100152200D02*
X147572200Y-100152200D01*
X149555200Y-99796600D02*
X149199600Y-100152200D01*
X149834600Y-94056200D02*
X149834600Y-94970600D01*
X147572200Y-100152200D02*
X147320000Y-99900000D01*
X147320000Y-88060000D02*
X147320000Y-92280000D01*
X147320000Y-88060000D02*
X147652000Y-88060000D01*
X147652000Y-88060000D02*
X148818600Y-86893400D01*
X139700000Y-92280000D02*
X139700000Y-88060000D01*
X139877800Y-92735400D02*
X139700000Y-92557600D01*
X139700000Y-92557600D02*
X139700000Y-92280000D01*
X162585400Y-107545400D02*
X145620000Y-107545400D01*
X139979400Y-99898200D02*
X139977600Y-99900000D01*
X145620000Y-107545400D02*
X143687800Y-105613200D01*
X139977600Y-99900000D02*
X139700000Y-99900000D01*
X139623800Y-87985600D02*
X139698200Y-88060000D01*
X139698200Y-88060000D02*
X139700000Y-88060000D01*
X185420000Y-92280000D02*
X185420000Y-88060000D01*
X185597800Y-92151200D02*
X185469000Y-92280000D01*
X185469000Y-92280000D02*
X185420000Y-92280000D01*
X185420000Y-99900000D02*
X187475600Y-99900000D01*
X187475600Y-99900000D02*
X189026800Y-98348800D01*
X185420000Y-101473000D02*
X185420000Y-99900000D01*
X185470800Y-101523800D02*
X185420000Y-101473000D01*
X185420000Y-107520000D02*
X185420000Y-107391200D01*
X185420000Y-107391200D02*
X183642000Y-105613200D01*
X154838400Y-88061800D02*
X154840200Y-88060000D01*
X154840200Y-88060000D02*
X154940000Y-88060000D01*
X154940000Y-88060000D02*
X154940000Y-92280000D01*
X154940000Y-97917000D02*
X154051000Y-97028000D01*
X154940000Y-99900000D02*
X154940000Y-97917000D01*
X151430000Y-88060000D02*
X154940000Y-88060000D01*
X151130000Y-88360000D02*
X151430000Y-88060000D01*
X177800000Y-92280000D02*
X177800000Y-94284800D01*
X177800000Y-94284800D02*
X177723800Y-94361000D01*
X177800000Y-101879400D02*
X177800000Y-103300000D01*
X177774600Y-101854000D02*
X177800000Y-101879400D01*
X177800000Y-92280000D02*
X177800000Y-88060000D01*
X170230800Y-88087200D02*
X170203600Y-88060000D01*
X170203600Y-88060000D02*
X170180000Y-88060000D01*
X170180000Y-92280000D02*
X170180000Y-94386400D01*
X170154600Y-99872800D02*
X170180000Y-99898200D01*
X170180000Y-94386400D02*
X170205400Y-94411800D01*
X170180000Y-99898200D02*
X170180000Y-99900000D01*
X170180000Y-92280000D02*
X170180000Y-88060000D01*
D17*
G36*
X193807954Y-78237954D02*
X193264711Y-79050976D01*
X193073949Y-80010000D01*
X193264711Y-80969024D01*
X193807954Y-81782046D01*
X194620976Y-82325289D01*
X195580000Y-82516051D01*
X196539024Y-82325289D01*
X197352046Y-81782046D01*
X197410000Y-81695312D01*
X197410000Y-108804688D01*
X197352046Y-108717954D01*
X196539024Y-108174711D01*
X195580000Y-107983949D01*
X194620976Y-108174711D01*
X193807954Y-108717954D01*
X193264711Y-109530976D01*
X193073949Y-110490000D01*
X193264711Y-111449024D01*
X193807954Y-112262046D01*
X193894688Y-112320000D01*
X189211402Y-112320000D01*
X192440402Y-109091000D01*
X192633600Y-109091000D01*
X192924439Y-109033148D01*
X193171001Y-108868401D01*
X195990401Y-106049001D01*
X196155148Y-105802439D01*
X196213000Y-105511600D01*
X196213000Y-90017600D01*
X196163941Y-89770967D01*
X196155148Y-89726760D01*
X195990401Y-89480199D01*
X194537440Y-88027238D01*
X194537440Y-87610000D01*
X194493162Y-87374683D01*
X194354090Y-87158559D01*
X194141890Y-87013569D01*
X193890000Y-86962560D01*
X192190000Y-86962560D01*
X191954683Y-87006838D01*
X191738559Y-87145910D01*
X191593569Y-87358110D01*
X191542560Y-87610000D01*
X191542560Y-88510000D01*
X191586838Y-88745317D01*
X191725910Y-88961441D01*
X191938110Y-89106431D01*
X192190000Y-89157440D01*
X192280000Y-89157440D01*
X192280000Y-90445198D01*
X191950001Y-90115199D01*
X191703439Y-89950452D01*
X191412600Y-89892600D01*
X188518800Y-89892600D01*
X188504013Y-89895541D01*
X188155833Y-89895238D01*
X187812057Y-90037283D01*
X187548808Y-90300073D01*
X187406162Y-90643601D01*
X187405838Y-91015567D01*
X187547883Y-91359343D01*
X187810673Y-91622592D01*
X188154201Y-91765238D01*
X188526167Y-91765562D01*
X188869943Y-91623517D01*
X189081228Y-91412600D01*
X191097798Y-91412600D01*
X191542560Y-91857362D01*
X191542560Y-92730000D01*
X191586838Y-92965317D01*
X191725910Y-93181441D01*
X191938110Y-93326431D01*
X192190000Y-93377440D01*
X193890000Y-93377440D01*
X194125317Y-93333162D01*
X194341441Y-93194090D01*
X194486431Y-92981890D01*
X194537440Y-92730000D01*
X194537440Y-91830000D01*
X194493162Y-91594683D01*
X194354090Y-91378559D01*
X194141890Y-91233569D01*
X193890000Y-91182560D01*
X193800000Y-91182560D01*
X193800000Y-89439402D01*
X194693000Y-90332402D01*
X194693000Y-97068798D01*
X192959238Y-98802560D01*
X192190000Y-98802560D01*
X191954683Y-98846838D01*
X191738559Y-98985910D01*
X191593569Y-99198110D01*
X191542560Y-99450000D01*
X191542560Y-100350000D01*
X191586838Y-100585317D01*
X191725910Y-100801441D01*
X191938110Y-100946431D01*
X192190000Y-100997440D01*
X193890000Y-100997440D01*
X194125317Y-100953162D01*
X194341441Y-100814090D01*
X194486431Y-100601890D01*
X194537440Y-100350000D01*
X194537440Y-99450000D01*
X194525398Y-99386004D01*
X194693000Y-99218402D01*
X194693000Y-105196798D01*
X192318798Y-107571000D01*
X191084200Y-107571000D01*
X190793361Y-107628852D01*
X190546799Y-107793599D01*
X189931198Y-108409200D01*
X186738448Y-108409200D01*
X186866431Y-108221890D01*
X186917440Y-107970000D01*
X186917440Y-107070000D01*
X186873162Y-106834683D01*
X186734090Y-106618559D01*
X186521890Y-106473569D01*
X186270000Y-106422560D01*
X185526162Y-106422560D01*
X184577122Y-105473520D01*
X184577162Y-105428033D01*
X184435117Y-105084257D01*
X184172327Y-104821008D01*
X183828799Y-104678362D01*
X183456833Y-104678038D01*
X183113057Y-104820083D01*
X182849808Y-105082873D01*
X182707162Y-105426401D01*
X182706838Y-105798367D01*
X182848883Y-106142143D01*
X183111673Y-106405392D01*
X183455201Y-106548038D01*
X183502077Y-106548079D01*
X183939642Y-106985644D01*
X183922560Y-107070000D01*
X183922560Y-107970000D01*
X183966838Y-108205317D01*
X184105910Y-108421441D01*
X184318110Y-108566431D01*
X184570000Y-108617440D01*
X184751012Y-108617440D01*
X184653208Y-108715073D01*
X184510562Y-109058601D01*
X184510238Y-109430567D01*
X184652283Y-109774343D01*
X184712834Y-109835000D01*
X184443690Y-109835000D01*
X184210301Y-109931673D01*
X184031673Y-110110302D01*
X183935000Y-110343691D01*
X183935000Y-110634250D01*
X184093750Y-110793000D01*
X185293000Y-110793000D01*
X185293000Y-110773000D01*
X185547000Y-110773000D01*
X185547000Y-110793000D01*
X186746250Y-110793000D01*
X186905000Y-110634250D01*
X186905000Y-110343691D01*
X186808327Y-110110302D01*
X186629699Y-109931673D01*
X186623729Y-109929200D01*
X189452598Y-109929200D01*
X188102398Y-111279400D01*
X186905000Y-111279400D01*
X186905000Y-111205750D01*
X186746250Y-111047000D01*
X185547000Y-111047000D01*
X185547000Y-111067000D01*
X185293000Y-111067000D01*
X185293000Y-111047000D01*
X184093750Y-111047000D01*
X183935000Y-111205750D01*
X183935000Y-111279400D01*
X179297440Y-111279400D01*
X179297440Y-110470000D01*
X179253162Y-110234683D01*
X179114090Y-110018559D01*
X178901890Y-109873569D01*
X178650000Y-109822560D01*
X176950000Y-109822560D01*
X176714683Y-109866838D01*
X176498559Y-110005910D01*
X176353569Y-110218110D01*
X176302560Y-110470000D01*
X176302560Y-111370000D01*
X176346838Y-111605317D01*
X176485910Y-111821441D01*
X176698110Y-111966431D01*
X176950000Y-112017440D01*
X177160394Y-112017440D01*
X177262599Y-112170401D01*
X177412198Y-112320000D01*
X124875312Y-112320000D01*
X124962046Y-112262046D01*
X125505289Y-111449024D01*
X125553679Y-111205750D01*
X130595000Y-111205750D01*
X130595000Y-111496309D01*
X130691673Y-111729698D01*
X130870301Y-111908327D01*
X131103690Y-112005000D01*
X131794250Y-112005000D01*
X131953000Y-111846250D01*
X131953000Y-111047000D01*
X132207000Y-111047000D01*
X132207000Y-111846250D01*
X132365750Y-112005000D01*
X133056310Y-112005000D01*
X133289699Y-111908327D01*
X133468327Y-111729698D01*
X133565000Y-111496309D01*
X133565000Y-111205750D01*
X138215000Y-111205750D01*
X138215000Y-111496309D01*
X138311673Y-111729698D01*
X138490301Y-111908327D01*
X138723690Y-112005000D01*
X139414250Y-112005000D01*
X139573000Y-111846250D01*
X139573000Y-111047000D01*
X139827000Y-111047000D01*
X139827000Y-111846250D01*
X139985750Y-112005000D01*
X140676310Y-112005000D01*
X140909699Y-111908327D01*
X141088327Y-111729698D01*
X141185000Y-111496309D01*
X141185000Y-111231150D01*
X161100400Y-111231150D01*
X161100400Y-111521709D01*
X161197073Y-111755098D01*
X161375701Y-111933727D01*
X161609090Y-112030400D01*
X162299650Y-112030400D01*
X162458400Y-111871650D01*
X162458400Y-111072400D01*
X162712400Y-111072400D01*
X162712400Y-111871650D01*
X162871150Y-112030400D01*
X163561710Y-112030400D01*
X163795099Y-111933727D01*
X163973727Y-111755098D01*
X164070400Y-111521709D01*
X164070400Y-111231150D01*
X163911650Y-111072400D01*
X162712400Y-111072400D01*
X162458400Y-111072400D01*
X161259150Y-111072400D01*
X161100400Y-111231150D01*
X141185000Y-111231150D01*
X141185000Y-111205750D01*
X141026250Y-111047000D01*
X139827000Y-111047000D01*
X139573000Y-111047000D01*
X138373750Y-111047000D01*
X138215000Y-111205750D01*
X133565000Y-111205750D01*
X133406250Y-111047000D01*
X132207000Y-111047000D01*
X131953000Y-111047000D01*
X130753750Y-111047000D01*
X130595000Y-111205750D01*
X125553679Y-111205750D01*
X125696051Y-110490000D01*
X125666949Y-110343691D01*
X130595000Y-110343691D01*
X130595000Y-110634250D01*
X130753750Y-110793000D01*
X131953000Y-110793000D01*
X131953000Y-109993750D01*
X132207000Y-109993750D01*
X132207000Y-110793000D01*
X133406250Y-110793000D01*
X133565000Y-110634250D01*
X133565000Y-110343691D01*
X138215000Y-110343691D01*
X138215000Y-110634250D01*
X138373750Y-110793000D01*
X139573000Y-110793000D01*
X139573000Y-109993750D01*
X139827000Y-109993750D01*
X139827000Y-110793000D01*
X141026250Y-110793000D01*
X141185000Y-110634250D01*
X141185000Y-110343691D01*
X141088327Y-110110302D01*
X140909699Y-109931673D01*
X140676310Y-109835000D01*
X139985750Y-109835000D01*
X139827000Y-109993750D01*
X139573000Y-109993750D01*
X139414250Y-109835000D01*
X138723690Y-109835000D01*
X138490301Y-109931673D01*
X138311673Y-110110302D01*
X138215000Y-110343691D01*
X133565000Y-110343691D01*
X133468327Y-110110302D01*
X133289699Y-109931673D01*
X133056310Y-109835000D01*
X132365750Y-109835000D01*
X132207000Y-109993750D01*
X131953000Y-109993750D01*
X131794250Y-109835000D01*
X131103690Y-109835000D01*
X130870301Y-109931673D01*
X130691673Y-110110302D01*
X130595000Y-110343691D01*
X125666949Y-110343691D01*
X125505289Y-109530976D01*
X124962046Y-108717954D01*
X124149024Y-108174711D01*
X123190000Y-107983949D01*
X122230976Y-108174711D01*
X121417954Y-108717954D01*
X121360000Y-108804688D01*
X121360000Y-93776800D01*
X121896600Y-93776800D01*
X121896600Y-101496600D01*
X121954452Y-101787439D01*
X122119199Y-102034001D01*
X122962560Y-102877362D01*
X122962560Y-103750000D01*
X123006838Y-103985317D01*
X123145910Y-104201441D01*
X123358110Y-104346431D01*
X123610000Y-104397440D01*
X123725946Y-104397440D01*
X123757852Y-104557839D01*
X123922599Y-104804401D01*
X127175599Y-108057401D01*
X127422161Y-108222148D01*
X127713000Y-108280000D01*
X130674895Y-108280000D01*
X130765910Y-108421441D01*
X130978110Y-108566431D01*
X131230000Y-108617440D01*
X132930000Y-108617440D01*
X133165317Y-108573162D01*
X133381441Y-108434090D01*
X133526431Y-108221890D01*
X133577440Y-107970000D01*
X133577440Y-107070000D01*
X138202560Y-107070000D01*
X138202560Y-107970000D01*
X138246838Y-108205317D01*
X138385910Y-108421441D01*
X138598110Y-108566431D01*
X138850000Y-108617440D01*
X140550000Y-108617440D01*
X140785317Y-108573162D01*
X141001441Y-108434090D01*
X141146431Y-108221890D01*
X141197440Y-107970000D01*
X141197440Y-107070000D01*
X141153162Y-106834683D01*
X141014090Y-106618559D01*
X140801890Y-106473569D01*
X140550000Y-106422560D01*
X138850000Y-106422560D01*
X138614683Y-106466838D01*
X138398559Y-106605910D01*
X138253569Y-106818110D01*
X138202560Y-107070000D01*
X133577440Y-107070000D01*
X133533162Y-106834683D01*
X133394090Y-106618559D01*
X133181890Y-106473569D01*
X132930000Y-106422560D01*
X131230000Y-106422560D01*
X130994683Y-106466838D01*
X130778559Y-106605910D01*
X130673274Y-106760000D01*
X128027802Y-106760000D01*
X127066169Y-105798367D01*
X142752638Y-105798367D01*
X142894683Y-106142143D01*
X143157473Y-106405392D01*
X143501001Y-106548038D01*
X143547877Y-106548079D01*
X144809798Y-107810000D01*
X143733095Y-107810000D01*
X143733095Y-110730000D01*
X158526905Y-110730000D01*
X158526905Y-110369091D01*
X161100400Y-110369091D01*
X161100400Y-110659650D01*
X161259150Y-110818400D01*
X162458400Y-110818400D01*
X162458400Y-110019150D01*
X162712400Y-110019150D01*
X162712400Y-110818400D01*
X163911650Y-110818400D01*
X164070400Y-110659650D01*
X164070400Y-110369091D01*
X163973727Y-110135702D01*
X163795099Y-109957073D01*
X163561710Y-109860400D01*
X162871150Y-109860400D01*
X162712400Y-110019150D01*
X162458400Y-110019150D01*
X162299650Y-109860400D01*
X161609090Y-109860400D01*
X161375701Y-109957073D01*
X161197073Y-110135702D01*
X161100400Y-110369091D01*
X158526905Y-110369091D01*
X158526905Y-108305400D01*
X161180295Y-108305400D01*
X161271310Y-108446841D01*
X161483510Y-108591831D01*
X161735400Y-108642840D01*
X163435400Y-108642840D01*
X163670717Y-108598562D01*
X163886841Y-108459490D01*
X164031831Y-108247290D01*
X164082840Y-107995400D01*
X164082840Y-107805750D01*
X176315000Y-107805750D01*
X176315000Y-108096309D01*
X176411673Y-108329698D01*
X176590301Y-108508327D01*
X176823690Y-108605000D01*
X177514250Y-108605000D01*
X177673000Y-108446250D01*
X177673000Y-107647000D01*
X177927000Y-107647000D01*
X177927000Y-108446250D01*
X178085750Y-108605000D01*
X178776310Y-108605000D01*
X179009699Y-108508327D01*
X179188327Y-108329698D01*
X179285000Y-108096309D01*
X179285000Y-107805750D01*
X179126250Y-107647000D01*
X177927000Y-107647000D01*
X177673000Y-107647000D01*
X176473750Y-107647000D01*
X176315000Y-107805750D01*
X164082840Y-107805750D01*
X164082840Y-107095400D01*
X164054294Y-106943691D01*
X176315000Y-106943691D01*
X176315000Y-107234250D01*
X176473750Y-107393000D01*
X177673000Y-107393000D01*
X177673000Y-106593750D01*
X177927000Y-106593750D01*
X177927000Y-107393000D01*
X179126250Y-107393000D01*
X179285000Y-107234250D01*
X179285000Y-106943691D01*
X179188327Y-106710302D01*
X179009699Y-106531673D01*
X178776310Y-106435000D01*
X178085750Y-106435000D01*
X177927000Y-106593750D01*
X177673000Y-106593750D01*
X177514250Y-106435000D01*
X176823690Y-106435000D01*
X176590301Y-106531673D01*
X176411673Y-106710302D01*
X176315000Y-106943691D01*
X164054294Y-106943691D01*
X164038562Y-106860083D01*
X163899490Y-106643959D01*
X163687290Y-106498969D01*
X163435400Y-106447960D01*
X161735400Y-106447960D01*
X161500083Y-106492238D01*
X161283959Y-106631310D01*
X161178674Y-106785400D01*
X145934802Y-106785400D01*
X144622922Y-105473520D01*
X144622962Y-105428033D01*
X144480917Y-105084257D01*
X144218127Y-104821008D01*
X143874599Y-104678362D01*
X143502633Y-104678038D01*
X143158857Y-104820083D01*
X142895608Y-105082873D01*
X142752962Y-105426401D01*
X142752638Y-105798367D01*
X127066169Y-105798367D01*
X125591345Y-104323543D01*
X125761441Y-104214090D01*
X125906431Y-104001890D01*
X125957440Y-103750000D01*
X125957440Y-102850000D01*
X125913162Y-102614683D01*
X125774090Y-102398559D01*
X125561890Y-102253569D01*
X125310000Y-102202560D01*
X124437362Y-102202560D01*
X123416600Y-101181798D01*
X123416600Y-100958276D01*
X123610000Y-100997440D01*
X125310000Y-100997440D01*
X125545317Y-100953162D01*
X125761441Y-100814090D01*
X125866726Y-100660000D01*
X126763198Y-100660000D01*
X128469199Y-102366001D01*
X128715760Y-102530748D01*
X129006600Y-102588600D01*
X130293798Y-102588600D01*
X130582560Y-102877362D01*
X130582560Y-103750000D01*
X130626838Y-103985317D01*
X130765910Y-104201441D01*
X130978110Y-104346431D01*
X131230000Y-104397440D01*
X132930000Y-104397440D01*
X133165317Y-104353162D01*
X133381441Y-104214090D01*
X133486726Y-104060000D01*
X138294895Y-104060000D01*
X138385910Y-104201441D01*
X138598110Y-104346431D01*
X138850000Y-104397440D01*
X140550000Y-104397440D01*
X140785317Y-104353162D01*
X141001441Y-104214090D01*
X141106726Y-104060000D01*
X145914895Y-104060000D01*
X146005910Y-104201441D01*
X146218110Y-104346431D01*
X146470000Y-104397440D01*
X148170000Y-104397440D01*
X148405317Y-104353162D01*
X148621441Y-104214090D01*
X148726726Y-104060000D01*
X153534895Y-104060000D01*
X153625910Y-104201441D01*
X153838110Y-104346431D01*
X154090000Y-104397440D01*
X155790000Y-104397440D01*
X156025317Y-104353162D01*
X156241441Y-104214090D01*
X156346726Y-104060000D01*
X161154895Y-104060000D01*
X161245910Y-104201441D01*
X161458110Y-104346431D01*
X161710000Y-104397440D01*
X163410000Y-104397440D01*
X163645317Y-104353162D01*
X163861441Y-104214090D01*
X163966726Y-104060000D01*
X168774895Y-104060000D01*
X168865910Y-104201441D01*
X169078110Y-104346431D01*
X169330000Y-104397440D01*
X171030000Y-104397440D01*
X171265317Y-104353162D01*
X171481441Y-104214090D01*
X171586726Y-104060000D01*
X174169600Y-104060000D01*
X174460439Y-104002148D01*
X174707001Y-103837401D01*
X176839729Y-101704673D01*
X176839438Y-102039167D01*
X176910056Y-102210076D01*
X176714683Y-102246838D01*
X176498559Y-102385910D01*
X176353569Y-102598110D01*
X176302560Y-102850000D01*
X176302560Y-103750000D01*
X176346838Y-103985317D01*
X176485910Y-104201441D01*
X176698110Y-104346431D01*
X176950000Y-104397440D01*
X178650000Y-104397440D01*
X178885317Y-104353162D01*
X179101441Y-104214090D01*
X179246431Y-104001890D01*
X179297440Y-103750000D01*
X179297440Y-102850000D01*
X179253162Y-102614683D01*
X179114090Y-102398559D01*
X178901890Y-102253569D01*
X178650000Y-102202560D01*
X178642269Y-102202560D01*
X178709438Y-102040799D01*
X178709762Y-101668833D01*
X178567717Y-101325057D01*
X178304927Y-101061808D01*
X178149912Y-100997440D01*
X178650000Y-100997440D01*
X178885317Y-100953162D01*
X178908343Y-100938345D01*
X180767799Y-102797801D01*
X181014361Y-102962548D01*
X181305200Y-103020400D01*
X183922560Y-103020400D01*
X183922560Y-103750000D01*
X183966838Y-103985317D01*
X184105910Y-104201441D01*
X184318110Y-104346431D01*
X184570000Y-104397440D01*
X186270000Y-104397440D01*
X186505317Y-104353162D01*
X186721441Y-104214090D01*
X186826726Y-104060000D01*
X191634895Y-104060000D01*
X191725910Y-104201441D01*
X191938110Y-104346431D01*
X192190000Y-104397440D01*
X193890000Y-104397440D01*
X194125317Y-104353162D01*
X194341441Y-104214090D01*
X194486431Y-104001890D01*
X194537440Y-103750000D01*
X194537440Y-102850000D01*
X194493162Y-102614683D01*
X194354090Y-102398559D01*
X194141890Y-102253569D01*
X193890000Y-102202560D01*
X192190000Y-102202560D01*
X191954683Y-102246838D01*
X191738559Y-102385910D01*
X191633274Y-102540000D01*
X186825105Y-102540000D01*
X186734090Y-102398559D01*
X186521890Y-102253569D01*
X186270000Y-102202560D01*
X186114300Y-102202560D01*
X186262992Y-102054127D01*
X186405638Y-101710599D01*
X186405962Y-101338633D01*
X186264984Y-100997440D01*
X186270000Y-100997440D01*
X186505317Y-100953162D01*
X186721441Y-100814090D01*
X186826726Y-100660000D01*
X187475600Y-100660000D01*
X187766439Y-100602148D01*
X188013001Y-100437401D01*
X189166480Y-99283922D01*
X189211967Y-99283962D01*
X189555743Y-99141917D01*
X189818992Y-98879127D01*
X189961638Y-98535599D01*
X189961962Y-98163633D01*
X189819917Y-97819857D01*
X189557127Y-97556608D01*
X189213599Y-97413962D01*
X188841633Y-97413638D01*
X188497857Y-97555683D01*
X188234608Y-97818473D01*
X188091962Y-98162001D01*
X188091921Y-98208877D01*
X187160798Y-99140000D01*
X186825105Y-99140000D01*
X186734090Y-98998559D01*
X186521890Y-98853569D01*
X186270000Y-98802560D01*
X184570000Y-98802560D01*
X184334683Y-98846838D01*
X184118559Y-98985910D01*
X183973569Y-99198110D01*
X183922560Y-99450000D01*
X183922560Y-100350000D01*
X183966838Y-100585317D01*
X184105910Y-100801441D01*
X184318110Y-100946431D01*
X184570000Y-100997440D01*
X184660000Y-100997440D01*
X184660000Y-101038286D01*
X184535962Y-101337001D01*
X184535793Y-101531310D01*
X184380400Y-101500400D01*
X181620002Y-101500400D01*
X179482201Y-99362599D01*
X179247379Y-99205697D01*
X179114090Y-98998559D01*
X178901890Y-98853569D01*
X178650000Y-98802560D01*
X176950000Y-98802560D01*
X176714683Y-98846838D01*
X176498559Y-98985910D01*
X176353569Y-99198110D01*
X176302560Y-99450000D01*
X176302560Y-100092238D01*
X173854798Y-102540000D01*
X171585105Y-102540000D01*
X171494090Y-102398559D01*
X171281890Y-102253569D01*
X171030000Y-102202560D01*
X169330000Y-102202560D01*
X169094683Y-102246838D01*
X168878559Y-102385910D01*
X168773274Y-102540000D01*
X163965105Y-102540000D01*
X163874090Y-102398559D01*
X163661890Y-102253569D01*
X163531532Y-102227171D01*
X163545638Y-102193199D01*
X163545962Y-101821233D01*
X163403917Y-101477457D01*
X163141127Y-101214208D01*
X162797599Y-101071562D01*
X162425633Y-101071238D01*
X162081857Y-101213283D01*
X161818608Y-101476073D01*
X161675962Y-101819601D01*
X161675638Y-102191567D01*
X161682331Y-102207766D01*
X161474683Y-102246838D01*
X161258559Y-102385910D01*
X161153274Y-102540000D01*
X156345105Y-102540000D01*
X156254090Y-102398559D01*
X156041890Y-102253569D01*
X155790000Y-102202560D01*
X154090000Y-102202560D01*
X153854683Y-102246838D01*
X153638559Y-102385910D01*
X153533274Y-102540000D01*
X148725105Y-102540000D01*
X148634090Y-102398559D01*
X148421890Y-102253569D01*
X148170000Y-102202560D01*
X146470000Y-102202560D01*
X146234683Y-102246838D01*
X146018559Y-102385910D01*
X145913274Y-102540000D01*
X141105105Y-102540000D01*
X141014090Y-102398559D01*
X140801890Y-102253569D01*
X140550000Y-102202560D01*
X138850000Y-102202560D01*
X138614683Y-102246838D01*
X138398559Y-102385910D01*
X138293274Y-102540000D01*
X133485105Y-102540000D01*
X133394090Y-102398559D01*
X133181890Y-102253569D01*
X132930000Y-102202560D01*
X132057362Y-102202560D01*
X131146001Y-101291199D01*
X130899439Y-101126452D01*
X130608600Y-101068600D01*
X129321402Y-101068600D01*
X127615401Y-99362599D01*
X127368839Y-99197852D01*
X127078000Y-99140000D01*
X125865105Y-99140000D01*
X125774090Y-98998559D01*
X125561890Y-98853569D01*
X125310000Y-98802560D01*
X123610000Y-98802560D01*
X123416600Y-98838951D01*
X123416600Y-96738276D01*
X123610000Y-96777440D01*
X125310000Y-96777440D01*
X125545317Y-96733162D01*
X125761441Y-96594090D01*
X125866726Y-96440000D01*
X127967000Y-96440000D01*
X128257839Y-96382148D01*
X128504401Y-96217401D01*
X129778602Y-94943200D01*
X130176800Y-94943200D01*
X130467639Y-94885348D01*
X130714201Y-94720601D01*
X131623700Y-93811102D01*
X132395158Y-94582560D01*
X131230000Y-94582560D01*
X130994683Y-94626838D01*
X130778559Y-94765910D01*
X130633569Y-94978110D01*
X130582560Y-95230000D01*
X130582560Y-96130000D01*
X130626838Y-96365317D01*
X130765910Y-96581441D01*
X130978110Y-96726431D01*
X131230000Y-96777440D01*
X131345400Y-96777440D01*
X131345400Y-97659337D01*
X131313208Y-97691473D01*
X131170562Y-98035001D01*
X131170238Y-98406967D01*
X131312283Y-98750743D01*
X131320000Y-98758473D01*
X131320000Y-98802560D01*
X131230000Y-98802560D01*
X130994683Y-98846838D01*
X130778559Y-98985910D01*
X130633569Y-99198110D01*
X130582560Y-99450000D01*
X130582560Y-100350000D01*
X130626838Y-100585317D01*
X130765910Y-100801441D01*
X130978110Y-100946431D01*
X131230000Y-100997440D01*
X132930000Y-100997440D01*
X133165317Y-100953162D01*
X133381441Y-100814090D01*
X133526431Y-100601890D01*
X133577440Y-100350000D01*
X133577440Y-99450000D01*
X138202560Y-99450000D01*
X138202560Y-100350000D01*
X138246838Y-100585317D01*
X138385910Y-100801441D01*
X138598110Y-100946431D01*
X138850000Y-100997440D01*
X140550000Y-100997440D01*
X140785317Y-100953162D01*
X141001441Y-100814090D01*
X141146431Y-100601890D01*
X141197440Y-100350000D01*
X141197440Y-99450000D01*
X145822560Y-99450000D01*
X145822560Y-100350000D01*
X145866838Y-100585317D01*
X146005910Y-100801441D01*
X146218110Y-100946431D01*
X146470000Y-100997440D01*
X148170000Y-100997440D01*
X148405317Y-100953162D01*
X148468974Y-100912200D01*
X149199600Y-100912200D01*
X149490439Y-100854348D01*
X149673989Y-100731704D01*
X149740367Y-100731762D01*
X150084143Y-100589717D01*
X150347392Y-100326927D01*
X150490038Y-99983399D01*
X150490362Y-99611433D01*
X150348317Y-99267657D01*
X150085527Y-99004408D01*
X149741999Y-98861762D01*
X149370033Y-98861438D01*
X149026257Y-99003483D01*
X148779729Y-99249582D01*
X148773162Y-99214683D01*
X148634090Y-98998559D01*
X148421890Y-98853569D01*
X148170000Y-98802560D01*
X146470000Y-98802560D01*
X146234683Y-98846838D01*
X146018559Y-98985910D01*
X145873569Y-99198110D01*
X145822560Y-99450000D01*
X141197440Y-99450000D01*
X141153162Y-99214683D01*
X141014090Y-98998559D01*
X140801890Y-98853569D01*
X140550000Y-98802560D01*
X138850000Y-98802560D01*
X138614683Y-98846838D01*
X138398559Y-98985910D01*
X138253569Y-99198110D01*
X138202560Y-99450000D01*
X133577440Y-99450000D01*
X133533162Y-99214683D01*
X133394090Y-98998559D01*
X133181890Y-98853569D01*
X132930000Y-98802560D01*
X132847071Y-98802560D01*
X132897592Y-98752127D01*
X133040238Y-98408599D01*
X133040562Y-98036633D01*
X132898517Y-97692857D01*
X132865400Y-97659682D01*
X132865400Y-96777440D01*
X132930000Y-96777440D01*
X133165317Y-96733162D01*
X133381441Y-96594090D01*
X133526431Y-96381890D01*
X133577440Y-96130000D01*
X133577440Y-95764842D01*
X134029999Y-96217401D01*
X134276561Y-96382148D01*
X134567400Y-96440000D01*
X138294895Y-96440000D01*
X138385910Y-96581441D01*
X138598110Y-96726431D01*
X138850000Y-96777440D01*
X140550000Y-96777440D01*
X140785317Y-96733162D01*
X141001441Y-96594090D01*
X141106726Y-96440000D01*
X145914895Y-96440000D01*
X146005910Y-96581441D01*
X146218110Y-96726431D01*
X146470000Y-96777440D01*
X146560000Y-96777440D01*
X146560000Y-96901000D01*
X146617852Y-97191839D01*
X146782599Y-97438401D01*
X146943678Y-97599480D01*
X146943638Y-97644967D01*
X147085683Y-97988743D01*
X147348473Y-98251992D01*
X147692001Y-98394638D01*
X148063967Y-98394962D01*
X148407743Y-98252917D01*
X148670992Y-97990127D01*
X148813638Y-97646599D01*
X148813962Y-97274633D01*
X148671917Y-96930857D01*
X148447482Y-96706030D01*
X148621441Y-96594090D01*
X148726726Y-96440000D01*
X153316582Y-96440000D01*
X153258808Y-96497673D01*
X153116162Y-96841201D01*
X153115838Y-97213167D01*
X153257883Y-97556943D01*
X153520673Y-97820192D01*
X153864201Y-97962838D01*
X153911077Y-97962879D01*
X154180000Y-98231802D01*
X154180000Y-98802560D01*
X154090000Y-98802560D01*
X153854683Y-98846838D01*
X153638559Y-98985910D01*
X153493569Y-99198110D01*
X153442560Y-99450000D01*
X153442560Y-100350000D01*
X153486838Y-100585317D01*
X153625910Y-100801441D01*
X153838110Y-100946431D01*
X154090000Y-100997440D01*
X155790000Y-100997440D01*
X156025317Y-100953162D01*
X156241441Y-100814090D01*
X156386431Y-100601890D01*
X156437440Y-100350000D01*
X156437440Y-99450000D01*
X161062560Y-99450000D01*
X161062560Y-100350000D01*
X161106838Y-100585317D01*
X161245910Y-100801441D01*
X161458110Y-100946431D01*
X161710000Y-100997440D01*
X163410000Y-100997440D01*
X163645317Y-100953162D01*
X163861441Y-100814090D01*
X164006431Y-100601890D01*
X164057440Y-100350000D01*
X164057440Y-99450000D01*
X168682560Y-99450000D01*
X168682560Y-100350000D01*
X168726838Y-100585317D01*
X168865910Y-100801441D01*
X169078110Y-100946431D01*
X169330000Y-100997440D01*
X171030000Y-100997440D01*
X171265317Y-100953162D01*
X171481441Y-100814090D01*
X171626431Y-100601890D01*
X171677440Y-100350000D01*
X171677440Y-99450000D01*
X171633162Y-99214683D01*
X171494090Y-98998559D01*
X171281890Y-98853569D01*
X171030000Y-98802560D01*
X169330000Y-98802560D01*
X169094683Y-98846838D01*
X168878559Y-98985910D01*
X168733569Y-99198110D01*
X168682560Y-99450000D01*
X164057440Y-99450000D01*
X164013162Y-99214683D01*
X163874090Y-98998559D01*
X163661890Y-98853569D01*
X163410000Y-98802560D01*
X161710000Y-98802560D01*
X161474683Y-98846838D01*
X161258559Y-98985910D01*
X161113569Y-99198110D01*
X161062560Y-99450000D01*
X156437440Y-99450000D01*
X156393162Y-99214683D01*
X156254090Y-98998559D01*
X156041890Y-98853569D01*
X155790000Y-98802560D01*
X155700000Y-98802560D01*
X155700000Y-97917000D01*
X155642148Y-97626161D01*
X155477401Y-97379599D01*
X154986122Y-96888320D01*
X154986162Y-96842833D01*
X154959142Y-96777440D01*
X155790000Y-96777440D01*
X156025317Y-96733162D01*
X156241441Y-96594090D01*
X156346726Y-96440000D01*
X161154895Y-96440000D01*
X161245910Y-96581441D01*
X161458110Y-96726431D01*
X161710000Y-96777440D01*
X163410000Y-96777440D01*
X163645317Y-96733162D01*
X163861441Y-96594090D01*
X163966726Y-96440000D01*
X168774895Y-96440000D01*
X168865910Y-96581441D01*
X169078110Y-96726431D01*
X169330000Y-96777440D01*
X171030000Y-96777440D01*
X171265317Y-96733162D01*
X171481441Y-96594090D01*
X171586726Y-96440000D01*
X176394895Y-96440000D01*
X176485910Y-96581441D01*
X176698110Y-96726431D01*
X176950000Y-96777440D01*
X178650000Y-96777440D01*
X178885317Y-96733162D01*
X179101441Y-96594090D01*
X179206726Y-96440000D01*
X184014895Y-96440000D01*
X184105910Y-96581441D01*
X184318110Y-96726431D01*
X184570000Y-96777440D01*
X186270000Y-96777440D01*
X186505317Y-96733162D01*
X186721441Y-96594090D01*
X186826726Y-96440000D01*
X191634895Y-96440000D01*
X191725910Y-96581441D01*
X191938110Y-96726431D01*
X192190000Y-96777440D01*
X193890000Y-96777440D01*
X194125317Y-96733162D01*
X194341441Y-96594090D01*
X194486431Y-96381890D01*
X194537440Y-96130000D01*
X194537440Y-95230000D01*
X194493162Y-94994683D01*
X194354090Y-94778559D01*
X194141890Y-94633569D01*
X193890000Y-94582560D01*
X192190000Y-94582560D01*
X191954683Y-94626838D01*
X191738559Y-94765910D01*
X191633274Y-94920000D01*
X186825105Y-94920000D01*
X186734090Y-94778559D01*
X186521890Y-94633569D01*
X186270000Y-94582560D01*
X184570000Y-94582560D01*
X184334683Y-94626838D01*
X184118559Y-94765910D01*
X184013274Y-94920000D01*
X179205105Y-94920000D01*
X179114090Y-94778559D01*
X178901890Y-94633569D01*
X178650000Y-94582560D01*
X178644204Y-94582560D01*
X178658638Y-94547799D01*
X178658962Y-94175833D01*
X178560000Y-93936326D01*
X178560000Y-93377440D01*
X178650000Y-93377440D01*
X178885317Y-93333162D01*
X179101441Y-93194090D01*
X179246431Y-92981890D01*
X179297440Y-92730000D01*
X179297440Y-91830000D01*
X179253162Y-91594683D01*
X179114090Y-91378559D01*
X178901890Y-91233569D01*
X178650000Y-91182560D01*
X178560000Y-91182560D01*
X178560000Y-89923367D01*
X178744438Y-89923367D01*
X178886483Y-90267143D01*
X179149273Y-90530392D01*
X179492801Y-90673038D01*
X179864767Y-90673362D01*
X180208543Y-90531317D01*
X180394384Y-90345800D01*
X183892337Y-90345800D01*
X183924473Y-90377992D01*
X184268001Y-90520638D01*
X184639967Y-90520962D01*
X184660000Y-90512685D01*
X184660000Y-91182560D01*
X184570000Y-91182560D01*
X184334683Y-91226838D01*
X184118559Y-91365910D01*
X183973569Y-91578110D01*
X183922560Y-91830000D01*
X183922560Y-92730000D01*
X183966838Y-92965317D01*
X184105910Y-93181441D01*
X184318110Y-93326431D01*
X184570000Y-93377440D01*
X186270000Y-93377440D01*
X186505317Y-93333162D01*
X186721441Y-93194090D01*
X186866431Y-92981890D01*
X186917440Y-92730000D01*
X186917440Y-91830000D01*
X186873162Y-91594683D01*
X186734090Y-91378559D01*
X186521890Y-91233569D01*
X186270000Y-91182560D01*
X186180000Y-91182560D01*
X186180000Y-89157440D01*
X186270000Y-89157440D01*
X186505317Y-89113162D01*
X186721441Y-88974090D01*
X186866431Y-88761890D01*
X186917440Y-88510000D01*
X186917440Y-87610000D01*
X186873162Y-87374683D01*
X186734090Y-87158559D01*
X186521890Y-87013569D01*
X186270000Y-86962560D01*
X184570000Y-86962560D01*
X184334683Y-87006838D01*
X184118559Y-87145910D01*
X183973569Y-87358110D01*
X183922560Y-87610000D01*
X183922560Y-88510000D01*
X183966838Y-88745317D01*
X183982308Y-88769358D01*
X183925857Y-88792683D01*
X183892682Y-88825800D01*
X179920435Y-88825800D01*
X179866399Y-88803362D01*
X179494433Y-88803038D01*
X179150657Y-88945083D01*
X178887408Y-89207873D01*
X178744762Y-89551401D01*
X178744438Y-89923367D01*
X178560000Y-89923367D01*
X178560000Y-89157440D01*
X178650000Y-89157440D01*
X178885317Y-89113162D01*
X179101441Y-88974090D01*
X179246431Y-88761890D01*
X179297440Y-88510000D01*
X179297440Y-87610000D01*
X179253162Y-87374683D01*
X179114090Y-87158559D01*
X178901890Y-87013569D01*
X178650000Y-86962560D01*
X176950000Y-86962560D01*
X176714683Y-87006838D01*
X176498559Y-87145910D01*
X176353569Y-87358110D01*
X176302560Y-87610000D01*
X176302560Y-88510000D01*
X176346838Y-88745317D01*
X176485910Y-88961441D01*
X176698110Y-89106431D01*
X176950000Y-89157440D01*
X177040000Y-89157440D01*
X177040000Y-91182560D01*
X176950000Y-91182560D01*
X176714683Y-91226838D01*
X176498559Y-91365910D01*
X176353569Y-91578110D01*
X176302560Y-91830000D01*
X176302560Y-92730000D01*
X176346838Y-92965317D01*
X176485910Y-93181441D01*
X176698110Y-93326431D01*
X176950000Y-93377440D01*
X177040000Y-93377440D01*
X177040000Y-93722470D01*
X176931608Y-93830673D01*
X176788962Y-94174201D01*
X176788638Y-94546167D01*
X176814231Y-94608107D01*
X176714683Y-94626838D01*
X176498559Y-94765910D01*
X176393274Y-94920000D01*
X171585105Y-94920000D01*
X171494090Y-94778559D01*
X171281890Y-94633569D01*
X171137831Y-94604396D01*
X171140238Y-94598599D01*
X171140562Y-94226633D01*
X170998517Y-93882857D01*
X170940000Y-93824238D01*
X170940000Y-93377440D01*
X171030000Y-93377440D01*
X171265317Y-93333162D01*
X171481441Y-93194090D01*
X171626431Y-92981890D01*
X171677440Y-92730000D01*
X171677440Y-91830000D01*
X171633162Y-91594683D01*
X171494090Y-91378559D01*
X171281890Y-91233569D01*
X171030000Y-91182560D01*
X170940000Y-91182560D01*
X170940000Y-89157440D01*
X171030000Y-89157440D01*
X171265317Y-89113162D01*
X171481441Y-88974090D01*
X171626431Y-88761890D01*
X171677440Y-88510000D01*
X171677440Y-87610000D01*
X171633162Y-87374683D01*
X171494090Y-87158559D01*
X171281890Y-87013569D01*
X171030000Y-86962560D01*
X169330000Y-86962560D01*
X169094683Y-87006838D01*
X168878559Y-87145910D01*
X168733569Y-87358110D01*
X168682560Y-87610000D01*
X168682560Y-88510000D01*
X168726838Y-88745317D01*
X168865910Y-88961441D01*
X169078110Y-89106431D01*
X169330000Y-89157440D01*
X169420000Y-89157440D01*
X169420000Y-91182560D01*
X169330000Y-91182560D01*
X169094683Y-91226838D01*
X168878559Y-91365910D01*
X168733569Y-91578110D01*
X168682560Y-91830000D01*
X168682560Y-92730000D01*
X168726838Y-92965317D01*
X168865910Y-93181441D01*
X169078110Y-93326431D01*
X169330000Y-93377440D01*
X169420000Y-93377440D01*
X169420000Y-93874693D01*
X169413208Y-93881473D01*
X169270562Y-94225001D01*
X169270241Y-94593804D01*
X169094683Y-94626838D01*
X168878559Y-94765910D01*
X168773274Y-94920000D01*
X166426168Y-94920000D01*
X166517438Y-94700199D01*
X166517762Y-94328233D01*
X166375717Y-93984457D01*
X166112927Y-93721208D01*
X165769399Y-93578562D01*
X165397433Y-93578238D01*
X165053657Y-93720283D01*
X165020482Y-93753400D01*
X163535202Y-93753400D01*
X163320000Y-93538198D01*
X163320000Y-93377440D01*
X163410000Y-93377440D01*
X163645317Y-93333162D01*
X163861441Y-93194090D01*
X164006431Y-92981890D01*
X164057440Y-92730000D01*
X164057440Y-91830000D01*
X164013162Y-91594683D01*
X163874090Y-91378559D01*
X163661890Y-91233569D01*
X163410000Y-91182560D01*
X163320000Y-91182560D01*
X163320000Y-89157440D01*
X163410000Y-89157440D01*
X163645317Y-89113162D01*
X163861441Y-88974090D01*
X164006431Y-88761890D01*
X164057440Y-88510000D01*
X164057440Y-87610000D01*
X164013162Y-87374683D01*
X163874090Y-87158559D01*
X163661890Y-87013569D01*
X163410000Y-86962560D01*
X161710000Y-86962560D01*
X161474683Y-87006838D01*
X161258559Y-87145910D01*
X161113569Y-87358110D01*
X161062560Y-87610000D01*
X161062560Y-88510000D01*
X161106838Y-88745317D01*
X161245910Y-88961441D01*
X161458110Y-89106431D01*
X161710000Y-89157440D01*
X161800000Y-89157440D01*
X161800000Y-91182560D01*
X161710000Y-91182560D01*
X161474683Y-91226838D01*
X161258559Y-91365910D01*
X161113569Y-91578110D01*
X161062560Y-91830000D01*
X161062560Y-92730000D01*
X161106838Y-92965317D01*
X161245910Y-93181441D01*
X161458110Y-93326431D01*
X161710000Y-93377440D01*
X161800000Y-93377440D01*
X161800000Y-93853000D01*
X161857852Y-94143839D01*
X162022599Y-94390401D01*
X162214758Y-94582560D01*
X161710000Y-94582560D01*
X161474683Y-94626838D01*
X161258559Y-94765910D01*
X161153274Y-94920000D01*
X156345105Y-94920000D01*
X156254090Y-94778559D01*
X156041890Y-94633569D01*
X155790000Y-94582560D01*
X154090000Y-94582560D01*
X153854683Y-94626838D01*
X153638559Y-94765910D01*
X153533274Y-94920000D01*
X150769645Y-94920000D01*
X150769762Y-94785433D01*
X150627717Y-94441657D01*
X150594600Y-94408482D01*
X150594600Y-94056200D01*
X150536748Y-93765361D01*
X150372001Y-93518799D01*
X148817440Y-91964238D01*
X148817440Y-91830000D01*
X148773162Y-91594683D01*
X148634090Y-91378559D01*
X148421890Y-91233569D01*
X148170000Y-91182560D01*
X148080000Y-91182560D01*
X148080000Y-89157440D01*
X148170000Y-89157440D01*
X148405317Y-89113162D01*
X148621441Y-88974090D01*
X148766431Y-88761890D01*
X148810318Y-88545167D01*
X150194838Y-88545167D01*
X150336883Y-88888943D01*
X150599673Y-89152192D01*
X150943201Y-89294838D01*
X151315167Y-89295162D01*
X151658943Y-89153117D01*
X151922192Y-88890327D01*
X151951394Y-88820000D01*
X153534895Y-88820000D01*
X153625910Y-88961441D01*
X153838110Y-89106431D01*
X154090000Y-89157440D01*
X154180000Y-89157440D01*
X154180000Y-91182560D01*
X154090000Y-91182560D01*
X153854683Y-91226838D01*
X153638559Y-91365910D01*
X153493569Y-91578110D01*
X153442560Y-91830000D01*
X153442560Y-92730000D01*
X153486838Y-92965317D01*
X153625910Y-93181441D01*
X153838110Y-93326431D01*
X154090000Y-93377440D01*
X155790000Y-93377440D01*
X156025317Y-93333162D01*
X156241441Y-93194090D01*
X156386431Y-92981890D01*
X156437440Y-92730000D01*
X156437440Y-91830000D01*
X156393162Y-91594683D01*
X156254090Y-91378559D01*
X156041890Y-91233569D01*
X155790000Y-91182560D01*
X155700000Y-91182560D01*
X155700000Y-89157440D01*
X155790000Y-89157440D01*
X156025317Y-89113162D01*
X156241441Y-88974090D01*
X156386431Y-88761890D01*
X156437440Y-88510000D01*
X156437440Y-87610000D01*
X156393162Y-87374683D01*
X156254090Y-87158559D01*
X156041890Y-87013569D01*
X155790000Y-86962560D01*
X154090000Y-86962560D01*
X153854683Y-87006838D01*
X153638559Y-87145910D01*
X153533274Y-87300000D01*
X151430000Y-87300000D01*
X151139161Y-87357852D01*
X151038787Y-87424920D01*
X150944833Y-87424838D01*
X150601057Y-87566883D01*
X150337808Y-87829673D01*
X150195162Y-88173201D01*
X150194838Y-88545167D01*
X148810318Y-88545167D01*
X148817440Y-88510000D01*
X148817440Y-87969362D01*
X148958280Y-87828522D01*
X149003767Y-87828562D01*
X149347543Y-87686517D01*
X149610792Y-87423727D01*
X149753438Y-87080199D01*
X149753762Y-86708233D01*
X149611717Y-86364457D01*
X149348927Y-86101208D01*
X149005399Y-85958562D01*
X148633433Y-85958238D01*
X148289657Y-86100283D01*
X148026408Y-86363073D01*
X147883762Y-86706601D01*
X147883721Y-86753477D01*
X147674638Y-86962560D01*
X146470000Y-86962560D01*
X146234683Y-87006838D01*
X146018559Y-87145910D01*
X145873569Y-87358110D01*
X145822560Y-87610000D01*
X145822560Y-88510000D01*
X145866838Y-88745317D01*
X146005910Y-88961441D01*
X146218110Y-89106431D01*
X146470000Y-89157440D01*
X146560000Y-89157440D01*
X146560000Y-91182560D01*
X146470000Y-91182560D01*
X146234683Y-91226838D01*
X146018559Y-91365910D01*
X145873569Y-91578110D01*
X145822560Y-91830000D01*
X145822560Y-92730000D01*
X145866838Y-92965317D01*
X146005910Y-93181441D01*
X146218110Y-93326431D01*
X146470000Y-93377440D01*
X148081038Y-93377440D01*
X149074600Y-94371002D01*
X149074600Y-94408137D01*
X149042408Y-94440273D01*
X148899762Y-94783801D01*
X148899643Y-94920000D01*
X148725105Y-94920000D01*
X148634090Y-94778559D01*
X148421890Y-94633569D01*
X148170000Y-94582560D01*
X146470000Y-94582560D01*
X146234683Y-94626838D01*
X146018559Y-94765910D01*
X145913274Y-94920000D01*
X141105105Y-94920000D01*
X141014090Y-94778559D01*
X140801890Y-94633569D01*
X140550000Y-94582560D01*
X138850000Y-94582560D01*
X138614683Y-94626838D01*
X138398559Y-94765910D01*
X138293274Y-94920000D01*
X136170691Y-94920000D01*
X136301192Y-94789727D01*
X136443838Y-94446199D01*
X136444162Y-94074233D01*
X136302117Y-93730457D01*
X136269000Y-93697282D01*
X136269000Y-91287600D01*
X136211148Y-90996761D01*
X136046401Y-90750199D01*
X133577440Y-88281238D01*
X133577440Y-87610000D01*
X138202560Y-87610000D01*
X138202560Y-88510000D01*
X138246838Y-88745317D01*
X138385910Y-88961441D01*
X138598110Y-89106431D01*
X138850000Y-89157440D01*
X138940000Y-89157440D01*
X138940000Y-91182560D01*
X138850000Y-91182560D01*
X138614683Y-91226838D01*
X138398559Y-91365910D01*
X138253569Y-91578110D01*
X138202560Y-91830000D01*
X138202560Y-92730000D01*
X138246838Y-92965317D01*
X138385910Y-93181441D01*
X138598110Y-93326431D01*
X138850000Y-93377440D01*
X139197583Y-93377440D01*
X139347473Y-93527592D01*
X139691001Y-93670238D01*
X140062967Y-93670562D01*
X140406743Y-93528517D01*
X140559962Y-93375566D01*
X140785317Y-93333162D01*
X141001441Y-93194090D01*
X141146431Y-92981890D01*
X141197440Y-92730000D01*
X141197440Y-91830000D01*
X141153162Y-91594683D01*
X141014090Y-91378559D01*
X140801890Y-91233569D01*
X140550000Y-91182560D01*
X140460000Y-91182560D01*
X140460000Y-89157440D01*
X140550000Y-89157440D01*
X140785317Y-89113162D01*
X141001441Y-88974090D01*
X141146431Y-88761890D01*
X141197440Y-88510000D01*
X141197440Y-87610000D01*
X141153162Y-87374683D01*
X141014090Y-87158559D01*
X140801890Y-87013569D01*
X140550000Y-86962560D01*
X138850000Y-86962560D01*
X138614683Y-87006838D01*
X138398559Y-87145910D01*
X138253569Y-87358110D01*
X138202560Y-87610000D01*
X133577440Y-87610000D01*
X133533162Y-87374683D01*
X133394090Y-87158559D01*
X133181890Y-87013569D01*
X132930000Y-86962560D01*
X131230000Y-86962560D01*
X130994683Y-87006838D01*
X130778559Y-87145910D01*
X130633569Y-87358110D01*
X130582560Y-87610000D01*
X130582560Y-88510000D01*
X130626838Y-88745317D01*
X130765910Y-88961441D01*
X130978110Y-89106431D01*
X131230000Y-89157440D01*
X132304038Y-89157440D01*
X134749000Y-91602402D01*
X134749000Y-93696937D01*
X134716808Y-93729073D01*
X134574162Y-94072601D01*
X134573838Y-94444567D01*
X134691476Y-94729274D01*
X133244446Y-93282244D01*
X133381441Y-93194090D01*
X133526431Y-92981890D01*
X133577440Y-92730000D01*
X133577440Y-91830000D01*
X133533162Y-91594683D01*
X133394090Y-91378559D01*
X133181890Y-91233569D01*
X132930000Y-91182560D01*
X131230000Y-91182560D01*
X130994683Y-91226838D01*
X130778559Y-91365910D01*
X130633569Y-91578110D01*
X130582560Y-91830000D01*
X130582560Y-92702638D01*
X129861998Y-93423200D01*
X129463800Y-93423200D01*
X129172961Y-93481052D01*
X128926399Y-93645799D01*
X127652198Y-94920000D01*
X125865105Y-94920000D01*
X125774090Y-94778559D01*
X125561890Y-94633569D01*
X125310000Y-94582560D01*
X123610000Y-94582560D01*
X123416600Y-94618951D01*
X123416600Y-94091602D01*
X124130762Y-93377440D01*
X125310000Y-93377440D01*
X125545317Y-93333162D01*
X125761441Y-93194090D01*
X125906431Y-92981890D01*
X125957440Y-92730000D01*
X125957440Y-91830000D01*
X125913162Y-91594683D01*
X125774090Y-91378559D01*
X125561890Y-91233569D01*
X125310000Y-91182560D01*
X125220000Y-91182560D01*
X125220000Y-89157440D01*
X125310000Y-89157440D01*
X125545317Y-89113162D01*
X125761441Y-88974090D01*
X125906431Y-88761890D01*
X125957440Y-88510000D01*
X125957440Y-88451962D01*
X127689801Y-86719601D01*
X127854548Y-86473040D01*
X127912400Y-86182200D01*
X127912400Y-85593066D01*
X128251967Y-85593362D01*
X128595743Y-85451317D01*
X128627115Y-85420000D01*
X130674895Y-85420000D01*
X130765910Y-85561441D01*
X130978110Y-85706431D01*
X131230000Y-85757440D01*
X132930000Y-85757440D01*
X133165317Y-85713162D01*
X133381441Y-85574090D01*
X133486726Y-85420000D01*
X138294895Y-85420000D01*
X138385910Y-85561441D01*
X138598110Y-85706431D01*
X138850000Y-85757440D01*
X140550000Y-85757440D01*
X140785317Y-85713162D01*
X141001441Y-85574090D01*
X141106726Y-85420000D01*
X142343600Y-85420000D01*
X142343600Y-88534398D01*
X141643120Y-89234878D01*
X141597633Y-89234838D01*
X141253857Y-89376883D01*
X140990608Y-89639673D01*
X140847962Y-89983201D01*
X140847638Y-90355167D01*
X140989683Y-90698943D01*
X141252473Y-90962192D01*
X141596001Y-91104838D01*
X141967967Y-91105162D01*
X142311743Y-90963117D01*
X142574992Y-90700327D01*
X142717638Y-90356799D01*
X142717679Y-90309923D01*
X143641001Y-89386601D01*
X143805748Y-89140040D01*
X143863600Y-88849200D01*
X143863600Y-85420000D01*
X145914895Y-85420000D01*
X146005910Y-85561441D01*
X146218110Y-85706431D01*
X146470000Y-85757440D01*
X148170000Y-85757440D01*
X148405317Y-85713162D01*
X148621441Y-85574090D01*
X148726726Y-85420000D01*
X153534895Y-85420000D01*
X153625910Y-85561441D01*
X153838110Y-85706431D01*
X154090000Y-85757440D01*
X155790000Y-85757440D01*
X156025317Y-85713162D01*
X156241441Y-85574090D01*
X156346726Y-85420000D01*
X161154895Y-85420000D01*
X161245910Y-85561441D01*
X161458110Y-85706431D01*
X161710000Y-85757440D01*
X163410000Y-85757440D01*
X163645317Y-85713162D01*
X163861441Y-85574090D01*
X163936383Y-85464409D01*
X163936238Y-85630767D01*
X164078283Y-85974543D01*
X164111400Y-86007718D01*
X164111400Y-87249000D01*
X164114341Y-87263787D01*
X164114038Y-87611967D01*
X164256083Y-87955743D01*
X164518873Y-88218992D01*
X164862401Y-88361638D01*
X165234367Y-88361962D01*
X165578143Y-88219917D01*
X165841392Y-87957127D01*
X165984038Y-87613599D01*
X165984362Y-87241633D01*
X165842317Y-86897857D01*
X165631400Y-86686572D01*
X165631400Y-86008063D01*
X165663592Y-85975927D01*
X165806238Y-85632399D01*
X165806423Y-85420000D01*
X168774895Y-85420000D01*
X168865910Y-85561441D01*
X169078110Y-85706431D01*
X169330000Y-85757440D01*
X171030000Y-85757440D01*
X171265317Y-85713162D01*
X171481441Y-85574090D01*
X171586726Y-85420000D01*
X176394895Y-85420000D01*
X176485910Y-85561441D01*
X176698110Y-85706431D01*
X176950000Y-85757440D01*
X178650000Y-85757440D01*
X178885317Y-85713162D01*
X179101441Y-85574090D01*
X179206726Y-85420000D01*
X184014895Y-85420000D01*
X184105910Y-85561441D01*
X184318110Y-85706431D01*
X184570000Y-85757440D01*
X186270000Y-85757440D01*
X186505317Y-85713162D01*
X186721441Y-85574090D01*
X186826726Y-85420000D01*
X191634895Y-85420000D01*
X191725910Y-85561441D01*
X191938110Y-85706431D01*
X192190000Y-85757440D01*
X193890000Y-85757440D01*
X194125317Y-85713162D01*
X194341441Y-85574090D01*
X194486431Y-85361890D01*
X194537440Y-85110000D01*
X194537440Y-84210000D01*
X194493162Y-83974683D01*
X194354090Y-83758559D01*
X194141890Y-83613569D01*
X193890000Y-83562560D01*
X192190000Y-83562560D01*
X191954683Y-83606838D01*
X191738559Y-83745910D01*
X191633274Y-83900000D01*
X186825105Y-83900000D01*
X186734090Y-83758559D01*
X186521890Y-83613569D01*
X186270000Y-83562560D01*
X184570000Y-83562560D01*
X184334683Y-83606838D01*
X184118559Y-83745910D01*
X184013274Y-83900000D01*
X179205105Y-83900000D01*
X179114090Y-83758559D01*
X178901890Y-83613569D01*
X178650000Y-83562560D01*
X176950000Y-83562560D01*
X176714683Y-83606838D01*
X176498559Y-83745910D01*
X176393274Y-83900000D01*
X171585105Y-83900000D01*
X171494090Y-83758559D01*
X171281890Y-83613569D01*
X171030000Y-83562560D01*
X169330000Y-83562560D01*
X169094683Y-83606838D01*
X168878559Y-83745910D01*
X168773274Y-83900000D01*
X165577797Y-83900000D01*
X165577962Y-83711033D01*
X165435917Y-83367257D01*
X165173127Y-83104008D01*
X164971000Y-83020077D01*
X164971000Y-81661000D01*
X164913148Y-81370161D01*
X164748401Y-81123599D01*
X164057440Y-80432638D01*
X164057440Y-79160000D01*
X164013162Y-78924683D01*
X163874090Y-78708559D01*
X163661890Y-78563569D01*
X163410000Y-78512560D01*
X161710000Y-78512560D01*
X161474683Y-78556838D01*
X161258559Y-78695910D01*
X161113569Y-78908110D01*
X161099914Y-78975541D01*
X161070054Y-78930853D01*
X160588285Y-78608946D01*
X160020000Y-78495907D01*
X159451715Y-78608946D01*
X158969946Y-78930853D01*
X158742298Y-79271553D01*
X158675183Y-79128642D01*
X158246924Y-78738355D01*
X157836890Y-78568524D01*
X157607000Y-78689845D01*
X157607000Y-79883000D01*
X157627000Y-79883000D01*
X157627000Y-80137000D01*
X157607000Y-80137000D01*
X157607000Y-81330155D01*
X157836890Y-81451476D01*
X158246924Y-81281645D01*
X158675183Y-80891358D01*
X158742298Y-80748447D01*
X158969946Y-81089147D01*
X159260000Y-81282954D01*
X159260000Y-83286600D01*
X159317852Y-83577439D01*
X159482599Y-83824001D01*
X159558598Y-83900000D01*
X156345105Y-83900000D01*
X156254090Y-83758559D01*
X156041890Y-83613569D01*
X155790000Y-83562560D01*
X154090000Y-83562560D01*
X153854683Y-83606838D01*
X153638559Y-83745910D01*
X153533274Y-83900000D01*
X148725105Y-83900000D01*
X148634090Y-83758559D01*
X148421890Y-83613569D01*
X148170000Y-83562560D01*
X146470000Y-83562560D01*
X146234683Y-83606838D01*
X146018559Y-83745910D01*
X145913274Y-83900000D01*
X141105105Y-83900000D01*
X141014090Y-83758559D01*
X140801890Y-83613569D01*
X140550000Y-83562560D01*
X138850000Y-83562560D01*
X138614683Y-83606838D01*
X138398559Y-83745910D01*
X138293274Y-83900000D01*
X133485105Y-83900000D01*
X133394090Y-83758559D01*
X133181890Y-83613569D01*
X132930000Y-83562560D01*
X131230000Y-83562560D01*
X130994683Y-83606838D01*
X130778559Y-83745910D01*
X130673274Y-83900000D01*
X129907402Y-83900000D01*
X129103522Y-83096120D01*
X129103562Y-83050633D01*
X128961517Y-82706857D01*
X128698727Y-82443608D01*
X128355199Y-82300962D01*
X127983233Y-82300638D01*
X127912400Y-82329906D01*
X127912400Y-80674063D01*
X127944592Y-80641927D01*
X128087238Y-80298399D01*
X128087514Y-79980907D01*
X153455000Y-79980907D01*
X153455000Y-80039093D01*
X153568039Y-80607378D01*
X153889946Y-81089147D01*
X154371715Y-81411054D01*
X154940000Y-81524093D01*
X155508285Y-81411054D01*
X155990054Y-81089147D01*
X156217702Y-80748447D01*
X156284817Y-80891358D01*
X156713076Y-81281645D01*
X157123110Y-81451476D01*
X157353000Y-81330155D01*
X157353000Y-80137000D01*
X157333000Y-80137000D01*
X157333000Y-79883000D01*
X157353000Y-79883000D01*
X157353000Y-78689845D01*
X157123110Y-78568524D01*
X156713076Y-78738355D01*
X156284817Y-79128642D01*
X156217702Y-79271553D01*
X155990054Y-78930853D01*
X155508285Y-78608946D01*
X154940000Y-78495907D01*
X154371715Y-78608946D01*
X153889946Y-78930853D01*
X153568039Y-79412622D01*
X153455000Y-79980907D01*
X128087514Y-79980907D01*
X128087562Y-79926433D01*
X127945517Y-79582657D01*
X127682727Y-79319408D01*
X127339199Y-79176762D01*
X126967233Y-79176438D01*
X126623457Y-79318483D01*
X126360208Y-79581273D01*
X126217562Y-79924801D01*
X126217238Y-80296767D01*
X126359283Y-80640543D01*
X126392400Y-80673718D01*
X126392400Y-83545556D01*
X126027433Y-83545238D01*
X125683657Y-83687283D01*
X125678016Y-83692914D01*
X125561890Y-83613569D01*
X125471352Y-83595235D01*
X125471362Y-83584033D01*
X125329317Y-83240257D01*
X125066527Y-82977008D01*
X124722999Y-82834362D01*
X124351033Y-82834038D01*
X124007257Y-82976083D01*
X123744008Y-83238873D01*
X123609567Y-83562641D01*
X123374683Y-83606838D01*
X123158559Y-83745910D01*
X123013569Y-83958110D01*
X122962560Y-84210000D01*
X122962560Y-85110000D01*
X123006838Y-85345317D01*
X123145910Y-85561441D01*
X123358110Y-85706431D01*
X123610000Y-85757440D01*
X125310000Y-85757440D01*
X125545317Y-85713162D01*
X125761441Y-85574090D01*
X125866726Y-85420000D01*
X126033000Y-85420000D01*
X126056804Y-85415265D01*
X126392400Y-85415557D01*
X126392400Y-85867398D01*
X125297238Y-86962560D01*
X123610000Y-86962560D01*
X123374683Y-87006838D01*
X123158559Y-87145910D01*
X123013569Y-87358110D01*
X122962560Y-87610000D01*
X122962560Y-88510000D01*
X123006838Y-88745317D01*
X123145910Y-88961441D01*
X123358110Y-89106431D01*
X123610000Y-89157440D01*
X123700000Y-89157440D01*
X123700000Y-91182560D01*
X123610000Y-91182560D01*
X123374683Y-91226838D01*
X123158559Y-91365910D01*
X123013569Y-91578110D01*
X122962560Y-91830000D01*
X122962560Y-92396038D01*
X122119199Y-93239399D01*
X121954452Y-93485961D01*
X121896600Y-93776800D01*
X121360000Y-93776800D01*
X121360000Y-81695312D01*
X121417954Y-81782046D01*
X122230976Y-82325289D01*
X123190000Y-82516051D01*
X124149024Y-82325289D01*
X124962046Y-81782046D01*
X125505289Y-80969024D01*
X125696051Y-80010000D01*
X125505289Y-79050976D01*
X124962046Y-78237954D01*
X124875312Y-78180000D01*
X193894688Y-78180000D01*
X193807954Y-78237954D01*
X193807954Y-78237954D01*
G37*
X193807954Y-78237954D02*
X193264711Y-79050976D01*
X193073949Y-80010000D01*
X193264711Y-80969024D01*
X193807954Y-81782046D01*
X194620976Y-82325289D01*
X195580000Y-82516051D01*
X196539024Y-82325289D01*
X197352046Y-81782046D01*
X197410000Y-81695312D01*
X197410000Y-108804688D01*
X197352046Y-108717954D01*
X196539024Y-108174711D01*
X195580000Y-107983949D01*
X194620976Y-108174711D01*
X193807954Y-108717954D01*
X193264711Y-109530976D01*
X193073949Y-110490000D01*
X193264711Y-111449024D01*
X193807954Y-112262046D01*
X193894688Y-112320000D01*
X189211402Y-112320000D01*
X192440402Y-109091000D01*
X192633600Y-109091000D01*
X192924439Y-109033148D01*
X193171001Y-108868401D01*
X195990401Y-106049001D01*
X196155148Y-105802439D01*
X196213000Y-105511600D01*
X196213000Y-90017600D01*
X196163941Y-89770967D01*
X196155148Y-89726760D01*
X195990401Y-89480199D01*
X194537440Y-88027238D01*
X194537440Y-87610000D01*
X194493162Y-87374683D01*
X194354090Y-87158559D01*
X194141890Y-87013569D01*
X193890000Y-86962560D01*
X192190000Y-86962560D01*
X191954683Y-87006838D01*
X191738559Y-87145910D01*
X191593569Y-87358110D01*
X191542560Y-87610000D01*
X191542560Y-88510000D01*
X191586838Y-88745317D01*
X191725910Y-88961441D01*
X191938110Y-89106431D01*
X192190000Y-89157440D01*
X192280000Y-89157440D01*
X192280000Y-90445198D01*
X191950001Y-90115199D01*
X191703439Y-89950452D01*
X191412600Y-89892600D01*
X188518800Y-89892600D01*
X188504013Y-89895541D01*
X188155833Y-89895238D01*
X187812057Y-90037283D01*
X187548808Y-90300073D01*
X187406162Y-90643601D01*
X187405838Y-91015567D01*
X187547883Y-91359343D01*
X187810673Y-91622592D01*
X188154201Y-91765238D01*
X188526167Y-91765562D01*
X188869943Y-91623517D01*
X189081228Y-91412600D01*
X191097798Y-91412600D01*
X191542560Y-91857362D01*
X191542560Y-92730000D01*
X191586838Y-92965317D01*
X191725910Y-93181441D01*
X191938110Y-93326431D01*
X192190000Y-93377440D01*
X193890000Y-93377440D01*
X194125317Y-93333162D01*
X194341441Y-93194090D01*
X194486431Y-92981890D01*
X194537440Y-92730000D01*
X194537440Y-91830000D01*
X194493162Y-91594683D01*
X194354090Y-91378559D01*
X194141890Y-91233569D01*
X193890000Y-91182560D01*
X193800000Y-91182560D01*
X193800000Y-89439402D01*
X194693000Y-90332402D01*
X194693000Y-97068798D01*
X192959238Y-98802560D01*
X192190000Y-98802560D01*
X191954683Y-98846838D01*
X191738559Y-98985910D01*
X191593569Y-99198110D01*
X191542560Y-99450000D01*
X191542560Y-100350000D01*
X191586838Y-100585317D01*
X191725910Y-100801441D01*
X191938110Y-100946431D01*
X192190000Y-100997440D01*
X193890000Y-100997440D01*
X194125317Y-100953162D01*
X194341441Y-100814090D01*
X194486431Y-100601890D01*
X194537440Y-100350000D01*
X194537440Y-99450000D01*
X194525398Y-99386004D01*
X194693000Y-99218402D01*
X194693000Y-105196798D01*
X192318798Y-107571000D01*
X191084200Y-107571000D01*
X190793361Y-107628852D01*
X190546799Y-107793599D01*
X189931198Y-108409200D01*
X186738448Y-108409200D01*
X186866431Y-108221890D01*
X186917440Y-107970000D01*
X186917440Y-107070000D01*
X186873162Y-106834683D01*
X186734090Y-106618559D01*
X186521890Y-106473569D01*
X186270000Y-106422560D01*
X185526162Y-106422560D01*
X184577122Y-105473520D01*
X184577162Y-105428033D01*
X184435117Y-105084257D01*
X184172327Y-104821008D01*
X183828799Y-104678362D01*
X183456833Y-104678038D01*
X183113057Y-104820083D01*
X182849808Y-105082873D01*
X182707162Y-105426401D01*
X182706838Y-105798367D01*
X182848883Y-106142143D01*
X183111673Y-106405392D01*
X183455201Y-106548038D01*
X183502077Y-106548079D01*
X183939642Y-106985644D01*
X183922560Y-107070000D01*
X183922560Y-107970000D01*
X183966838Y-108205317D01*
X184105910Y-108421441D01*
X184318110Y-108566431D01*
X184570000Y-108617440D01*
X184751012Y-108617440D01*
X184653208Y-108715073D01*
X184510562Y-109058601D01*
X184510238Y-109430567D01*
X184652283Y-109774343D01*
X184712834Y-109835000D01*
X184443690Y-109835000D01*
X184210301Y-109931673D01*
X184031673Y-110110302D01*
X183935000Y-110343691D01*
X183935000Y-110634250D01*
X184093750Y-110793000D01*
X185293000Y-110793000D01*
X185293000Y-110773000D01*
X185547000Y-110773000D01*
X185547000Y-110793000D01*
X186746250Y-110793000D01*
X186905000Y-110634250D01*
X186905000Y-110343691D01*
X186808327Y-110110302D01*
X186629699Y-109931673D01*
X186623729Y-109929200D01*
X189452598Y-109929200D01*
X188102398Y-111279400D01*
X186905000Y-111279400D01*
X186905000Y-111205750D01*
X186746250Y-111047000D01*
X185547000Y-111047000D01*
X185547000Y-111067000D01*
X185293000Y-111067000D01*
X185293000Y-111047000D01*
X184093750Y-111047000D01*
X183935000Y-111205750D01*
X183935000Y-111279400D01*
X179297440Y-111279400D01*
X179297440Y-110470000D01*
X179253162Y-110234683D01*
X179114090Y-110018559D01*
X178901890Y-109873569D01*
X178650000Y-109822560D01*
X176950000Y-109822560D01*
X176714683Y-109866838D01*
X176498559Y-110005910D01*
X176353569Y-110218110D01*
X176302560Y-110470000D01*
X176302560Y-111370000D01*
X176346838Y-111605317D01*
X176485910Y-111821441D01*
X176698110Y-111966431D01*
X176950000Y-112017440D01*
X177160394Y-112017440D01*
X177262599Y-112170401D01*
X177412198Y-112320000D01*
X124875312Y-112320000D01*
X124962046Y-112262046D01*
X125505289Y-111449024D01*
X125553679Y-111205750D01*
X130595000Y-111205750D01*
X130595000Y-111496309D01*
X130691673Y-111729698D01*
X130870301Y-111908327D01*
X131103690Y-112005000D01*
X131794250Y-112005000D01*
X131953000Y-111846250D01*
X131953000Y-111047000D01*
X132207000Y-111047000D01*
X132207000Y-111846250D01*
X132365750Y-112005000D01*
X133056310Y-112005000D01*
X133289699Y-111908327D01*
X133468327Y-111729698D01*
X133565000Y-111496309D01*
X133565000Y-111205750D01*
X138215000Y-111205750D01*
X138215000Y-111496309D01*
X138311673Y-111729698D01*
X138490301Y-111908327D01*
X138723690Y-112005000D01*
X139414250Y-112005000D01*
X139573000Y-111846250D01*
X139573000Y-111047000D01*
X139827000Y-111047000D01*
X139827000Y-111846250D01*
X139985750Y-112005000D01*
X140676310Y-112005000D01*
X140909699Y-111908327D01*
X141088327Y-111729698D01*
X141185000Y-111496309D01*
X141185000Y-111231150D01*
X161100400Y-111231150D01*
X161100400Y-111521709D01*
X161197073Y-111755098D01*
X161375701Y-111933727D01*
X161609090Y-112030400D01*
X162299650Y-112030400D01*
X162458400Y-111871650D01*
X162458400Y-111072400D01*
X162712400Y-111072400D01*
X162712400Y-111871650D01*
X162871150Y-112030400D01*
X163561710Y-112030400D01*
X163795099Y-111933727D01*
X163973727Y-111755098D01*
X164070400Y-111521709D01*
X164070400Y-111231150D01*
X163911650Y-111072400D01*
X162712400Y-111072400D01*
X162458400Y-111072400D01*
X161259150Y-111072400D01*
X161100400Y-111231150D01*
X141185000Y-111231150D01*
X141185000Y-111205750D01*
X141026250Y-111047000D01*
X139827000Y-111047000D01*
X139573000Y-111047000D01*
X138373750Y-111047000D01*
X138215000Y-111205750D01*
X133565000Y-111205750D01*
X133406250Y-111047000D01*
X132207000Y-111047000D01*
X131953000Y-111047000D01*
X130753750Y-111047000D01*
X130595000Y-111205750D01*
X125553679Y-111205750D01*
X125696051Y-110490000D01*
X125666949Y-110343691D01*
X130595000Y-110343691D01*
X130595000Y-110634250D01*
X130753750Y-110793000D01*
X131953000Y-110793000D01*
X131953000Y-109993750D01*
X132207000Y-109993750D01*
X132207000Y-110793000D01*
X133406250Y-110793000D01*
X133565000Y-110634250D01*
X133565000Y-110343691D01*
X138215000Y-110343691D01*
X138215000Y-110634250D01*
X138373750Y-110793000D01*
X139573000Y-110793000D01*
X139573000Y-109993750D01*
X139827000Y-109993750D01*
X139827000Y-110793000D01*
X141026250Y-110793000D01*
X141185000Y-110634250D01*
X141185000Y-110343691D01*
X141088327Y-110110302D01*
X140909699Y-109931673D01*
X140676310Y-109835000D01*
X139985750Y-109835000D01*
X139827000Y-109993750D01*
X139573000Y-109993750D01*
X139414250Y-109835000D01*
X138723690Y-109835000D01*
X138490301Y-109931673D01*
X138311673Y-110110302D01*
X138215000Y-110343691D01*
X133565000Y-110343691D01*
X133468327Y-110110302D01*
X133289699Y-109931673D01*
X133056310Y-109835000D01*
X132365750Y-109835000D01*
X132207000Y-109993750D01*
X131953000Y-109993750D01*
X131794250Y-109835000D01*
X131103690Y-109835000D01*
X130870301Y-109931673D01*
X130691673Y-110110302D01*
X130595000Y-110343691D01*
X125666949Y-110343691D01*
X125505289Y-109530976D01*
X124962046Y-108717954D01*
X124149024Y-108174711D01*
X123190000Y-107983949D01*
X122230976Y-108174711D01*
X121417954Y-108717954D01*
X121360000Y-108804688D01*
X121360000Y-93776800D01*
X121896600Y-93776800D01*
X121896600Y-101496600D01*
X121954452Y-101787439D01*
X122119199Y-102034001D01*
X122962560Y-102877362D01*
X122962560Y-103750000D01*
X123006838Y-103985317D01*
X123145910Y-104201441D01*
X123358110Y-104346431D01*
X123610000Y-104397440D01*
X123725946Y-104397440D01*
X123757852Y-104557839D01*
X123922599Y-104804401D01*
X127175599Y-108057401D01*
X127422161Y-108222148D01*
X127713000Y-108280000D01*
X130674895Y-108280000D01*
X130765910Y-108421441D01*
X130978110Y-108566431D01*
X131230000Y-108617440D01*
X132930000Y-108617440D01*
X133165317Y-108573162D01*
X133381441Y-108434090D01*
X133526431Y-108221890D01*
X133577440Y-107970000D01*
X133577440Y-107070000D01*
X138202560Y-107070000D01*
X138202560Y-107970000D01*
X138246838Y-108205317D01*
X138385910Y-108421441D01*
X138598110Y-108566431D01*
X138850000Y-108617440D01*
X140550000Y-108617440D01*
X140785317Y-108573162D01*
X141001441Y-108434090D01*
X141146431Y-108221890D01*
X141197440Y-107970000D01*
X141197440Y-107070000D01*
X141153162Y-106834683D01*
X141014090Y-106618559D01*
X140801890Y-106473569D01*
X140550000Y-106422560D01*
X138850000Y-106422560D01*
X138614683Y-106466838D01*
X138398559Y-106605910D01*
X138253569Y-106818110D01*
X138202560Y-107070000D01*
X133577440Y-107070000D01*
X133533162Y-106834683D01*
X133394090Y-106618559D01*
X133181890Y-106473569D01*
X132930000Y-106422560D01*
X131230000Y-106422560D01*
X130994683Y-106466838D01*
X130778559Y-106605910D01*
X130673274Y-106760000D01*
X128027802Y-106760000D01*
X127066169Y-105798367D01*
X142752638Y-105798367D01*
X142894683Y-106142143D01*
X143157473Y-106405392D01*
X143501001Y-106548038D01*
X143547877Y-106548079D01*
X144809798Y-107810000D01*
X143733095Y-107810000D01*
X143733095Y-110730000D01*
X158526905Y-110730000D01*
X158526905Y-110369091D01*
X161100400Y-110369091D01*
X161100400Y-110659650D01*
X161259150Y-110818400D01*
X162458400Y-110818400D01*
X162458400Y-110019150D01*
X162712400Y-110019150D01*
X162712400Y-110818400D01*
X163911650Y-110818400D01*
X164070400Y-110659650D01*
X164070400Y-110369091D01*
X163973727Y-110135702D01*
X163795099Y-109957073D01*
X163561710Y-109860400D01*
X162871150Y-109860400D01*
X162712400Y-110019150D01*
X162458400Y-110019150D01*
X162299650Y-109860400D01*
X161609090Y-109860400D01*
X161375701Y-109957073D01*
X161197073Y-110135702D01*
X161100400Y-110369091D01*
X158526905Y-110369091D01*
X158526905Y-108305400D01*
X161180295Y-108305400D01*
X161271310Y-108446841D01*
X161483510Y-108591831D01*
X161735400Y-108642840D01*
X163435400Y-108642840D01*
X163670717Y-108598562D01*
X163886841Y-108459490D01*
X164031831Y-108247290D01*
X164082840Y-107995400D01*
X164082840Y-107805750D01*
X176315000Y-107805750D01*
X176315000Y-108096309D01*
X176411673Y-108329698D01*
X176590301Y-108508327D01*
X176823690Y-108605000D01*
X177514250Y-108605000D01*
X177673000Y-108446250D01*
X177673000Y-107647000D01*
X177927000Y-107647000D01*
X177927000Y-108446250D01*
X178085750Y-108605000D01*
X178776310Y-108605000D01*
X179009699Y-108508327D01*
X179188327Y-108329698D01*
X179285000Y-108096309D01*
X179285000Y-107805750D01*
X179126250Y-107647000D01*
X177927000Y-107647000D01*
X177673000Y-107647000D01*
X176473750Y-107647000D01*
X176315000Y-107805750D01*
X164082840Y-107805750D01*
X164082840Y-107095400D01*
X164054294Y-106943691D01*
X176315000Y-106943691D01*
X176315000Y-107234250D01*
X176473750Y-107393000D01*
X177673000Y-107393000D01*
X177673000Y-106593750D01*
X177927000Y-106593750D01*
X177927000Y-107393000D01*
X179126250Y-107393000D01*
X179285000Y-107234250D01*
X179285000Y-106943691D01*
X179188327Y-106710302D01*
X179009699Y-106531673D01*
X178776310Y-106435000D01*
X178085750Y-106435000D01*
X177927000Y-106593750D01*
X177673000Y-106593750D01*
X177514250Y-106435000D01*
X176823690Y-106435000D01*
X176590301Y-106531673D01*
X176411673Y-106710302D01*
X176315000Y-106943691D01*
X164054294Y-106943691D01*
X164038562Y-106860083D01*
X163899490Y-106643959D01*
X163687290Y-106498969D01*
X163435400Y-106447960D01*
X161735400Y-106447960D01*
X161500083Y-106492238D01*
X161283959Y-106631310D01*
X161178674Y-106785400D01*
X145934802Y-106785400D01*
X144622922Y-105473520D01*
X144622962Y-105428033D01*
X144480917Y-105084257D01*
X144218127Y-104821008D01*
X143874599Y-104678362D01*
X143502633Y-104678038D01*
X143158857Y-104820083D01*
X142895608Y-105082873D01*
X142752962Y-105426401D01*
X142752638Y-105798367D01*
X127066169Y-105798367D01*
X125591345Y-104323543D01*
X125761441Y-104214090D01*
X125906431Y-104001890D01*
X125957440Y-103750000D01*
X125957440Y-102850000D01*
X125913162Y-102614683D01*
X125774090Y-102398559D01*
X125561890Y-102253569D01*
X125310000Y-102202560D01*
X124437362Y-102202560D01*
X123416600Y-101181798D01*
X123416600Y-100958276D01*
X123610000Y-100997440D01*
X125310000Y-100997440D01*
X125545317Y-100953162D01*
X125761441Y-100814090D01*
X125866726Y-100660000D01*
X126763198Y-100660000D01*
X128469199Y-102366001D01*
X128715760Y-102530748D01*
X129006600Y-102588600D01*
X130293798Y-102588600D01*
X130582560Y-102877362D01*
X130582560Y-103750000D01*
X130626838Y-103985317D01*
X130765910Y-104201441D01*
X130978110Y-104346431D01*
X131230000Y-104397440D01*
X132930000Y-104397440D01*
X133165317Y-104353162D01*
X133381441Y-104214090D01*
X133486726Y-104060000D01*
X138294895Y-104060000D01*
X138385910Y-104201441D01*
X138598110Y-104346431D01*
X138850000Y-104397440D01*
X140550000Y-104397440D01*
X140785317Y-104353162D01*
X141001441Y-104214090D01*
X141106726Y-104060000D01*
X145914895Y-104060000D01*
X146005910Y-104201441D01*
X146218110Y-104346431D01*
X146470000Y-104397440D01*
X148170000Y-104397440D01*
X148405317Y-104353162D01*
X148621441Y-104214090D01*
X148726726Y-104060000D01*
X153534895Y-104060000D01*
X153625910Y-104201441D01*
X153838110Y-104346431D01*
X154090000Y-104397440D01*
X155790000Y-104397440D01*
X156025317Y-104353162D01*
X156241441Y-104214090D01*
X156346726Y-104060000D01*
X161154895Y-104060000D01*
X161245910Y-104201441D01*
X161458110Y-104346431D01*
X161710000Y-104397440D01*
X163410000Y-104397440D01*
X163645317Y-104353162D01*
X163861441Y-104214090D01*
X163966726Y-104060000D01*
X168774895Y-104060000D01*
X168865910Y-104201441D01*
X169078110Y-104346431D01*
X169330000Y-104397440D01*
X171030000Y-104397440D01*
X171265317Y-104353162D01*
X171481441Y-104214090D01*
X171586726Y-104060000D01*
X174169600Y-104060000D01*
X174460439Y-104002148D01*
X174707001Y-103837401D01*
X176839729Y-101704673D01*
X176839438Y-102039167D01*
X176910056Y-102210076D01*
X176714683Y-102246838D01*
X176498559Y-102385910D01*
X176353569Y-102598110D01*
X176302560Y-102850000D01*
X176302560Y-103750000D01*
X176346838Y-103985317D01*
X176485910Y-104201441D01*
X176698110Y-104346431D01*
X176950000Y-104397440D01*
X178650000Y-104397440D01*
X178885317Y-104353162D01*
X179101441Y-104214090D01*
X179246431Y-104001890D01*
X179297440Y-103750000D01*
X179297440Y-102850000D01*
X179253162Y-102614683D01*
X179114090Y-102398559D01*
X178901890Y-102253569D01*
X178650000Y-102202560D01*
X178642269Y-102202560D01*
X178709438Y-102040799D01*
X178709762Y-101668833D01*
X178567717Y-101325057D01*
X178304927Y-101061808D01*
X178149912Y-100997440D01*
X178650000Y-100997440D01*
X178885317Y-100953162D01*
X178908343Y-100938345D01*
X180767799Y-102797801D01*
X181014361Y-102962548D01*
X181305200Y-103020400D01*
X183922560Y-103020400D01*
X183922560Y-103750000D01*
X183966838Y-103985317D01*
X184105910Y-104201441D01*
X184318110Y-104346431D01*
X184570000Y-104397440D01*
X186270000Y-104397440D01*
X186505317Y-104353162D01*
X186721441Y-104214090D01*
X186826726Y-104060000D01*
X191634895Y-104060000D01*
X191725910Y-104201441D01*
X191938110Y-104346431D01*
X192190000Y-104397440D01*
X193890000Y-104397440D01*
X194125317Y-104353162D01*
X194341441Y-104214090D01*
X194486431Y-104001890D01*
X194537440Y-103750000D01*
X194537440Y-102850000D01*
X194493162Y-102614683D01*
X194354090Y-102398559D01*
X194141890Y-102253569D01*
X193890000Y-102202560D01*
X192190000Y-102202560D01*
X191954683Y-102246838D01*
X191738559Y-102385910D01*
X191633274Y-102540000D01*
X186825105Y-102540000D01*
X186734090Y-102398559D01*
X186521890Y-102253569D01*
X186270000Y-102202560D01*
X186114300Y-102202560D01*
X186262992Y-102054127D01*
X186405638Y-101710599D01*
X186405962Y-101338633D01*
X186264984Y-100997440D01*
X186270000Y-100997440D01*
X186505317Y-100953162D01*
X186721441Y-100814090D01*
X186826726Y-100660000D01*
X187475600Y-100660000D01*
X187766439Y-100602148D01*
X188013001Y-100437401D01*
X189166480Y-99283922D01*
X189211967Y-99283962D01*
X189555743Y-99141917D01*
X189818992Y-98879127D01*
X189961638Y-98535599D01*
X189961962Y-98163633D01*
X189819917Y-97819857D01*
X189557127Y-97556608D01*
X189213599Y-97413962D01*
X188841633Y-97413638D01*
X188497857Y-97555683D01*
X188234608Y-97818473D01*
X188091962Y-98162001D01*
X188091921Y-98208877D01*
X187160798Y-99140000D01*
X186825105Y-99140000D01*
X186734090Y-98998559D01*
X186521890Y-98853569D01*
X186270000Y-98802560D01*
X184570000Y-98802560D01*
X184334683Y-98846838D01*
X184118559Y-98985910D01*
X183973569Y-99198110D01*
X183922560Y-99450000D01*
X183922560Y-100350000D01*
X183966838Y-100585317D01*
X184105910Y-100801441D01*
X184318110Y-100946431D01*
X184570000Y-100997440D01*
X184660000Y-100997440D01*
X184660000Y-101038286D01*
X184535962Y-101337001D01*
X184535793Y-101531310D01*
X184380400Y-101500400D01*
X181620002Y-101500400D01*
X179482201Y-99362599D01*
X179247379Y-99205697D01*
X179114090Y-98998559D01*
X178901890Y-98853569D01*
X178650000Y-98802560D01*
X176950000Y-98802560D01*
X176714683Y-98846838D01*
X176498559Y-98985910D01*
X176353569Y-99198110D01*
X176302560Y-99450000D01*
X176302560Y-100092238D01*
X173854798Y-102540000D01*
X171585105Y-102540000D01*
X171494090Y-102398559D01*
X171281890Y-102253569D01*
X171030000Y-102202560D01*
X169330000Y-102202560D01*
X169094683Y-102246838D01*
X168878559Y-102385910D01*
X168773274Y-102540000D01*
X163965105Y-102540000D01*
X163874090Y-102398559D01*
X163661890Y-102253569D01*
X163531532Y-102227171D01*
X163545638Y-102193199D01*
X163545962Y-101821233D01*
X163403917Y-101477457D01*
X163141127Y-101214208D01*
X162797599Y-101071562D01*
X162425633Y-101071238D01*
X162081857Y-101213283D01*
X161818608Y-101476073D01*
X161675962Y-101819601D01*
X161675638Y-102191567D01*
X161682331Y-102207766D01*
X161474683Y-102246838D01*
X161258559Y-102385910D01*
X161153274Y-102540000D01*
X156345105Y-102540000D01*
X156254090Y-102398559D01*
X156041890Y-102253569D01*
X155790000Y-102202560D01*
X154090000Y-102202560D01*
X153854683Y-102246838D01*
X153638559Y-102385910D01*
X153533274Y-102540000D01*
X148725105Y-102540000D01*
X148634090Y-102398559D01*
X148421890Y-102253569D01*
X148170000Y-102202560D01*
X146470000Y-102202560D01*
X146234683Y-102246838D01*
X146018559Y-102385910D01*
X145913274Y-102540000D01*
X141105105Y-102540000D01*
X141014090Y-102398559D01*
X140801890Y-102253569D01*
X140550000Y-102202560D01*
X138850000Y-102202560D01*
X138614683Y-102246838D01*
X138398559Y-102385910D01*
X138293274Y-102540000D01*
X133485105Y-102540000D01*
X133394090Y-102398559D01*
X133181890Y-102253569D01*
X132930000Y-102202560D01*
X132057362Y-102202560D01*
X131146001Y-101291199D01*
X130899439Y-101126452D01*
X130608600Y-101068600D01*
X129321402Y-101068600D01*
X127615401Y-99362599D01*
X127368839Y-99197852D01*
X127078000Y-99140000D01*
X125865105Y-99140000D01*
X125774090Y-98998559D01*
X125561890Y-98853569D01*
X125310000Y-98802560D01*
X123610000Y-98802560D01*
X123416600Y-98838951D01*
X123416600Y-96738276D01*
X123610000Y-96777440D01*
X125310000Y-96777440D01*
X125545317Y-96733162D01*
X125761441Y-96594090D01*
X125866726Y-96440000D01*
X127967000Y-96440000D01*
X128257839Y-96382148D01*
X128504401Y-96217401D01*
X129778602Y-94943200D01*
X130176800Y-94943200D01*
X130467639Y-94885348D01*
X130714201Y-94720601D01*
X131623700Y-93811102D01*
X132395158Y-94582560D01*
X131230000Y-94582560D01*
X130994683Y-94626838D01*
X130778559Y-94765910D01*
X130633569Y-94978110D01*
X130582560Y-95230000D01*
X130582560Y-96130000D01*
X130626838Y-96365317D01*
X130765910Y-96581441D01*
X130978110Y-96726431D01*
X131230000Y-96777440D01*
X131345400Y-96777440D01*
X131345400Y-97659337D01*
X131313208Y-97691473D01*
X131170562Y-98035001D01*
X131170238Y-98406967D01*
X131312283Y-98750743D01*
X131320000Y-98758473D01*
X131320000Y-98802560D01*
X131230000Y-98802560D01*
X130994683Y-98846838D01*
X130778559Y-98985910D01*
X130633569Y-99198110D01*
X130582560Y-99450000D01*
X130582560Y-100350000D01*
X130626838Y-100585317D01*
X130765910Y-100801441D01*
X130978110Y-100946431D01*
X131230000Y-100997440D01*
X132930000Y-100997440D01*
X133165317Y-100953162D01*
X133381441Y-100814090D01*
X133526431Y-100601890D01*
X133577440Y-100350000D01*
X133577440Y-99450000D01*
X138202560Y-99450000D01*
X138202560Y-100350000D01*
X138246838Y-100585317D01*
X138385910Y-100801441D01*
X138598110Y-100946431D01*
X138850000Y-100997440D01*
X140550000Y-100997440D01*
X140785317Y-100953162D01*
X141001441Y-100814090D01*
X141146431Y-100601890D01*
X141197440Y-100350000D01*
X141197440Y-99450000D01*
X145822560Y-99450000D01*
X145822560Y-100350000D01*
X145866838Y-100585317D01*
X146005910Y-100801441D01*
X146218110Y-100946431D01*
X146470000Y-100997440D01*
X148170000Y-100997440D01*
X148405317Y-100953162D01*
X148468974Y-100912200D01*
X149199600Y-100912200D01*
X149490439Y-100854348D01*
X149673989Y-100731704D01*
X149740367Y-100731762D01*
X150084143Y-100589717D01*
X150347392Y-100326927D01*
X150490038Y-99983399D01*
X150490362Y-99611433D01*
X150348317Y-99267657D01*
X150085527Y-99004408D01*
X149741999Y-98861762D01*
X149370033Y-98861438D01*
X149026257Y-99003483D01*
X148779729Y-99249582D01*
X148773162Y-99214683D01*
X148634090Y-98998559D01*
X148421890Y-98853569D01*
X148170000Y-98802560D01*
X146470000Y-98802560D01*
X146234683Y-98846838D01*
X146018559Y-98985910D01*
X145873569Y-99198110D01*
X145822560Y-99450000D01*
X141197440Y-99450000D01*
X141153162Y-99214683D01*
X141014090Y-98998559D01*
X140801890Y-98853569D01*
X140550000Y-98802560D01*
X138850000Y-98802560D01*
X138614683Y-98846838D01*
X138398559Y-98985910D01*
X138253569Y-99198110D01*
X138202560Y-99450000D01*
X133577440Y-99450000D01*
X133533162Y-99214683D01*
X133394090Y-98998559D01*
X133181890Y-98853569D01*
X132930000Y-98802560D01*
X132847071Y-98802560D01*
X132897592Y-98752127D01*
X133040238Y-98408599D01*
X133040562Y-98036633D01*
X132898517Y-97692857D01*
X132865400Y-97659682D01*
X132865400Y-96777440D01*
X132930000Y-96777440D01*
X133165317Y-96733162D01*
X133381441Y-96594090D01*
X133526431Y-96381890D01*
X133577440Y-96130000D01*
X133577440Y-95764842D01*
X134029999Y-96217401D01*
X134276561Y-96382148D01*
X134567400Y-96440000D01*
X138294895Y-96440000D01*
X138385910Y-96581441D01*
X138598110Y-96726431D01*
X138850000Y-96777440D01*
X140550000Y-96777440D01*
X140785317Y-96733162D01*
X141001441Y-96594090D01*
X141106726Y-96440000D01*
X145914895Y-96440000D01*
X146005910Y-96581441D01*
X146218110Y-96726431D01*
X146470000Y-96777440D01*
X146560000Y-96777440D01*
X146560000Y-96901000D01*
X146617852Y-97191839D01*
X146782599Y-97438401D01*
X146943678Y-97599480D01*
X146943638Y-97644967D01*
X147085683Y-97988743D01*
X147348473Y-98251992D01*
X147692001Y-98394638D01*
X148063967Y-98394962D01*
X148407743Y-98252917D01*
X148670992Y-97990127D01*
X148813638Y-97646599D01*
X148813962Y-97274633D01*
X148671917Y-96930857D01*
X148447482Y-96706030D01*
X148621441Y-96594090D01*
X148726726Y-96440000D01*
X153316582Y-96440000D01*
X153258808Y-96497673D01*
X153116162Y-96841201D01*
X153115838Y-97213167D01*
X153257883Y-97556943D01*
X153520673Y-97820192D01*
X153864201Y-97962838D01*
X153911077Y-97962879D01*
X154180000Y-98231802D01*
X154180000Y-98802560D01*
X154090000Y-98802560D01*
X153854683Y-98846838D01*
X153638559Y-98985910D01*
X153493569Y-99198110D01*
X153442560Y-99450000D01*
X153442560Y-100350000D01*
X153486838Y-100585317D01*
X153625910Y-100801441D01*
X153838110Y-100946431D01*
X154090000Y-100997440D01*
X155790000Y-100997440D01*
X156025317Y-100953162D01*
X156241441Y-100814090D01*
X156386431Y-100601890D01*
X156437440Y-100350000D01*
X156437440Y-99450000D01*
X161062560Y-99450000D01*
X161062560Y-100350000D01*
X161106838Y-100585317D01*
X161245910Y-100801441D01*
X161458110Y-100946431D01*
X161710000Y-100997440D01*
X163410000Y-100997440D01*
X163645317Y-100953162D01*
X163861441Y-100814090D01*
X164006431Y-100601890D01*
X164057440Y-100350000D01*
X164057440Y-99450000D01*
X168682560Y-99450000D01*
X168682560Y-100350000D01*
X168726838Y-100585317D01*
X168865910Y-100801441D01*
X169078110Y-100946431D01*
X169330000Y-100997440D01*
X171030000Y-100997440D01*
X171265317Y-100953162D01*
X171481441Y-100814090D01*
X171626431Y-100601890D01*
X171677440Y-100350000D01*
X171677440Y-99450000D01*
X171633162Y-99214683D01*
X171494090Y-98998559D01*
X171281890Y-98853569D01*
X171030000Y-98802560D01*
X169330000Y-98802560D01*
X169094683Y-98846838D01*
X168878559Y-98985910D01*
X168733569Y-99198110D01*
X168682560Y-99450000D01*
X164057440Y-99450000D01*
X164013162Y-99214683D01*
X163874090Y-98998559D01*
X163661890Y-98853569D01*
X163410000Y-98802560D01*
X161710000Y-98802560D01*
X161474683Y-98846838D01*
X161258559Y-98985910D01*
X161113569Y-99198110D01*
X161062560Y-99450000D01*
X156437440Y-99450000D01*
X156393162Y-99214683D01*
X156254090Y-98998559D01*
X156041890Y-98853569D01*
X155790000Y-98802560D01*
X155700000Y-98802560D01*
X155700000Y-97917000D01*
X155642148Y-97626161D01*
X155477401Y-97379599D01*
X154986122Y-96888320D01*
X154986162Y-96842833D01*
X154959142Y-96777440D01*
X155790000Y-96777440D01*
X156025317Y-96733162D01*
X156241441Y-96594090D01*
X156346726Y-96440000D01*
X161154895Y-96440000D01*
X161245910Y-96581441D01*
X161458110Y-96726431D01*
X161710000Y-96777440D01*
X163410000Y-96777440D01*
X163645317Y-96733162D01*
X163861441Y-96594090D01*
X163966726Y-96440000D01*
X168774895Y-96440000D01*
X168865910Y-96581441D01*
X169078110Y-96726431D01*
X169330000Y-96777440D01*
X171030000Y-96777440D01*
X171265317Y-96733162D01*
X171481441Y-96594090D01*
X171586726Y-96440000D01*
X176394895Y-96440000D01*
X176485910Y-96581441D01*
X176698110Y-96726431D01*
X176950000Y-96777440D01*
X178650000Y-96777440D01*
X178885317Y-96733162D01*
X179101441Y-96594090D01*
X179206726Y-96440000D01*
X184014895Y-96440000D01*
X184105910Y-96581441D01*
X184318110Y-96726431D01*
X184570000Y-96777440D01*
X186270000Y-96777440D01*
X186505317Y-96733162D01*
X186721441Y-96594090D01*
X186826726Y-96440000D01*
X191634895Y-96440000D01*
X191725910Y-96581441D01*
X191938110Y-96726431D01*
X192190000Y-96777440D01*
X193890000Y-96777440D01*
X194125317Y-96733162D01*
X194341441Y-96594090D01*
X194486431Y-96381890D01*
X194537440Y-96130000D01*
X194537440Y-95230000D01*
X194493162Y-94994683D01*
X194354090Y-94778559D01*
X194141890Y-94633569D01*
X193890000Y-94582560D01*
X192190000Y-94582560D01*
X191954683Y-94626838D01*
X191738559Y-94765910D01*
X191633274Y-94920000D01*
X186825105Y-94920000D01*
X186734090Y-94778559D01*
X186521890Y-94633569D01*
X186270000Y-94582560D01*
X184570000Y-94582560D01*
X184334683Y-94626838D01*
X184118559Y-94765910D01*
X184013274Y-94920000D01*
X179205105Y-94920000D01*
X179114090Y-94778559D01*
X178901890Y-94633569D01*
X178650000Y-94582560D01*
X178644204Y-94582560D01*
X178658638Y-94547799D01*
X178658962Y-94175833D01*
X178560000Y-93936326D01*
X178560000Y-93377440D01*
X178650000Y-93377440D01*
X178885317Y-93333162D01*
X179101441Y-93194090D01*
X179246431Y-92981890D01*
X179297440Y-92730000D01*
X179297440Y-91830000D01*
X179253162Y-91594683D01*
X179114090Y-91378559D01*
X178901890Y-91233569D01*
X178650000Y-91182560D01*
X178560000Y-91182560D01*
X178560000Y-89923367D01*
X178744438Y-89923367D01*
X178886483Y-90267143D01*
X179149273Y-90530392D01*
X179492801Y-90673038D01*
X179864767Y-90673362D01*
X180208543Y-90531317D01*
X180394384Y-90345800D01*
X183892337Y-90345800D01*
X183924473Y-90377992D01*
X184268001Y-90520638D01*
X184639967Y-90520962D01*
X184660000Y-90512685D01*
X184660000Y-91182560D01*
X184570000Y-91182560D01*
X184334683Y-91226838D01*
X184118559Y-91365910D01*
X183973569Y-91578110D01*
X183922560Y-91830000D01*
X183922560Y-92730000D01*
X183966838Y-92965317D01*
X184105910Y-93181441D01*
X184318110Y-93326431D01*
X184570000Y-93377440D01*
X186270000Y-93377440D01*
X186505317Y-93333162D01*
X186721441Y-93194090D01*
X186866431Y-92981890D01*
X186917440Y-92730000D01*
X186917440Y-91830000D01*
X186873162Y-91594683D01*
X186734090Y-91378559D01*
X186521890Y-91233569D01*
X186270000Y-91182560D01*
X186180000Y-91182560D01*
X186180000Y-89157440D01*
X186270000Y-89157440D01*
X186505317Y-89113162D01*
X186721441Y-88974090D01*
X186866431Y-88761890D01*
X186917440Y-88510000D01*
X186917440Y-87610000D01*
X186873162Y-87374683D01*
X186734090Y-87158559D01*
X186521890Y-87013569D01*
X186270000Y-86962560D01*
X184570000Y-86962560D01*
X184334683Y-87006838D01*
X184118559Y-87145910D01*
X183973569Y-87358110D01*
X183922560Y-87610000D01*
X183922560Y-88510000D01*
X183966838Y-88745317D01*
X183982308Y-88769358D01*
X183925857Y-88792683D01*
X183892682Y-88825800D01*
X179920435Y-88825800D01*
X179866399Y-88803362D01*
X179494433Y-88803038D01*
X179150657Y-88945083D01*
X178887408Y-89207873D01*
X178744762Y-89551401D01*
X178744438Y-89923367D01*
X178560000Y-89923367D01*
X178560000Y-89157440D01*
X178650000Y-89157440D01*
X178885317Y-89113162D01*
X179101441Y-88974090D01*
X179246431Y-88761890D01*
X179297440Y-88510000D01*
X179297440Y-87610000D01*
X179253162Y-87374683D01*
X179114090Y-87158559D01*
X178901890Y-87013569D01*
X178650000Y-86962560D01*
X176950000Y-86962560D01*
X176714683Y-87006838D01*
X176498559Y-87145910D01*
X176353569Y-87358110D01*
X176302560Y-87610000D01*
X176302560Y-88510000D01*
X176346838Y-88745317D01*
X176485910Y-88961441D01*
X176698110Y-89106431D01*
X176950000Y-89157440D01*
X177040000Y-89157440D01*
X177040000Y-91182560D01*
X176950000Y-91182560D01*
X176714683Y-91226838D01*
X176498559Y-91365910D01*
X176353569Y-91578110D01*
X176302560Y-91830000D01*
X176302560Y-92730000D01*
X176346838Y-92965317D01*
X176485910Y-93181441D01*
X176698110Y-93326431D01*
X176950000Y-93377440D01*
X177040000Y-93377440D01*
X177040000Y-93722470D01*
X176931608Y-93830673D01*
X176788962Y-94174201D01*
X176788638Y-94546167D01*
X176814231Y-94608107D01*
X176714683Y-94626838D01*
X176498559Y-94765910D01*
X176393274Y-94920000D01*
X171585105Y-94920000D01*
X171494090Y-94778559D01*
X171281890Y-94633569D01*
X171137831Y-94604396D01*
X171140238Y-94598599D01*
X171140562Y-94226633D01*
X170998517Y-93882857D01*
X170940000Y-93824238D01*
X170940000Y-93377440D01*
X171030000Y-93377440D01*
X171265317Y-93333162D01*
X171481441Y-93194090D01*
X171626431Y-92981890D01*
X171677440Y-92730000D01*
X171677440Y-91830000D01*
X171633162Y-91594683D01*
X171494090Y-91378559D01*
X171281890Y-91233569D01*
X171030000Y-91182560D01*
X170940000Y-91182560D01*
X170940000Y-89157440D01*
X171030000Y-89157440D01*
X171265317Y-89113162D01*
X171481441Y-88974090D01*
X171626431Y-88761890D01*
X171677440Y-88510000D01*
X171677440Y-87610000D01*
X171633162Y-87374683D01*
X171494090Y-87158559D01*
X171281890Y-87013569D01*
X171030000Y-86962560D01*
X169330000Y-86962560D01*
X169094683Y-87006838D01*
X168878559Y-87145910D01*
X168733569Y-87358110D01*
X168682560Y-87610000D01*
X168682560Y-88510000D01*
X168726838Y-88745317D01*
X168865910Y-88961441D01*
X169078110Y-89106431D01*
X169330000Y-89157440D01*
X169420000Y-89157440D01*
X169420000Y-91182560D01*
X169330000Y-91182560D01*
X169094683Y-91226838D01*
X168878559Y-91365910D01*
X168733569Y-91578110D01*
X168682560Y-91830000D01*
X168682560Y-92730000D01*
X168726838Y-92965317D01*
X168865910Y-93181441D01*
X169078110Y-93326431D01*
X169330000Y-93377440D01*
X169420000Y-93377440D01*
X169420000Y-93874693D01*
X169413208Y-93881473D01*
X169270562Y-94225001D01*
X169270241Y-94593804D01*
X169094683Y-94626838D01*
X168878559Y-94765910D01*
X168773274Y-94920000D01*
X166426168Y-94920000D01*
X166517438Y-94700199D01*
X166517762Y-94328233D01*
X166375717Y-93984457D01*
X166112927Y-93721208D01*
X165769399Y-93578562D01*
X165397433Y-93578238D01*
X165053657Y-93720283D01*
X165020482Y-93753400D01*
X163535202Y-93753400D01*
X163320000Y-93538198D01*
X163320000Y-93377440D01*
X163410000Y-93377440D01*
X163645317Y-93333162D01*
X163861441Y-93194090D01*
X164006431Y-92981890D01*
X164057440Y-92730000D01*
X164057440Y-91830000D01*
X164013162Y-91594683D01*
X163874090Y-91378559D01*
X163661890Y-91233569D01*
X163410000Y-91182560D01*
X163320000Y-91182560D01*
X163320000Y-89157440D01*
X163410000Y-89157440D01*
X163645317Y-89113162D01*
X163861441Y-88974090D01*
X164006431Y-88761890D01*
X164057440Y-88510000D01*
X164057440Y-87610000D01*
X164013162Y-87374683D01*
X163874090Y-87158559D01*
X163661890Y-87013569D01*
X163410000Y-86962560D01*
X161710000Y-86962560D01*
X161474683Y-87006838D01*
X161258559Y-87145910D01*
X161113569Y-87358110D01*
X161062560Y-87610000D01*
X161062560Y-88510000D01*
X161106838Y-88745317D01*
X161245910Y-88961441D01*
X161458110Y-89106431D01*
X161710000Y-89157440D01*
X161800000Y-89157440D01*
X161800000Y-91182560D01*
X161710000Y-91182560D01*
X161474683Y-91226838D01*
X161258559Y-91365910D01*
X161113569Y-91578110D01*
X161062560Y-91830000D01*
X161062560Y-92730000D01*
X161106838Y-92965317D01*
X161245910Y-93181441D01*
X161458110Y-93326431D01*
X161710000Y-93377440D01*
X161800000Y-93377440D01*
X161800000Y-93853000D01*
X161857852Y-94143839D01*
X162022599Y-94390401D01*
X162214758Y-94582560D01*
X161710000Y-94582560D01*
X161474683Y-94626838D01*
X161258559Y-94765910D01*
X161153274Y-94920000D01*
X156345105Y-94920000D01*
X156254090Y-94778559D01*
X156041890Y-94633569D01*
X155790000Y-94582560D01*
X154090000Y-94582560D01*
X153854683Y-94626838D01*
X153638559Y-94765910D01*
X153533274Y-94920000D01*
X150769645Y-94920000D01*
X150769762Y-94785433D01*
X150627717Y-94441657D01*
X150594600Y-94408482D01*
X150594600Y-94056200D01*
X150536748Y-93765361D01*
X150372001Y-93518799D01*
X148817440Y-91964238D01*
X148817440Y-91830000D01*
X148773162Y-91594683D01*
X148634090Y-91378559D01*
X148421890Y-91233569D01*
X148170000Y-91182560D01*
X148080000Y-91182560D01*
X148080000Y-89157440D01*
X148170000Y-89157440D01*
X148405317Y-89113162D01*
X148621441Y-88974090D01*
X148766431Y-88761890D01*
X148810318Y-88545167D01*
X150194838Y-88545167D01*
X150336883Y-88888943D01*
X150599673Y-89152192D01*
X150943201Y-89294838D01*
X151315167Y-89295162D01*
X151658943Y-89153117D01*
X151922192Y-88890327D01*
X151951394Y-88820000D01*
X153534895Y-88820000D01*
X153625910Y-88961441D01*
X153838110Y-89106431D01*
X154090000Y-89157440D01*
X154180000Y-89157440D01*
X154180000Y-91182560D01*
X154090000Y-91182560D01*
X153854683Y-91226838D01*
X153638559Y-91365910D01*
X153493569Y-91578110D01*
X153442560Y-91830000D01*
X153442560Y-92730000D01*
X153486838Y-92965317D01*
X153625910Y-93181441D01*
X153838110Y-93326431D01*
X154090000Y-93377440D01*
X155790000Y-93377440D01*
X156025317Y-93333162D01*
X156241441Y-93194090D01*
X156386431Y-92981890D01*
X156437440Y-92730000D01*
X156437440Y-91830000D01*
X156393162Y-91594683D01*
X156254090Y-91378559D01*
X156041890Y-91233569D01*
X155790000Y-91182560D01*
X155700000Y-91182560D01*
X155700000Y-89157440D01*
X155790000Y-89157440D01*
X156025317Y-89113162D01*
X156241441Y-88974090D01*
X156386431Y-88761890D01*
X156437440Y-88510000D01*
X156437440Y-87610000D01*
X156393162Y-87374683D01*
X156254090Y-87158559D01*
X156041890Y-87013569D01*
X155790000Y-86962560D01*
X154090000Y-86962560D01*
X153854683Y-87006838D01*
X153638559Y-87145910D01*
X153533274Y-87300000D01*
X151430000Y-87300000D01*
X151139161Y-87357852D01*
X151038787Y-87424920D01*
X150944833Y-87424838D01*
X150601057Y-87566883D01*
X150337808Y-87829673D01*
X150195162Y-88173201D01*
X150194838Y-88545167D01*
X148810318Y-88545167D01*
X148817440Y-88510000D01*
X148817440Y-87969362D01*
X148958280Y-87828522D01*
X149003767Y-87828562D01*
X149347543Y-87686517D01*
X149610792Y-87423727D01*
X149753438Y-87080199D01*
X149753762Y-86708233D01*
X149611717Y-86364457D01*
X149348927Y-86101208D01*
X149005399Y-85958562D01*
X148633433Y-85958238D01*
X148289657Y-86100283D01*
X148026408Y-86363073D01*
X147883762Y-86706601D01*
X147883721Y-86753477D01*
X147674638Y-86962560D01*
X146470000Y-86962560D01*
X146234683Y-87006838D01*
X146018559Y-87145910D01*
X145873569Y-87358110D01*
X145822560Y-87610000D01*
X145822560Y-88510000D01*
X145866838Y-88745317D01*
X146005910Y-88961441D01*
X146218110Y-89106431D01*
X146470000Y-89157440D01*
X146560000Y-89157440D01*
X146560000Y-91182560D01*
X146470000Y-91182560D01*
X146234683Y-91226838D01*
X146018559Y-91365910D01*
X145873569Y-91578110D01*
X145822560Y-91830000D01*
X145822560Y-92730000D01*
X145866838Y-92965317D01*
X146005910Y-93181441D01*
X146218110Y-93326431D01*
X146470000Y-93377440D01*
X148081038Y-93377440D01*
X149074600Y-94371002D01*
X149074600Y-94408137D01*
X149042408Y-94440273D01*
X148899762Y-94783801D01*
X148899643Y-94920000D01*
X148725105Y-94920000D01*
X148634090Y-94778559D01*
X148421890Y-94633569D01*
X148170000Y-94582560D01*
X146470000Y-94582560D01*
X146234683Y-94626838D01*
X146018559Y-94765910D01*
X145913274Y-94920000D01*
X141105105Y-94920000D01*
X141014090Y-94778559D01*
X140801890Y-94633569D01*
X140550000Y-94582560D01*
X138850000Y-94582560D01*
X138614683Y-94626838D01*
X138398559Y-94765910D01*
X138293274Y-94920000D01*
X136170691Y-94920000D01*
X136301192Y-94789727D01*
X136443838Y-94446199D01*
X136444162Y-94074233D01*
X136302117Y-93730457D01*
X136269000Y-93697282D01*
X136269000Y-91287600D01*
X136211148Y-90996761D01*
X136046401Y-90750199D01*
X133577440Y-88281238D01*
X133577440Y-87610000D01*
X138202560Y-87610000D01*
X138202560Y-88510000D01*
X138246838Y-88745317D01*
X138385910Y-88961441D01*
X138598110Y-89106431D01*
X138850000Y-89157440D01*
X138940000Y-89157440D01*
X138940000Y-91182560D01*
X138850000Y-91182560D01*
X138614683Y-91226838D01*
X138398559Y-91365910D01*
X138253569Y-91578110D01*
X138202560Y-91830000D01*
X138202560Y-92730000D01*
X138246838Y-92965317D01*
X138385910Y-93181441D01*
X138598110Y-93326431D01*
X138850000Y-93377440D01*
X139197583Y-93377440D01*
X139347473Y-93527592D01*
X139691001Y-93670238D01*
X140062967Y-93670562D01*
X140406743Y-93528517D01*
X140559962Y-93375566D01*
X140785317Y-93333162D01*
X141001441Y-93194090D01*
X141146431Y-92981890D01*
X141197440Y-92730000D01*
X141197440Y-91830000D01*
X141153162Y-91594683D01*
X141014090Y-91378559D01*
X140801890Y-91233569D01*
X140550000Y-91182560D01*
X140460000Y-91182560D01*
X140460000Y-89157440D01*
X140550000Y-89157440D01*
X140785317Y-89113162D01*
X141001441Y-88974090D01*
X141146431Y-88761890D01*
X141197440Y-88510000D01*
X141197440Y-87610000D01*
X141153162Y-87374683D01*
X141014090Y-87158559D01*
X140801890Y-87013569D01*
X140550000Y-86962560D01*
X138850000Y-86962560D01*
X138614683Y-87006838D01*
X138398559Y-87145910D01*
X138253569Y-87358110D01*
X138202560Y-87610000D01*
X133577440Y-87610000D01*
X133533162Y-87374683D01*
X133394090Y-87158559D01*
X133181890Y-87013569D01*
X132930000Y-86962560D01*
X131230000Y-86962560D01*
X130994683Y-87006838D01*
X130778559Y-87145910D01*
X130633569Y-87358110D01*
X130582560Y-87610000D01*
X130582560Y-88510000D01*
X130626838Y-88745317D01*
X130765910Y-88961441D01*
X130978110Y-89106431D01*
X131230000Y-89157440D01*
X132304038Y-89157440D01*
X134749000Y-91602402D01*
X134749000Y-93696937D01*
X134716808Y-93729073D01*
X134574162Y-94072601D01*
X134573838Y-94444567D01*
X134691476Y-94729274D01*
X133244446Y-93282244D01*
X133381441Y-93194090D01*
X133526431Y-92981890D01*
X133577440Y-92730000D01*
X133577440Y-91830000D01*
X133533162Y-91594683D01*
X133394090Y-91378559D01*
X133181890Y-91233569D01*
X132930000Y-91182560D01*
X131230000Y-91182560D01*
X130994683Y-91226838D01*
X130778559Y-91365910D01*
X130633569Y-91578110D01*
X130582560Y-91830000D01*
X130582560Y-92702638D01*
X129861998Y-93423200D01*
X129463800Y-93423200D01*
X129172961Y-93481052D01*
X128926399Y-93645799D01*
X127652198Y-94920000D01*
X125865105Y-94920000D01*
X125774090Y-94778559D01*
X125561890Y-94633569D01*
X125310000Y-94582560D01*
X123610000Y-94582560D01*
X123416600Y-94618951D01*
X123416600Y-94091602D01*
X124130762Y-93377440D01*
X125310000Y-93377440D01*
X125545317Y-93333162D01*
X125761441Y-93194090D01*
X125906431Y-92981890D01*
X125957440Y-92730000D01*
X125957440Y-91830000D01*
X125913162Y-91594683D01*
X125774090Y-91378559D01*
X125561890Y-91233569D01*
X125310000Y-91182560D01*
X125220000Y-91182560D01*
X125220000Y-89157440D01*
X125310000Y-89157440D01*
X125545317Y-89113162D01*
X125761441Y-88974090D01*
X125906431Y-88761890D01*
X125957440Y-88510000D01*
X125957440Y-88451962D01*
X127689801Y-86719601D01*
X127854548Y-86473040D01*
X127912400Y-86182200D01*
X127912400Y-85593066D01*
X128251967Y-85593362D01*
X128595743Y-85451317D01*
X128627115Y-85420000D01*
X130674895Y-85420000D01*
X130765910Y-85561441D01*
X130978110Y-85706431D01*
X131230000Y-85757440D01*
X132930000Y-85757440D01*
X133165317Y-85713162D01*
X133381441Y-85574090D01*
X133486726Y-85420000D01*
X138294895Y-85420000D01*
X138385910Y-85561441D01*
X138598110Y-85706431D01*
X138850000Y-85757440D01*
X140550000Y-85757440D01*
X140785317Y-85713162D01*
X141001441Y-85574090D01*
X141106726Y-85420000D01*
X142343600Y-85420000D01*
X142343600Y-88534398D01*
X141643120Y-89234878D01*
X141597633Y-89234838D01*
X141253857Y-89376883D01*
X140990608Y-89639673D01*
X140847962Y-89983201D01*
X140847638Y-90355167D01*
X140989683Y-90698943D01*
X141252473Y-90962192D01*
X141596001Y-91104838D01*
X141967967Y-91105162D01*
X142311743Y-90963117D01*
X142574992Y-90700327D01*
X142717638Y-90356799D01*
X142717679Y-90309923D01*
X143641001Y-89386601D01*
X143805748Y-89140040D01*
X143863600Y-88849200D01*
X143863600Y-85420000D01*
X145914895Y-85420000D01*
X146005910Y-85561441D01*
X146218110Y-85706431D01*
X146470000Y-85757440D01*
X148170000Y-85757440D01*
X148405317Y-85713162D01*
X148621441Y-85574090D01*
X148726726Y-85420000D01*
X153534895Y-85420000D01*
X153625910Y-85561441D01*
X153838110Y-85706431D01*
X154090000Y-85757440D01*
X155790000Y-85757440D01*
X156025317Y-85713162D01*
X156241441Y-85574090D01*
X156346726Y-85420000D01*
X161154895Y-85420000D01*
X161245910Y-85561441D01*
X161458110Y-85706431D01*
X161710000Y-85757440D01*
X163410000Y-85757440D01*
X163645317Y-85713162D01*
X163861441Y-85574090D01*
X163936383Y-85464409D01*
X163936238Y-85630767D01*
X164078283Y-85974543D01*
X164111400Y-86007718D01*
X164111400Y-87249000D01*
X164114341Y-87263787D01*
X164114038Y-87611967D01*
X164256083Y-87955743D01*
X164518873Y-88218992D01*
X164862401Y-88361638D01*
X165234367Y-88361962D01*
X165578143Y-88219917D01*
X165841392Y-87957127D01*
X165984038Y-87613599D01*
X165984362Y-87241633D01*
X165842317Y-86897857D01*
X165631400Y-86686572D01*
X165631400Y-86008063D01*
X165663592Y-85975927D01*
X165806238Y-85632399D01*
X165806423Y-85420000D01*
X168774895Y-85420000D01*
X168865910Y-85561441D01*
X169078110Y-85706431D01*
X169330000Y-85757440D01*
X171030000Y-85757440D01*
X171265317Y-85713162D01*
X171481441Y-85574090D01*
X171586726Y-85420000D01*
X176394895Y-85420000D01*
X176485910Y-85561441D01*
X176698110Y-85706431D01*
X176950000Y-85757440D01*
X178650000Y-85757440D01*
X178885317Y-85713162D01*
X179101441Y-85574090D01*
X179206726Y-85420000D01*
X184014895Y-85420000D01*
X184105910Y-85561441D01*
X184318110Y-85706431D01*
X184570000Y-85757440D01*
X186270000Y-85757440D01*
X186505317Y-85713162D01*
X186721441Y-85574090D01*
X186826726Y-85420000D01*
X191634895Y-85420000D01*
X191725910Y-85561441D01*
X191938110Y-85706431D01*
X192190000Y-85757440D01*
X193890000Y-85757440D01*
X194125317Y-85713162D01*
X194341441Y-85574090D01*
X194486431Y-85361890D01*
X194537440Y-85110000D01*
X194537440Y-84210000D01*
X194493162Y-83974683D01*
X194354090Y-83758559D01*
X194141890Y-83613569D01*
X193890000Y-83562560D01*
X192190000Y-83562560D01*
X191954683Y-83606838D01*
X191738559Y-83745910D01*
X191633274Y-83900000D01*
X186825105Y-83900000D01*
X186734090Y-83758559D01*
X186521890Y-83613569D01*
X186270000Y-83562560D01*
X184570000Y-83562560D01*
X184334683Y-83606838D01*
X184118559Y-83745910D01*
X184013274Y-83900000D01*
X179205105Y-83900000D01*
X179114090Y-83758559D01*
X178901890Y-83613569D01*
X178650000Y-83562560D01*
X176950000Y-83562560D01*
X176714683Y-83606838D01*
X176498559Y-83745910D01*
X176393274Y-83900000D01*
X171585105Y-83900000D01*
X171494090Y-83758559D01*
X171281890Y-83613569D01*
X171030000Y-83562560D01*
X169330000Y-83562560D01*
X169094683Y-83606838D01*
X168878559Y-83745910D01*
X168773274Y-83900000D01*
X165577797Y-83900000D01*
X165577962Y-83711033D01*
X165435917Y-83367257D01*
X165173127Y-83104008D01*
X164971000Y-83020077D01*
X164971000Y-81661000D01*
X164913148Y-81370161D01*
X164748401Y-81123599D01*
X164057440Y-80432638D01*
X164057440Y-79160000D01*
X164013162Y-78924683D01*
X163874090Y-78708559D01*
X163661890Y-78563569D01*
X163410000Y-78512560D01*
X161710000Y-78512560D01*
X161474683Y-78556838D01*
X161258559Y-78695910D01*
X161113569Y-78908110D01*
X161099914Y-78975541D01*
X161070054Y-78930853D01*
X160588285Y-78608946D01*
X160020000Y-78495907D01*
X159451715Y-78608946D01*
X158969946Y-78930853D01*
X158742298Y-79271553D01*
X158675183Y-79128642D01*
X158246924Y-78738355D01*
X157836890Y-78568524D01*
X157607000Y-78689845D01*
X157607000Y-79883000D01*
X157627000Y-79883000D01*
X157627000Y-80137000D01*
X157607000Y-80137000D01*
X157607000Y-81330155D01*
X157836890Y-81451476D01*
X158246924Y-81281645D01*
X158675183Y-80891358D01*
X158742298Y-80748447D01*
X158969946Y-81089147D01*
X159260000Y-81282954D01*
X159260000Y-83286600D01*
X159317852Y-83577439D01*
X159482599Y-83824001D01*
X159558598Y-83900000D01*
X156345105Y-83900000D01*
X156254090Y-83758559D01*
X156041890Y-83613569D01*
X155790000Y-83562560D01*
X154090000Y-83562560D01*
X153854683Y-83606838D01*
X153638559Y-83745910D01*
X153533274Y-83900000D01*
X148725105Y-83900000D01*
X148634090Y-83758559D01*
X148421890Y-83613569D01*
X148170000Y-83562560D01*
X146470000Y-83562560D01*
X146234683Y-83606838D01*
X146018559Y-83745910D01*
X145913274Y-83900000D01*
X141105105Y-83900000D01*
X141014090Y-83758559D01*
X140801890Y-83613569D01*
X140550000Y-83562560D01*
X138850000Y-83562560D01*
X138614683Y-83606838D01*
X138398559Y-83745910D01*
X138293274Y-83900000D01*
X133485105Y-83900000D01*
X133394090Y-83758559D01*
X133181890Y-83613569D01*
X132930000Y-83562560D01*
X131230000Y-83562560D01*
X130994683Y-83606838D01*
X130778559Y-83745910D01*
X130673274Y-83900000D01*
X129907402Y-83900000D01*
X129103522Y-83096120D01*
X129103562Y-83050633D01*
X128961517Y-82706857D01*
X128698727Y-82443608D01*
X128355199Y-82300962D01*
X127983233Y-82300638D01*
X127912400Y-82329906D01*
X127912400Y-80674063D01*
X127944592Y-80641927D01*
X128087238Y-80298399D01*
X128087514Y-79980907D01*
X153455000Y-79980907D01*
X153455000Y-80039093D01*
X153568039Y-80607378D01*
X153889946Y-81089147D01*
X154371715Y-81411054D01*
X154940000Y-81524093D01*
X155508285Y-81411054D01*
X155990054Y-81089147D01*
X156217702Y-80748447D01*
X156284817Y-80891358D01*
X156713076Y-81281645D01*
X157123110Y-81451476D01*
X157353000Y-81330155D01*
X157353000Y-80137000D01*
X157333000Y-80137000D01*
X157333000Y-79883000D01*
X157353000Y-79883000D01*
X157353000Y-78689845D01*
X157123110Y-78568524D01*
X156713076Y-78738355D01*
X156284817Y-79128642D01*
X156217702Y-79271553D01*
X155990054Y-78930853D01*
X155508285Y-78608946D01*
X154940000Y-78495907D01*
X154371715Y-78608946D01*
X153889946Y-78930853D01*
X153568039Y-79412622D01*
X153455000Y-79980907D01*
X128087514Y-79980907D01*
X128087562Y-79926433D01*
X127945517Y-79582657D01*
X127682727Y-79319408D01*
X127339199Y-79176762D01*
X126967233Y-79176438D01*
X126623457Y-79318483D01*
X126360208Y-79581273D01*
X126217562Y-79924801D01*
X126217238Y-80296767D01*
X126359283Y-80640543D01*
X126392400Y-80673718D01*
X126392400Y-83545556D01*
X126027433Y-83545238D01*
X125683657Y-83687283D01*
X125678016Y-83692914D01*
X125561890Y-83613569D01*
X125471352Y-83595235D01*
X125471362Y-83584033D01*
X125329317Y-83240257D01*
X125066527Y-82977008D01*
X124722999Y-82834362D01*
X124351033Y-82834038D01*
X124007257Y-82976083D01*
X123744008Y-83238873D01*
X123609567Y-83562641D01*
X123374683Y-83606838D01*
X123158559Y-83745910D01*
X123013569Y-83958110D01*
X122962560Y-84210000D01*
X122962560Y-85110000D01*
X123006838Y-85345317D01*
X123145910Y-85561441D01*
X123358110Y-85706431D01*
X123610000Y-85757440D01*
X125310000Y-85757440D01*
X125545317Y-85713162D01*
X125761441Y-85574090D01*
X125866726Y-85420000D01*
X126033000Y-85420000D01*
X126056804Y-85415265D01*
X126392400Y-85415557D01*
X126392400Y-85867398D01*
X125297238Y-86962560D01*
X123610000Y-86962560D01*
X123374683Y-87006838D01*
X123158559Y-87145910D01*
X123013569Y-87358110D01*
X122962560Y-87610000D01*
X122962560Y-88510000D01*
X123006838Y-88745317D01*
X123145910Y-88961441D01*
X123358110Y-89106431D01*
X123610000Y-89157440D01*
X123700000Y-89157440D01*
X123700000Y-91182560D01*
X123610000Y-91182560D01*
X123374683Y-91226838D01*
X123158559Y-91365910D01*
X123013569Y-91578110D01*
X122962560Y-91830000D01*
X122962560Y-92396038D01*
X122119199Y-93239399D01*
X121954452Y-93485961D01*
X121896600Y-93776800D01*
X121360000Y-93776800D01*
X121360000Y-81695312D01*
X121417954Y-81782046D01*
X122230976Y-82325289D01*
X123190000Y-82516051D01*
X124149024Y-82325289D01*
X124962046Y-81782046D01*
X125505289Y-80969024D01*
X125696051Y-80010000D01*
X125505289Y-79050976D01*
X124962046Y-78237954D01*
X124875312Y-78180000D01*
X193894688Y-78180000D01*
X193807954Y-78237954D01*
M02*
