G04 #@! TF.FileFunction,Copper,L2,Bot,Signal*
%FSLAX46Y46*%
G04 Gerber Fmt 4.6, Leading zero omitted, Abs format (unit mm)*
G04 Created by KiCad (PCBNEW 4.0.7) date 07/09/18 15:47:45*
%MOMM*%
%LPD*%
G01*
G04 APERTURE LIST*
%ADD10C,0.100000*%
%ADD11R,1.700000X1.700000*%
%ADD12O,1.700000X1.700000*%
%ADD13R,2.000000X1.700000*%
%ADD14R,1.700000X2.000000*%
%ADD15C,0.600000*%
%ADD16C,0.250000*%
%ADD17C,0.254000*%
G04 APERTURE END LIST*
D10*
D11*
X162560000Y-80010000D03*
D12*
X160020000Y-80010000D03*
X157480000Y-80010000D03*
X154940000Y-80010000D03*
D13*
X141510000Y-90170000D03*
X145510000Y-90170000D03*
X147860000Y-97790000D03*
X151860000Y-97790000D03*
X156750000Y-97790000D03*
X160750000Y-97790000D03*
X131540000Y-80010000D03*
X127540000Y-80010000D03*
X139160000Y-80010000D03*
X135160000Y-80010000D03*
X146780000Y-80010000D03*
X142780000Y-80010000D03*
D14*
X151130000Y-88360000D03*
X151130000Y-84360000D03*
X158750000Y-85630000D03*
X158750000Y-89630000D03*
D13*
X172180000Y-80010000D03*
X168180000Y-80010000D03*
X179800000Y-80010000D03*
X175800000Y-80010000D03*
X187420000Y-80010000D03*
X183420000Y-80010000D03*
D14*
X189230000Y-88360000D03*
X189230000Y-84360000D03*
D13*
X179610000Y-105410000D03*
X183610000Y-105410000D03*
D15*
X157200600Y-83820000D03*
X166090600Y-104978200D03*
X166370000Y-102057200D03*
X164795200Y-98044000D03*
X164642800Y-83896200D03*
X164871400Y-85445600D03*
X165049200Y-87426800D03*
X188341000Y-90830400D03*
X184454800Y-89585800D03*
X179679600Y-89738200D03*
X185445400Y-109245400D03*
X160604200Y-83870800D03*
X139344400Y-107492800D03*
X132105400Y-98221800D03*
X135509000Y-94259400D03*
X131826000Y-88011000D03*
X127152400Y-80111600D03*
X124536200Y-83769200D03*
X128168400Y-83235800D03*
X141782800Y-90170000D03*
X126212600Y-84480400D03*
X128066800Y-84658200D03*
X162610800Y-102006400D03*
X162814000Y-99822000D03*
X165582600Y-94513400D03*
X162610800Y-88011000D03*
X147878800Y-97459800D03*
X149555200Y-99796600D03*
X149834600Y-94970600D03*
X148818600Y-86893400D03*
X139877800Y-92735400D03*
X139979400Y-99898200D03*
X143687800Y-105613200D03*
X139623800Y-87985600D03*
X185597800Y-92151200D03*
X189026800Y-98348800D03*
X185470800Y-101523800D03*
X183642000Y-105613200D03*
X154838400Y-88061800D03*
X151130000Y-88360000D03*
X154051000Y-97028000D03*
X177723800Y-94361000D03*
X177774600Y-101854000D03*
X170230800Y-88087200D03*
X170154600Y-99872800D03*
X170205400Y-94411800D03*
D16*
X160750000Y-97790000D02*
X160750000Y-95014800D01*
X157073600Y-83947000D02*
X157200600Y-83820000D01*
X157073600Y-91338400D02*
X157073600Y-83947000D01*
X160750000Y-95014800D02*
X157073600Y-91338400D01*
X160750000Y-97790000D02*
X164541200Y-97790000D01*
X166090600Y-102336600D02*
X166090600Y-104978200D01*
X166370000Y-102057200D02*
X166090600Y-102336600D01*
X164541200Y-97790000D02*
X164795200Y-98044000D01*
X165963600Y-89630000D02*
X165963600Y-88341200D01*
X164642800Y-85217000D02*
X164642800Y-83896200D01*
X164871400Y-85445600D02*
X164642800Y-85217000D01*
X165963600Y-88341200D02*
X165049200Y-87426800D01*
X158750000Y-89630000D02*
X165963600Y-89630000D01*
X165963600Y-89630000D02*
X179571400Y-89630000D01*
X185699400Y-90830400D02*
X188341000Y-90830400D01*
X184454800Y-89585800D02*
X185699400Y-90830400D01*
X179571400Y-89630000D02*
X179679600Y-89738200D01*
X179610000Y-105410000D02*
X179654200Y-105410000D01*
X179654200Y-105410000D02*
X183489600Y-109245400D01*
X183489600Y-109245400D02*
X185445400Y-109245400D01*
X158750000Y-85630000D02*
X160445200Y-85630000D01*
X160604200Y-85471000D02*
X160604200Y-83870800D01*
X160445200Y-85630000D02*
X160604200Y-85471000D01*
X134429500Y-95897700D02*
X134429500Y-97955100D01*
X136855200Y-105003600D02*
X139344400Y-107492800D01*
X136855200Y-100380800D02*
X136855200Y-105003600D01*
X134429500Y-97955100D02*
X136855200Y-100380800D01*
X134442200Y-95885000D02*
X134429500Y-95897700D01*
X134429500Y-95897700D02*
X132105400Y-98221800D01*
X134442200Y-95326200D02*
X134442200Y-95885000D01*
X135509000Y-94259400D02*
X134442200Y-95326200D01*
X131540000Y-80010000D02*
X135160000Y-80010000D01*
X131540000Y-80010000D02*
X131540000Y-87725000D01*
X131540000Y-87725000D02*
X131826000Y-88011000D01*
X127152400Y-80111600D02*
X127254000Y-80010000D01*
X127254000Y-80010000D02*
X127540000Y-80010000D01*
X125425200Y-82880200D02*
X124536200Y-83769200D01*
X127812800Y-82880200D02*
X125425200Y-82880200D01*
X128168400Y-83235800D02*
X127812800Y-82880200D01*
X141782800Y-90170000D02*
X141510000Y-90170000D01*
X127889000Y-84480400D02*
X126212600Y-84480400D01*
X128066800Y-84658200D02*
X127889000Y-84480400D01*
X156750000Y-97790000D02*
X156750000Y-97974400D01*
X156750000Y-97974400D02*
X160477200Y-101701600D01*
X162306000Y-101701600D02*
X162610800Y-102006400D01*
X160477200Y-101701600D02*
X162306000Y-101701600D01*
X151860000Y-97790000D02*
X156750000Y-97790000D01*
X164236400Y-99822000D02*
X162814000Y-99822000D01*
X166039800Y-98018600D02*
X164236400Y-99822000D01*
X166039800Y-94970600D02*
X166039800Y-98018600D01*
X165582600Y-94513400D02*
X166039800Y-94970600D01*
X172180000Y-80010000D02*
X172180000Y-81007200D01*
X164058600Y-86563200D02*
X162610800Y-88011000D01*
X165633400Y-86563200D02*
X164058600Y-86563200D01*
X168986200Y-83210400D02*
X165633400Y-86563200D01*
X169976800Y-83210400D02*
X168986200Y-83210400D01*
X172180000Y-81007200D02*
X169976800Y-83210400D01*
X172180000Y-80010000D02*
X175800000Y-80010000D01*
X147878800Y-97459800D02*
X147860000Y-97478600D01*
X147860000Y-97478600D02*
X147860000Y-97790000D01*
X145510000Y-90170000D02*
X145510000Y-91167200D01*
X145872200Y-97790000D02*
X147860000Y-97790000D01*
X144627600Y-96545400D02*
X145872200Y-97790000D01*
X144627600Y-92049600D02*
X144627600Y-96545400D01*
X145510000Y-91167200D02*
X144627600Y-92049600D01*
X149555200Y-99009200D02*
X149555200Y-99796600D01*
X149834600Y-98729800D02*
X149555200Y-99009200D01*
X149834600Y-94970600D02*
X149834600Y-98729800D01*
X146780000Y-80010000D02*
X151130000Y-84360000D01*
X148818600Y-86893400D02*
X151130000Y-84582000D01*
X151130000Y-84582000D02*
X151130000Y-84360000D01*
X142773400Y-100431600D02*
X142773400Y-93827600D01*
X139877800Y-93116400D02*
X139877800Y-92735400D01*
X140335000Y-93573600D02*
X139877800Y-93116400D01*
X142519400Y-93573600D02*
X140335000Y-93573600D01*
X142773400Y-93827600D02*
X142519400Y-93573600D01*
X142240000Y-99898200D02*
X139979400Y-99898200D01*
X142773400Y-100431600D02*
X142240000Y-99898200D01*
X142773400Y-104698800D02*
X142773400Y-100431600D01*
X143687800Y-105613200D02*
X142773400Y-104698800D01*
X139160000Y-80010000D02*
X139160000Y-87521800D01*
X139160000Y-87521800D02*
X139623800Y-87985600D01*
X139160000Y-80010000D02*
X142780000Y-80010000D01*
X189230000Y-92659200D02*
X186105800Y-92659200D01*
X186105800Y-92659200D02*
X185597800Y-92151200D01*
X189230000Y-98145600D02*
X189230000Y-92659200D01*
X189230000Y-92659200D02*
X189230000Y-88360000D01*
X189026800Y-98348800D02*
X189230000Y-98145600D01*
X183610000Y-105410000D02*
X184683400Y-105410000D01*
X185470800Y-104622600D02*
X185470800Y-101523800D01*
X184683400Y-105410000D02*
X185470800Y-104622600D01*
X183642000Y-105613200D02*
X183610000Y-105581200D01*
X183610000Y-105581200D02*
X183610000Y-105410000D01*
X168180000Y-80010000D02*
X168180000Y-80638400D01*
X168180000Y-80638400D02*
X165760400Y-83058000D01*
X165760400Y-83058000D02*
X156184600Y-83058000D01*
X156184600Y-83058000D02*
X154838400Y-84404200D01*
X154838400Y-84404200D02*
X154838400Y-88061800D01*
X154051000Y-97028000D02*
X153873200Y-96850200D01*
X153873200Y-96850200D02*
X153873200Y-94361000D01*
X153873200Y-94361000D02*
X151130000Y-91617800D01*
X151130000Y-91617800D02*
X151130000Y-88360000D01*
X187420000Y-82550000D02*
X184277000Y-82550000D01*
X181025800Y-92659200D02*
X177774600Y-95910400D01*
X181025800Y-85801200D02*
X181025800Y-92659200D01*
X184277000Y-82550000D02*
X181025800Y-85801200D01*
X177723800Y-94361000D02*
X177774600Y-94411800D01*
X177774600Y-94411800D02*
X177774600Y-95910400D01*
X177774600Y-95910400D02*
X177774600Y-101854000D01*
X187420000Y-80010000D02*
X187420000Y-82550000D01*
X187420000Y-82550000D02*
X189230000Y-84360000D01*
X179800000Y-80010000D02*
X179800000Y-80194400D01*
X179800000Y-80194400D02*
X176479200Y-83515200D01*
X172999400Y-88087200D02*
X170230800Y-88087200D01*
X176479200Y-84607400D02*
X172999400Y-88087200D01*
X176479200Y-83515200D02*
X176479200Y-84607400D01*
X170154600Y-94462600D02*
X170154600Y-99872800D01*
X170205400Y-94411800D02*
X170154600Y-94462600D01*
X179800000Y-80010000D02*
X183420000Y-80010000D01*
D17*
G36*
X193807954Y-78237954D02*
X193264711Y-79050976D01*
X193073949Y-80010000D01*
X193264711Y-80969024D01*
X193807954Y-81782046D01*
X194620976Y-82325289D01*
X195580000Y-82516051D01*
X196539024Y-82325289D01*
X197352046Y-81782046D01*
X197410000Y-81695312D01*
X197410000Y-108804688D01*
X197352046Y-108717954D01*
X196539024Y-108174711D01*
X195580000Y-107983949D01*
X194620976Y-108174711D01*
X193807954Y-108717954D01*
X193264711Y-109530976D01*
X193073949Y-110490000D01*
X193264711Y-111449024D01*
X193807954Y-112262046D01*
X193894688Y-112320000D01*
X124875312Y-112320000D01*
X124962046Y-112262046D01*
X125505289Y-111449024D01*
X125696051Y-110490000D01*
X125505289Y-109530976D01*
X124962046Y-108717954D01*
X124149024Y-108174711D01*
X123190000Y-107983949D01*
X122230976Y-108174711D01*
X121417954Y-108717954D01*
X121360000Y-108804688D01*
X121360000Y-98406967D01*
X131170238Y-98406967D01*
X131312283Y-98750743D01*
X131575073Y-99013992D01*
X131918601Y-99156638D01*
X132290567Y-99156962D01*
X132634343Y-99014917D01*
X132897592Y-98752127D01*
X133040238Y-98408599D01*
X133040279Y-98361723D01*
X133669500Y-97732502D01*
X133669500Y-97955100D01*
X133727352Y-98245939D01*
X133892099Y-98492501D01*
X136095200Y-100695602D01*
X136095200Y-105003600D01*
X136153052Y-105294439D01*
X136317799Y-105541001D01*
X138409278Y-107632480D01*
X138409238Y-107677967D01*
X138551283Y-108021743D01*
X138814073Y-108284992D01*
X139157601Y-108427638D01*
X139529567Y-108427962D01*
X139873343Y-108285917D01*
X140136592Y-108023127D01*
X140279238Y-107679599D01*
X140279562Y-107307633D01*
X140137517Y-106963857D01*
X139874727Y-106700608D01*
X139531199Y-106557962D01*
X139484323Y-106557921D01*
X137615200Y-104688798D01*
X137615200Y-100380800D01*
X137557348Y-100089961D01*
X137392601Y-99843399D01*
X135189500Y-97640298D01*
X135189500Y-95948847D01*
X135202200Y-95885000D01*
X135202200Y-95641002D01*
X135648680Y-95194522D01*
X135694167Y-95194562D01*
X136037943Y-95052517D01*
X136301192Y-94789727D01*
X136443838Y-94446199D01*
X136444162Y-94074233D01*
X136302117Y-93730457D01*
X136039327Y-93467208D01*
X135695799Y-93324562D01*
X135323833Y-93324238D01*
X134980057Y-93466283D01*
X134716808Y-93729073D01*
X134574162Y-94072601D01*
X134574121Y-94119477D01*
X133904799Y-94788799D01*
X133740052Y-95035361D01*
X133682200Y-95326200D01*
X133682200Y-95570198D01*
X131965720Y-97286678D01*
X131920233Y-97286638D01*
X131576457Y-97428683D01*
X131313208Y-97691473D01*
X131170562Y-98035001D01*
X131170238Y-98406967D01*
X121360000Y-98406967D01*
X121360000Y-92920567D01*
X138942638Y-92920567D01*
X139084683Y-93264343D01*
X139162792Y-93342589D01*
X139175652Y-93407239D01*
X139340399Y-93653801D01*
X139797599Y-94111001D01*
X140044160Y-94275748D01*
X140092414Y-94285346D01*
X140335000Y-94333600D01*
X142013400Y-94333600D01*
X142013400Y-99138200D01*
X140541863Y-99138200D01*
X140509727Y-99106008D01*
X140166199Y-98963362D01*
X139794233Y-98963038D01*
X139450457Y-99105083D01*
X139187208Y-99367873D01*
X139044562Y-99711401D01*
X139044238Y-100083367D01*
X139186283Y-100427143D01*
X139449073Y-100690392D01*
X139792601Y-100833038D01*
X140164567Y-100833362D01*
X140508343Y-100691317D01*
X140541518Y-100658200D01*
X141925198Y-100658200D01*
X142013400Y-100746402D01*
X142013400Y-104698800D01*
X142071252Y-104989639D01*
X142235999Y-105236201D01*
X142752678Y-105752880D01*
X142752638Y-105798367D01*
X142894683Y-106142143D01*
X143157473Y-106405392D01*
X143501001Y-106548038D01*
X143872967Y-106548362D01*
X144216743Y-106406317D01*
X144479992Y-106143527D01*
X144622638Y-105799999D01*
X144622962Y-105428033D01*
X144480917Y-105084257D01*
X144218127Y-104821008D01*
X143874599Y-104678362D01*
X143827723Y-104678321D01*
X143709402Y-104560000D01*
X177962560Y-104560000D01*
X177962560Y-106260000D01*
X178006838Y-106495317D01*
X178145910Y-106711441D01*
X178358110Y-106856431D01*
X178610000Y-106907440D01*
X180076838Y-106907440D01*
X182952199Y-109782801D01*
X183198761Y-109947548D01*
X183489600Y-110005400D01*
X184882937Y-110005400D01*
X184915073Y-110037592D01*
X185258601Y-110180238D01*
X185630567Y-110180562D01*
X185974343Y-110038517D01*
X186237592Y-109775727D01*
X186380238Y-109432199D01*
X186380562Y-109060233D01*
X186238517Y-108716457D01*
X185975727Y-108453208D01*
X185632199Y-108310562D01*
X185260233Y-108310238D01*
X184916457Y-108452283D01*
X184883282Y-108485400D01*
X183804402Y-108485400D01*
X181257440Y-105938438D01*
X181257440Y-104560000D01*
X181962560Y-104560000D01*
X181962560Y-106260000D01*
X182006838Y-106495317D01*
X182145910Y-106711441D01*
X182358110Y-106856431D01*
X182610000Y-106907440D01*
X184610000Y-106907440D01*
X184845317Y-106863162D01*
X185061441Y-106724090D01*
X185206431Y-106511890D01*
X185257440Y-106260000D01*
X185257440Y-105910762D01*
X186008201Y-105160001D01*
X186172948Y-104913439D01*
X186230800Y-104622600D01*
X186230800Y-102086263D01*
X186262992Y-102054127D01*
X186405638Y-101710599D01*
X186405962Y-101338633D01*
X186263917Y-100994857D01*
X186001127Y-100731608D01*
X185657599Y-100588962D01*
X185285633Y-100588638D01*
X184941857Y-100730683D01*
X184678608Y-100993473D01*
X184535962Y-101337001D01*
X184535638Y-101708967D01*
X184677683Y-102052743D01*
X184710800Y-102085918D01*
X184710800Y-103932973D01*
X184610000Y-103912560D01*
X182610000Y-103912560D01*
X182374683Y-103956838D01*
X182158559Y-104095910D01*
X182013569Y-104308110D01*
X181962560Y-104560000D01*
X181257440Y-104560000D01*
X181213162Y-104324683D01*
X181074090Y-104108559D01*
X180861890Y-103963569D01*
X180610000Y-103912560D01*
X178610000Y-103912560D01*
X178374683Y-103956838D01*
X178158559Y-104095910D01*
X178013569Y-104308110D01*
X177962560Y-104560000D01*
X143709402Y-104560000D01*
X143533400Y-104383998D01*
X143533400Y-93827600D01*
X143513802Y-93729073D01*
X143475548Y-93536760D01*
X143310801Y-93290199D01*
X143056801Y-93036199D01*
X142810239Y-92871452D01*
X142519400Y-92813600D01*
X140812733Y-92813600D01*
X140812962Y-92550233D01*
X140670917Y-92206457D01*
X140408127Y-91943208D01*
X140064599Y-91800562D01*
X139692633Y-91800238D01*
X139348857Y-91942283D01*
X139085608Y-92205073D01*
X138942962Y-92548601D01*
X138942638Y-92920567D01*
X121360000Y-92920567D01*
X121360000Y-89320000D01*
X139862560Y-89320000D01*
X139862560Y-91020000D01*
X139906838Y-91255317D01*
X140045910Y-91471441D01*
X140258110Y-91616431D01*
X140510000Y-91667440D01*
X142510000Y-91667440D01*
X142745317Y-91623162D01*
X142961441Y-91484090D01*
X143106431Y-91271890D01*
X143157440Y-91020000D01*
X143157440Y-89320000D01*
X143862560Y-89320000D01*
X143862560Y-91020000D01*
X143906838Y-91255317D01*
X144045910Y-91471441D01*
X144096435Y-91505963D01*
X144090199Y-91512199D01*
X143925452Y-91758761D01*
X143867600Y-92049600D01*
X143867600Y-96545400D01*
X143925452Y-96836239D01*
X144090199Y-97082801D01*
X145334799Y-98327401D01*
X145581360Y-98492148D01*
X145872200Y-98550000D01*
X146212560Y-98550000D01*
X146212560Y-98640000D01*
X146256838Y-98875317D01*
X146395910Y-99091441D01*
X146608110Y-99236431D01*
X146860000Y-99287440D01*
X148754219Y-99287440D01*
X148620362Y-99609801D01*
X148620038Y-99981767D01*
X148762083Y-100325543D01*
X149024873Y-100588792D01*
X149368401Y-100731438D01*
X149740367Y-100731762D01*
X150084143Y-100589717D01*
X150347392Y-100326927D01*
X150490038Y-99983399D01*
X150490362Y-99611433D01*
X150355108Y-99284094D01*
X150372001Y-99267201D01*
X150460124Y-99135316D01*
X150608110Y-99236431D01*
X150860000Y-99287440D01*
X152860000Y-99287440D01*
X153095317Y-99243162D01*
X153311441Y-99104090D01*
X153456431Y-98891890D01*
X153507440Y-98640000D01*
X153507440Y-98550000D01*
X155102560Y-98550000D01*
X155102560Y-98640000D01*
X155146838Y-98875317D01*
X155285910Y-99091441D01*
X155498110Y-99236431D01*
X155750000Y-99287440D01*
X156988238Y-99287440D01*
X159939799Y-102239001D01*
X160186361Y-102403748D01*
X160477200Y-102461600D01*
X161787213Y-102461600D01*
X161817683Y-102535343D01*
X162080473Y-102798592D01*
X162424001Y-102941238D01*
X162795967Y-102941562D01*
X163139743Y-102799517D01*
X163402992Y-102536727D01*
X163545638Y-102193199D01*
X163545962Y-101821233D01*
X163403917Y-101477457D01*
X163141127Y-101214208D01*
X162797599Y-101071562D01*
X162704638Y-101071481D01*
X162596839Y-100999452D01*
X162306000Y-100941600D01*
X160792002Y-100941600D01*
X159857569Y-100007167D01*
X161878838Y-100007167D01*
X162020883Y-100350943D01*
X162283673Y-100614192D01*
X162627201Y-100756838D01*
X162999167Y-100757162D01*
X163342943Y-100615117D01*
X163376118Y-100582000D01*
X164236400Y-100582000D01*
X164527239Y-100524148D01*
X164773801Y-100359401D01*
X165075235Y-100057967D01*
X169219438Y-100057967D01*
X169361483Y-100401743D01*
X169624273Y-100664992D01*
X169967801Y-100807638D01*
X170339767Y-100807962D01*
X170683543Y-100665917D01*
X170946792Y-100403127D01*
X171089438Y-100059599D01*
X171089762Y-99687633D01*
X170947717Y-99343857D01*
X170914600Y-99310682D01*
X170914600Y-95024974D01*
X170997592Y-94942127D01*
X171140238Y-94598599D01*
X171140562Y-94226633D01*
X170998517Y-93882857D01*
X170735727Y-93619608D01*
X170392199Y-93476962D01*
X170020233Y-93476638D01*
X169676457Y-93618683D01*
X169413208Y-93881473D01*
X169270562Y-94225001D01*
X169270238Y-94596967D01*
X169394600Y-94897947D01*
X169394600Y-99310337D01*
X169362408Y-99342473D01*
X169219762Y-99686001D01*
X169219438Y-100057967D01*
X165075235Y-100057967D01*
X166577201Y-98556001D01*
X166741948Y-98309439D01*
X166799800Y-98018600D01*
X166799800Y-94970600D01*
X166746499Y-94702639D01*
X166741948Y-94679760D01*
X166577201Y-94433199D01*
X166517722Y-94373720D01*
X166517762Y-94328233D01*
X166375717Y-93984457D01*
X166112927Y-93721208D01*
X165769399Y-93578562D01*
X165397433Y-93578238D01*
X165053657Y-93720283D01*
X164790408Y-93983073D01*
X164647762Y-94326601D01*
X164647438Y-94698567D01*
X164789483Y-95042343D01*
X165052273Y-95305592D01*
X165279800Y-95400070D01*
X165279800Y-97703798D01*
X163921598Y-99062000D01*
X163376463Y-99062000D01*
X163344327Y-99029808D01*
X163000799Y-98887162D01*
X162628833Y-98886838D01*
X162285057Y-99028883D01*
X162021808Y-99291673D01*
X161879162Y-99635201D01*
X161878838Y-100007167D01*
X159857569Y-100007167D01*
X158397440Y-98547038D01*
X158397440Y-98075750D01*
X159115000Y-98075750D01*
X159115000Y-98766310D01*
X159211673Y-98999699D01*
X159390302Y-99178327D01*
X159623691Y-99275000D01*
X160464250Y-99275000D01*
X160623000Y-99116250D01*
X160623000Y-97917000D01*
X160877000Y-97917000D01*
X160877000Y-99116250D01*
X161035750Y-99275000D01*
X161876309Y-99275000D01*
X162109698Y-99178327D01*
X162288327Y-98999699D01*
X162385000Y-98766310D01*
X162385000Y-98075750D01*
X162226250Y-97917000D01*
X160877000Y-97917000D01*
X160623000Y-97917000D01*
X159273750Y-97917000D01*
X159115000Y-98075750D01*
X158397440Y-98075750D01*
X158397440Y-96940000D01*
X158373674Y-96813690D01*
X159115000Y-96813690D01*
X159115000Y-97504250D01*
X159273750Y-97663000D01*
X160623000Y-97663000D01*
X160623000Y-96463750D01*
X160877000Y-96463750D01*
X160877000Y-97663000D01*
X162226250Y-97663000D01*
X162385000Y-97504250D01*
X162385000Y-96813690D01*
X162288327Y-96580301D01*
X162109698Y-96401673D01*
X161876309Y-96305000D01*
X161035750Y-96305000D01*
X160877000Y-96463750D01*
X160623000Y-96463750D01*
X160464250Y-96305000D01*
X159623691Y-96305000D01*
X159390302Y-96401673D01*
X159211673Y-96580301D01*
X159115000Y-96813690D01*
X158373674Y-96813690D01*
X158353162Y-96704683D01*
X158214090Y-96488559D01*
X158001890Y-96343569D01*
X157750000Y-96292560D01*
X155750000Y-96292560D01*
X155514683Y-96336838D01*
X155298559Y-96475910D01*
X155153569Y-96688110D01*
X155102560Y-96940000D01*
X155102560Y-97030000D01*
X154985999Y-97030000D01*
X154986162Y-96842833D01*
X154844117Y-96499057D01*
X154633200Y-96287772D01*
X154633200Y-94361000D01*
X154575348Y-94070161D01*
X154410601Y-93823599D01*
X151890000Y-91302998D01*
X151890000Y-90007440D01*
X151980000Y-90007440D01*
X152215317Y-89963162D01*
X152431441Y-89824090D01*
X152576431Y-89611890D01*
X152627440Y-89360000D01*
X152627440Y-88246967D01*
X153903238Y-88246967D01*
X154045283Y-88590743D01*
X154308073Y-88853992D01*
X154651601Y-88996638D01*
X155023567Y-88996962D01*
X155367343Y-88854917D01*
X155630592Y-88592127D01*
X155773238Y-88248599D01*
X155773562Y-87876633D01*
X155631517Y-87532857D01*
X155598400Y-87499682D01*
X155598400Y-84719002D01*
X156499402Y-83818000D01*
X159669245Y-83818000D01*
X159669090Y-83996551D01*
X159600000Y-83982560D01*
X157900000Y-83982560D01*
X157664683Y-84026838D01*
X157448559Y-84165910D01*
X157303569Y-84378110D01*
X157252560Y-84630000D01*
X157252560Y-86630000D01*
X157296838Y-86865317D01*
X157435910Y-87081441D01*
X157648110Y-87226431D01*
X157900000Y-87277440D01*
X159600000Y-87277440D01*
X159835317Y-87233162D01*
X160051441Y-87094090D01*
X160196431Y-86881890D01*
X160247440Y-86630000D01*
X160247440Y-86390000D01*
X160445200Y-86390000D01*
X160736039Y-86332148D01*
X160982601Y-86167401D01*
X161141601Y-86008401D01*
X161306348Y-85761839D01*
X161364200Y-85471000D01*
X161364200Y-84433263D01*
X161396392Y-84401127D01*
X161539038Y-84057599D01*
X161539247Y-83818000D01*
X163707867Y-83818000D01*
X163707638Y-84081367D01*
X163849683Y-84425143D01*
X163882800Y-84458318D01*
X163882800Y-85217000D01*
X163936364Y-85486281D01*
X163936238Y-85630767D01*
X164011368Y-85812595D01*
X163767760Y-85861052D01*
X163521199Y-86025799D01*
X162471120Y-87075878D01*
X162425633Y-87075838D01*
X162081857Y-87217883D01*
X161818608Y-87480673D01*
X161675962Y-87824201D01*
X161675638Y-88196167D01*
X161817683Y-88539943D01*
X162080473Y-88803192D01*
X162241364Y-88870000D01*
X160247440Y-88870000D01*
X160247440Y-88630000D01*
X160203162Y-88394683D01*
X160064090Y-88178559D01*
X159851890Y-88033569D01*
X159600000Y-87982560D01*
X157900000Y-87982560D01*
X157664683Y-88026838D01*
X157448559Y-88165910D01*
X157303569Y-88378110D01*
X157252560Y-88630000D01*
X157252560Y-90630000D01*
X157296838Y-90865317D01*
X157435910Y-91081441D01*
X157648110Y-91226431D01*
X157900000Y-91277440D01*
X159600000Y-91277440D01*
X159835317Y-91233162D01*
X160051441Y-91094090D01*
X160196431Y-90881890D01*
X160247440Y-90630000D01*
X160247440Y-90390000D01*
X179009126Y-90390000D01*
X179149273Y-90530392D01*
X179492801Y-90673038D01*
X179864767Y-90673362D01*
X180208543Y-90531317D01*
X180265800Y-90474160D01*
X180265800Y-92344398D01*
X178593294Y-94016904D01*
X178516917Y-93832057D01*
X178254127Y-93568808D01*
X177910599Y-93426162D01*
X177538633Y-93425838D01*
X177194857Y-93567883D01*
X176931608Y-93830673D01*
X176788962Y-94174201D01*
X176788638Y-94546167D01*
X176930683Y-94889943D01*
X177014600Y-94974007D01*
X177014600Y-101291537D01*
X176982408Y-101323673D01*
X176839762Y-101667201D01*
X176839438Y-102039167D01*
X176981483Y-102382943D01*
X177244273Y-102646192D01*
X177587801Y-102788838D01*
X177959767Y-102789162D01*
X178303543Y-102647117D01*
X178566792Y-102384327D01*
X178709438Y-102040799D01*
X178709762Y-101668833D01*
X178567717Y-101325057D01*
X178534600Y-101291882D01*
X178534600Y-96225202D01*
X181563201Y-93196601D01*
X181727948Y-92950039D01*
X181785800Y-92659200D01*
X181785800Y-89770967D01*
X183519638Y-89770967D01*
X183661683Y-90114743D01*
X183924473Y-90377992D01*
X184268001Y-90520638D01*
X184314877Y-90520679D01*
X185127889Y-91333691D01*
X185068857Y-91358083D01*
X184805608Y-91620873D01*
X184662962Y-91964401D01*
X184662638Y-92336367D01*
X184804683Y-92680143D01*
X185067473Y-92943392D01*
X185411001Y-93086038D01*
X185457877Y-93086079D01*
X185568399Y-93196601D01*
X185814961Y-93361348D01*
X186105800Y-93419200D01*
X188470000Y-93419200D01*
X188470000Y-97583491D01*
X188234608Y-97818473D01*
X188091962Y-98162001D01*
X188091638Y-98533967D01*
X188233683Y-98877743D01*
X188496473Y-99140992D01*
X188840001Y-99283638D01*
X189211967Y-99283962D01*
X189555743Y-99141917D01*
X189818992Y-98879127D01*
X189961638Y-98535599D01*
X189961854Y-98287096D01*
X189990000Y-98145600D01*
X189990000Y-90007440D01*
X190080000Y-90007440D01*
X190315317Y-89963162D01*
X190531441Y-89824090D01*
X190676431Y-89611890D01*
X190727440Y-89360000D01*
X190727440Y-87360000D01*
X190683162Y-87124683D01*
X190544090Y-86908559D01*
X190331890Y-86763569D01*
X190080000Y-86712560D01*
X188380000Y-86712560D01*
X188144683Y-86756838D01*
X187928559Y-86895910D01*
X187783569Y-87108110D01*
X187732560Y-87360000D01*
X187732560Y-89360000D01*
X187776838Y-89595317D01*
X187915910Y-89811441D01*
X188082748Y-89925436D01*
X187812057Y-90037283D01*
X187778882Y-90070400D01*
X186014202Y-90070400D01*
X185389922Y-89446120D01*
X185389962Y-89400633D01*
X185247917Y-89056857D01*
X184985127Y-88793608D01*
X184641599Y-88650962D01*
X184269633Y-88650638D01*
X183925857Y-88792683D01*
X183662608Y-89055473D01*
X183519962Y-89399001D01*
X183519638Y-89770967D01*
X181785800Y-89770967D01*
X181785800Y-86116002D01*
X184591802Y-83310000D01*
X187105198Y-83310000D01*
X187732560Y-83937362D01*
X187732560Y-85360000D01*
X187776838Y-85595317D01*
X187915910Y-85811441D01*
X188128110Y-85956431D01*
X188380000Y-86007440D01*
X190080000Y-86007440D01*
X190315317Y-85963162D01*
X190531441Y-85824090D01*
X190676431Y-85611890D01*
X190727440Y-85360000D01*
X190727440Y-83360000D01*
X190683162Y-83124683D01*
X190544090Y-82908559D01*
X190331890Y-82763569D01*
X190080000Y-82712560D01*
X188657362Y-82712560D01*
X188180000Y-82235198D01*
X188180000Y-81507440D01*
X188420000Y-81507440D01*
X188655317Y-81463162D01*
X188871441Y-81324090D01*
X189016431Y-81111890D01*
X189067440Y-80860000D01*
X189067440Y-79160000D01*
X189023162Y-78924683D01*
X188884090Y-78708559D01*
X188671890Y-78563569D01*
X188420000Y-78512560D01*
X186420000Y-78512560D01*
X186184683Y-78556838D01*
X185968559Y-78695910D01*
X185823569Y-78908110D01*
X185772560Y-79160000D01*
X185772560Y-80860000D01*
X185816838Y-81095317D01*
X185955910Y-81311441D01*
X186168110Y-81456431D01*
X186420000Y-81507440D01*
X186660000Y-81507440D01*
X186660000Y-81790000D01*
X184277000Y-81790000D01*
X183986161Y-81847852D01*
X183739599Y-82012599D01*
X180488399Y-85263799D01*
X180323652Y-85510361D01*
X180265800Y-85801200D01*
X180265800Y-89001979D01*
X180209927Y-88946008D01*
X179866399Y-88803362D01*
X179494433Y-88803038D01*
X179332372Y-88870000D01*
X170770078Y-88870000D01*
X170792918Y-88847200D01*
X172999400Y-88847200D01*
X173290239Y-88789348D01*
X173536801Y-88624601D01*
X177016601Y-85144801D01*
X177181348Y-84898240D01*
X177239200Y-84607400D01*
X177239200Y-83830002D01*
X179561762Y-81507440D01*
X180800000Y-81507440D01*
X181035317Y-81463162D01*
X181251441Y-81324090D01*
X181396431Y-81111890D01*
X181447440Y-80860000D01*
X181447440Y-80770000D01*
X181772560Y-80770000D01*
X181772560Y-80860000D01*
X181816838Y-81095317D01*
X181955910Y-81311441D01*
X182168110Y-81456431D01*
X182420000Y-81507440D01*
X184420000Y-81507440D01*
X184655317Y-81463162D01*
X184871441Y-81324090D01*
X185016431Y-81111890D01*
X185067440Y-80860000D01*
X185067440Y-79160000D01*
X185023162Y-78924683D01*
X184884090Y-78708559D01*
X184671890Y-78563569D01*
X184420000Y-78512560D01*
X182420000Y-78512560D01*
X182184683Y-78556838D01*
X181968559Y-78695910D01*
X181823569Y-78908110D01*
X181772560Y-79160000D01*
X181772560Y-79250000D01*
X181447440Y-79250000D01*
X181447440Y-79160000D01*
X181403162Y-78924683D01*
X181264090Y-78708559D01*
X181051890Y-78563569D01*
X180800000Y-78512560D01*
X178800000Y-78512560D01*
X178564683Y-78556838D01*
X178348559Y-78695910D01*
X178203569Y-78908110D01*
X178152560Y-79160000D01*
X178152560Y-80767038D01*
X175941799Y-82977799D01*
X175777052Y-83224361D01*
X175719200Y-83515200D01*
X175719200Y-84292598D01*
X172684598Y-87327200D01*
X170793263Y-87327200D01*
X170761127Y-87295008D01*
X170417599Y-87152362D01*
X170045633Y-87152038D01*
X169701857Y-87294083D01*
X169438608Y-87556873D01*
X169295962Y-87900401D01*
X169295638Y-88272367D01*
X169437683Y-88616143D01*
X169691097Y-88870000D01*
X166723600Y-88870000D01*
X166723600Y-88341200D01*
X166665748Y-88050361D01*
X166501001Y-87803799D01*
X165984322Y-87287120D01*
X165984362Y-87241633D01*
X165979033Y-87228736D01*
X166170801Y-87100601D01*
X169301002Y-83970400D01*
X169976800Y-83970400D01*
X170267639Y-83912548D01*
X170514201Y-83747801D01*
X172717401Y-81544601D01*
X172742231Y-81507440D01*
X173180000Y-81507440D01*
X173415317Y-81463162D01*
X173631441Y-81324090D01*
X173776431Y-81111890D01*
X173827440Y-80860000D01*
X173827440Y-80770000D01*
X174152560Y-80770000D01*
X174152560Y-80860000D01*
X174196838Y-81095317D01*
X174335910Y-81311441D01*
X174548110Y-81456431D01*
X174800000Y-81507440D01*
X176800000Y-81507440D01*
X177035317Y-81463162D01*
X177251441Y-81324090D01*
X177396431Y-81111890D01*
X177447440Y-80860000D01*
X177447440Y-79160000D01*
X177403162Y-78924683D01*
X177264090Y-78708559D01*
X177051890Y-78563569D01*
X176800000Y-78512560D01*
X174800000Y-78512560D01*
X174564683Y-78556838D01*
X174348559Y-78695910D01*
X174203569Y-78908110D01*
X174152560Y-79160000D01*
X174152560Y-79250000D01*
X173827440Y-79250000D01*
X173827440Y-79160000D01*
X173783162Y-78924683D01*
X173644090Y-78708559D01*
X173431890Y-78563569D01*
X173180000Y-78512560D01*
X171180000Y-78512560D01*
X170944683Y-78556838D01*
X170728559Y-78695910D01*
X170583569Y-78908110D01*
X170532560Y-79160000D01*
X170532560Y-80860000D01*
X170576838Y-81095317D01*
X170715910Y-81311441D01*
X170766435Y-81345963D01*
X169661998Y-82450400D01*
X168986200Y-82450400D01*
X168695360Y-82508252D01*
X168448799Y-82672999D01*
X165806514Y-85315284D01*
X165806562Y-85260433D01*
X165664517Y-84916657D01*
X165402800Y-84654483D01*
X165402800Y-84458663D01*
X165434992Y-84426527D01*
X165577638Y-84082999D01*
X165577869Y-83818000D01*
X165760400Y-83818000D01*
X166051239Y-83760148D01*
X166297801Y-83595401D01*
X168385762Y-81507440D01*
X169180000Y-81507440D01*
X169415317Y-81463162D01*
X169631441Y-81324090D01*
X169776431Y-81111890D01*
X169827440Y-80860000D01*
X169827440Y-79160000D01*
X169783162Y-78924683D01*
X169644090Y-78708559D01*
X169431890Y-78563569D01*
X169180000Y-78512560D01*
X167180000Y-78512560D01*
X166944683Y-78556838D01*
X166728559Y-78695910D01*
X166583569Y-78908110D01*
X166532560Y-79160000D01*
X166532560Y-80860000D01*
X166576838Y-81095317D01*
X166604811Y-81138787D01*
X165445598Y-82298000D01*
X156184600Y-82298000D01*
X155893760Y-82355852D01*
X155647199Y-82520599D01*
X154300999Y-83866799D01*
X154136252Y-84113361D01*
X154078400Y-84404200D01*
X154078400Y-87499337D01*
X154046208Y-87531473D01*
X153903562Y-87875001D01*
X153903238Y-88246967D01*
X152627440Y-88246967D01*
X152627440Y-87360000D01*
X152583162Y-87124683D01*
X152444090Y-86908559D01*
X152231890Y-86763569D01*
X151980000Y-86712560D01*
X150280000Y-86712560D01*
X150044683Y-86756838D01*
X150003398Y-86783404D01*
X150779362Y-86007440D01*
X151980000Y-86007440D01*
X152215317Y-85963162D01*
X152431441Y-85824090D01*
X152576431Y-85611890D01*
X152627440Y-85360000D01*
X152627440Y-83360000D01*
X152583162Y-83124683D01*
X152444090Y-82908559D01*
X152231890Y-82763569D01*
X151980000Y-82712560D01*
X150557362Y-82712560D01*
X148427440Y-80582638D01*
X148427440Y-79980907D01*
X153455000Y-79980907D01*
X153455000Y-80039093D01*
X153568039Y-80607378D01*
X153889946Y-81089147D01*
X154371715Y-81411054D01*
X154940000Y-81524093D01*
X155508285Y-81411054D01*
X155990054Y-81089147D01*
X156217702Y-80748447D01*
X156284817Y-80891358D01*
X156713076Y-81281645D01*
X157123110Y-81451476D01*
X157353000Y-81330155D01*
X157353000Y-80137000D01*
X157333000Y-80137000D01*
X157333000Y-79883000D01*
X157353000Y-79883000D01*
X157353000Y-78689845D01*
X157607000Y-78689845D01*
X157607000Y-79883000D01*
X157627000Y-79883000D01*
X157627000Y-80137000D01*
X157607000Y-80137000D01*
X157607000Y-81330155D01*
X157836890Y-81451476D01*
X158246924Y-81281645D01*
X158675183Y-80891358D01*
X158742298Y-80748447D01*
X158969946Y-81089147D01*
X159451715Y-81411054D01*
X160020000Y-81524093D01*
X160588285Y-81411054D01*
X161070054Y-81089147D01*
X161097850Y-81047548D01*
X161106838Y-81095317D01*
X161245910Y-81311441D01*
X161458110Y-81456431D01*
X161710000Y-81507440D01*
X163410000Y-81507440D01*
X163645317Y-81463162D01*
X163861441Y-81324090D01*
X164006431Y-81111890D01*
X164057440Y-80860000D01*
X164057440Y-79160000D01*
X164013162Y-78924683D01*
X163874090Y-78708559D01*
X163661890Y-78563569D01*
X163410000Y-78512560D01*
X161710000Y-78512560D01*
X161474683Y-78556838D01*
X161258559Y-78695910D01*
X161113569Y-78908110D01*
X161099914Y-78975541D01*
X161070054Y-78930853D01*
X160588285Y-78608946D01*
X160020000Y-78495907D01*
X159451715Y-78608946D01*
X158969946Y-78930853D01*
X158742298Y-79271553D01*
X158675183Y-79128642D01*
X158246924Y-78738355D01*
X157836890Y-78568524D01*
X157607000Y-78689845D01*
X157353000Y-78689845D01*
X157123110Y-78568524D01*
X156713076Y-78738355D01*
X156284817Y-79128642D01*
X156217702Y-79271553D01*
X155990054Y-78930853D01*
X155508285Y-78608946D01*
X154940000Y-78495907D01*
X154371715Y-78608946D01*
X153889946Y-78930853D01*
X153568039Y-79412622D01*
X153455000Y-79980907D01*
X148427440Y-79980907D01*
X148427440Y-79160000D01*
X148383162Y-78924683D01*
X148244090Y-78708559D01*
X148031890Y-78563569D01*
X147780000Y-78512560D01*
X145780000Y-78512560D01*
X145544683Y-78556838D01*
X145328559Y-78695910D01*
X145183569Y-78908110D01*
X145132560Y-79160000D01*
X145132560Y-80860000D01*
X145176838Y-81095317D01*
X145315910Y-81311441D01*
X145528110Y-81456431D01*
X145780000Y-81507440D01*
X147202638Y-81507440D01*
X149632560Y-83937362D01*
X149632560Y-85004638D01*
X148678920Y-85958278D01*
X148633433Y-85958238D01*
X148289657Y-86100283D01*
X148026408Y-86363073D01*
X147883762Y-86706601D01*
X147883438Y-87078567D01*
X148025483Y-87422343D01*
X148288273Y-87685592D01*
X148631801Y-87828238D01*
X149003767Y-87828562D01*
X149347543Y-87686517D01*
X149610792Y-87423727D01*
X149632560Y-87371304D01*
X149632560Y-89360000D01*
X149676838Y-89595317D01*
X149815910Y-89811441D01*
X150028110Y-89956431D01*
X150280000Y-90007440D01*
X150370000Y-90007440D01*
X150370000Y-91617800D01*
X150427852Y-91908639D01*
X150592599Y-92155201D01*
X153113200Y-94675802D01*
X153113200Y-96344464D01*
X153111890Y-96343569D01*
X152860000Y-96292560D01*
X150860000Y-96292560D01*
X150624683Y-96336838D01*
X150594600Y-96356196D01*
X150594600Y-95533063D01*
X150626792Y-95500927D01*
X150769438Y-95157399D01*
X150769762Y-94785433D01*
X150627717Y-94441657D01*
X150364927Y-94178408D01*
X150021399Y-94035762D01*
X149649433Y-94035438D01*
X149305657Y-94177483D01*
X149042408Y-94440273D01*
X148899762Y-94783801D01*
X148899438Y-95155767D01*
X149041483Y-95499543D01*
X149074600Y-95532718D01*
X149074600Y-96336018D01*
X148860000Y-96292560D01*
X146860000Y-96292560D01*
X146624683Y-96336838D01*
X146408559Y-96475910D01*
X146263569Y-96688110D01*
X146212560Y-96940000D01*
X146212560Y-97030000D01*
X146187002Y-97030000D01*
X145387600Y-96230598D01*
X145387600Y-92364402D01*
X146047401Y-91704601D01*
X146072231Y-91667440D01*
X146510000Y-91667440D01*
X146745317Y-91623162D01*
X146961441Y-91484090D01*
X147106431Y-91271890D01*
X147157440Y-91020000D01*
X147157440Y-89320000D01*
X147113162Y-89084683D01*
X146974090Y-88868559D01*
X146761890Y-88723569D01*
X146510000Y-88672560D01*
X144510000Y-88672560D01*
X144274683Y-88716838D01*
X144058559Y-88855910D01*
X143913569Y-89068110D01*
X143862560Y-89320000D01*
X143157440Y-89320000D01*
X143113162Y-89084683D01*
X142974090Y-88868559D01*
X142761890Y-88723569D01*
X142510000Y-88672560D01*
X140510000Y-88672560D01*
X140274683Y-88716838D01*
X140058559Y-88855910D01*
X139913569Y-89068110D01*
X139862560Y-89320000D01*
X121360000Y-89320000D01*
X121360000Y-83954367D01*
X123601038Y-83954367D01*
X123743083Y-84298143D01*
X124005873Y-84561392D01*
X124349401Y-84704038D01*
X124721367Y-84704362D01*
X125065143Y-84562317D01*
X125277713Y-84350118D01*
X125277438Y-84665567D01*
X125419483Y-85009343D01*
X125682273Y-85272592D01*
X126025801Y-85415238D01*
X126397767Y-85415562D01*
X126741543Y-85273517D01*
X126774718Y-85240400D01*
X127326847Y-85240400D01*
X127536473Y-85450392D01*
X127880001Y-85593038D01*
X128251967Y-85593362D01*
X128595743Y-85451317D01*
X128858992Y-85188527D01*
X129001638Y-84844999D01*
X129001962Y-84473033D01*
X128859917Y-84129257D01*
X128728602Y-83997713D01*
X128960592Y-83766127D01*
X129103238Y-83422599D01*
X129103562Y-83050633D01*
X128961517Y-82706857D01*
X128698727Y-82443608D01*
X128355199Y-82300962D01*
X128287499Y-82300903D01*
X128103639Y-82178052D01*
X127812800Y-82120200D01*
X125425200Y-82120200D01*
X125134361Y-82178052D01*
X124887799Y-82342799D01*
X124396520Y-82834078D01*
X124351033Y-82834038D01*
X124007257Y-82976083D01*
X123744008Y-83238873D01*
X123601362Y-83582401D01*
X123601038Y-83954367D01*
X121360000Y-83954367D01*
X121360000Y-81695312D01*
X121417954Y-81782046D01*
X122230976Y-82325289D01*
X123190000Y-82516051D01*
X124149024Y-82325289D01*
X124962046Y-81782046D01*
X125505289Y-80969024D01*
X125696051Y-80010000D01*
X125526976Y-79160000D01*
X125892560Y-79160000D01*
X125892560Y-80860000D01*
X125936838Y-81095317D01*
X126075910Y-81311441D01*
X126288110Y-81456431D01*
X126540000Y-81507440D01*
X128540000Y-81507440D01*
X128775317Y-81463162D01*
X128991441Y-81324090D01*
X129136431Y-81111890D01*
X129187440Y-80860000D01*
X129187440Y-79160000D01*
X129892560Y-79160000D01*
X129892560Y-80860000D01*
X129936838Y-81095317D01*
X130075910Y-81311441D01*
X130288110Y-81456431D01*
X130540000Y-81507440D01*
X130780000Y-81507440D01*
X130780000Y-87725000D01*
X130837852Y-88015839D01*
X130890926Y-88095270D01*
X130890838Y-88196167D01*
X131032883Y-88539943D01*
X131295673Y-88803192D01*
X131639201Y-88945838D01*
X132011167Y-88946162D01*
X132354943Y-88804117D01*
X132618192Y-88541327D01*
X132760838Y-88197799D01*
X132761162Y-87825833D01*
X132619117Y-87482057D01*
X132356327Y-87218808D01*
X132300000Y-87195419D01*
X132300000Y-81507440D01*
X132540000Y-81507440D01*
X132775317Y-81463162D01*
X132991441Y-81324090D01*
X133136431Y-81111890D01*
X133187440Y-80860000D01*
X133187440Y-80770000D01*
X133512560Y-80770000D01*
X133512560Y-80860000D01*
X133556838Y-81095317D01*
X133695910Y-81311441D01*
X133908110Y-81456431D01*
X134160000Y-81507440D01*
X136160000Y-81507440D01*
X136395317Y-81463162D01*
X136611441Y-81324090D01*
X136756431Y-81111890D01*
X136807440Y-80860000D01*
X136807440Y-79160000D01*
X137512560Y-79160000D01*
X137512560Y-80860000D01*
X137556838Y-81095317D01*
X137695910Y-81311441D01*
X137908110Y-81456431D01*
X138160000Y-81507440D01*
X138400000Y-81507440D01*
X138400000Y-87521800D01*
X138457852Y-87812639D01*
X138622599Y-88059201D01*
X138688678Y-88125280D01*
X138688638Y-88170767D01*
X138830683Y-88514543D01*
X139093473Y-88777792D01*
X139437001Y-88920438D01*
X139808967Y-88920762D01*
X140152743Y-88778717D01*
X140415992Y-88515927D01*
X140558638Y-88172399D01*
X140558962Y-87800433D01*
X140416917Y-87456657D01*
X140154127Y-87193408D01*
X139920000Y-87096189D01*
X139920000Y-81507440D01*
X140160000Y-81507440D01*
X140395317Y-81463162D01*
X140611441Y-81324090D01*
X140756431Y-81111890D01*
X140807440Y-80860000D01*
X140807440Y-80770000D01*
X141132560Y-80770000D01*
X141132560Y-80860000D01*
X141176838Y-81095317D01*
X141315910Y-81311441D01*
X141528110Y-81456431D01*
X141780000Y-81507440D01*
X143780000Y-81507440D01*
X144015317Y-81463162D01*
X144231441Y-81324090D01*
X144376431Y-81111890D01*
X144427440Y-80860000D01*
X144427440Y-79160000D01*
X144383162Y-78924683D01*
X144244090Y-78708559D01*
X144031890Y-78563569D01*
X143780000Y-78512560D01*
X141780000Y-78512560D01*
X141544683Y-78556838D01*
X141328559Y-78695910D01*
X141183569Y-78908110D01*
X141132560Y-79160000D01*
X141132560Y-79250000D01*
X140807440Y-79250000D01*
X140807440Y-79160000D01*
X140763162Y-78924683D01*
X140624090Y-78708559D01*
X140411890Y-78563569D01*
X140160000Y-78512560D01*
X138160000Y-78512560D01*
X137924683Y-78556838D01*
X137708559Y-78695910D01*
X137563569Y-78908110D01*
X137512560Y-79160000D01*
X136807440Y-79160000D01*
X136763162Y-78924683D01*
X136624090Y-78708559D01*
X136411890Y-78563569D01*
X136160000Y-78512560D01*
X134160000Y-78512560D01*
X133924683Y-78556838D01*
X133708559Y-78695910D01*
X133563569Y-78908110D01*
X133512560Y-79160000D01*
X133512560Y-79250000D01*
X133187440Y-79250000D01*
X133187440Y-79160000D01*
X133143162Y-78924683D01*
X133004090Y-78708559D01*
X132791890Y-78563569D01*
X132540000Y-78512560D01*
X130540000Y-78512560D01*
X130304683Y-78556838D01*
X130088559Y-78695910D01*
X129943569Y-78908110D01*
X129892560Y-79160000D01*
X129187440Y-79160000D01*
X129143162Y-78924683D01*
X129004090Y-78708559D01*
X128791890Y-78563569D01*
X128540000Y-78512560D01*
X126540000Y-78512560D01*
X126304683Y-78556838D01*
X126088559Y-78695910D01*
X125943569Y-78908110D01*
X125892560Y-79160000D01*
X125526976Y-79160000D01*
X125505289Y-79050976D01*
X124962046Y-78237954D01*
X124875312Y-78180000D01*
X193894688Y-78180000D01*
X193807954Y-78237954D01*
X193807954Y-78237954D01*
G37*
X193807954Y-78237954D02*
X193264711Y-79050976D01*
X193073949Y-80010000D01*
X193264711Y-80969024D01*
X193807954Y-81782046D01*
X194620976Y-82325289D01*
X195580000Y-82516051D01*
X196539024Y-82325289D01*
X197352046Y-81782046D01*
X197410000Y-81695312D01*
X197410000Y-108804688D01*
X197352046Y-108717954D01*
X196539024Y-108174711D01*
X195580000Y-107983949D01*
X194620976Y-108174711D01*
X193807954Y-108717954D01*
X193264711Y-109530976D01*
X193073949Y-110490000D01*
X193264711Y-111449024D01*
X193807954Y-112262046D01*
X193894688Y-112320000D01*
X124875312Y-112320000D01*
X124962046Y-112262046D01*
X125505289Y-111449024D01*
X125696051Y-110490000D01*
X125505289Y-109530976D01*
X124962046Y-108717954D01*
X124149024Y-108174711D01*
X123190000Y-107983949D01*
X122230976Y-108174711D01*
X121417954Y-108717954D01*
X121360000Y-108804688D01*
X121360000Y-98406967D01*
X131170238Y-98406967D01*
X131312283Y-98750743D01*
X131575073Y-99013992D01*
X131918601Y-99156638D01*
X132290567Y-99156962D01*
X132634343Y-99014917D01*
X132897592Y-98752127D01*
X133040238Y-98408599D01*
X133040279Y-98361723D01*
X133669500Y-97732502D01*
X133669500Y-97955100D01*
X133727352Y-98245939D01*
X133892099Y-98492501D01*
X136095200Y-100695602D01*
X136095200Y-105003600D01*
X136153052Y-105294439D01*
X136317799Y-105541001D01*
X138409278Y-107632480D01*
X138409238Y-107677967D01*
X138551283Y-108021743D01*
X138814073Y-108284992D01*
X139157601Y-108427638D01*
X139529567Y-108427962D01*
X139873343Y-108285917D01*
X140136592Y-108023127D01*
X140279238Y-107679599D01*
X140279562Y-107307633D01*
X140137517Y-106963857D01*
X139874727Y-106700608D01*
X139531199Y-106557962D01*
X139484323Y-106557921D01*
X137615200Y-104688798D01*
X137615200Y-100380800D01*
X137557348Y-100089961D01*
X137392601Y-99843399D01*
X135189500Y-97640298D01*
X135189500Y-95948847D01*
X135202200Y-95885000D01*
X135202200Y-95641002D01*
X135648680Y-95194522D01*
X135694167Y-95194562D01*
X136037943Y-95052517D01*
X136301192Y-94789727D01*
X136443838Y-94446199D01*
X136444162Y-94074233D01*
X136302117Y-93730457D01*
X136039327Y-93467208D01*
X135695799Y-93324562D01*
X135323833Y-93324238D01*
X134980057Y-93466283D01*
X134716808Y-93729073D01*
X134574162Y-94072601D01*
X134574121Y-94119477D01*
X133904799Y-94788799D01*
X133740052Y-95035361D01*
X133682200Y-95326200D01*
X133682200Y-95570198D01*
X131965720Y-97286678D01*
X131920233Y-97286638D01*
X131576457Y-97428683D01*
X131313208Y-97691473D01*
X131170562Y-98035001D01*
X131170238Y-98406967D01*
X121360000Y-98406967D01*
X121360000Y-92920567D01*
X138942638Y-92920567D01*
X139084683Y-93264343D01*
X139162792Y-93342589D01*
X139175652Y-93407239D01*
X139340399Y-93653801D01*
X139797599Y-94111001D01*
X140044160Y-94275748D01*
X140092414Y-94285346D01*
X140335000Y-94333600D01*
X142013400Y-94333600D01*
X142013400Y-99138200D01*
X140541863Y-99138200D01*
X140509727Y-99106008D01*
X140166199Y-98963362D01*
X139794233Y-98963038D01*
X139450457Y-99105083D01*
X139187208Y-99367873D01*
X139044562Y-99711401D01*
X139044238Y-100083367D01*
X139186283Y-100427143D01*
X139449073Y-100690392D01*
X139792601Y-100833038D01*
X140164567Y-100833362D01*
X140508343Y-100691317D01*
X140541518Y-100658200D01*
X141925198Y-100658200D01*
X142013400Y-100746402D01*
X142013400Y-104698800D01*
X142071252Y-104989639D01*
X142235999Y-105236201D01*
X142752678Y-105752880D01*
X142752638Y-105798367D01*
X142894683Y-106142143D01*
X143157473Y-106405392D01*
X143501001Y-106548038D01*
X143872967Y-106548362D01*
X144216743Y-106406317D01*
X144479992Y-106143527D01*
X144622638Y-105799999D01*
X144622962Y-105428033D01*
X144480917Y-105084257D01*
X144218127Y-104821008D01*
X143874599Y-104678362D01*
X143827723Y-104678321D01*
X143709402Y-104560000D01*
X177962560Y-104560000D01*
X177962560Y-106260000D01*
X178006838Y-106495317D01*
X178145910Y-106711441D01*
X178358110Y-106856431D01*
X178610000Y-106907440D01*
X180076838Y-106907440D01*
X182952199Y-109782801D01*
X183198761Y-109947548D01*
X183489600Y-110005400D01*
X184882937Y-110005400D01*
X184915073Y-110037592D01*
X185258601Y-110180238D01*
X185630567Y-110180562D01*
X185974343Y-110038517D01*
X186237592Y-109775727D01*
X186380238Y-109432199D01*
X186380562Y-109060233D01*
X186238517Y-108716457D01*
X185975727Y-108453208D01*
X185632199Y-108310562D01*
X185260233Y-108310238D01*
X184916457Y-108452283D01*
X184883282Y-108485400D01*
X183804402Y-108485400D01*
X181257440Y-105938438D01*
X181257440Y-104560000D01*
X181962560Y-104560000D01*
X181962560Y-106260000D01*
X182006838Y-106495317D01*
X182145910Y-106711441D01*
X182358110Y-106856431D01*
X182610000Y-106907440D01*
X184610000Y-106907440D01*
X184845317Y-106863162D01*
X185061441Y-106724090D01*
X185206431Y-106511890D01*
X185257440Y-106260000D01*
X185257440Y-105910762D01*
X186008201Y-105160001D01*
X186172948Y-104913439D01*
X186230800Y-104622600D01*
X186230800Y-102086263D01*
X186262992Y-102054127D01*
X186405638Y-101710599D01*
X186405962Y-101338633D01*
X186263917Y-100994857D01*
X186001127Y-100731608D01*
X185657599Y-100588962D01*
X185285633Y-100588638D01*
X184941857Y-100730683D01*
X184678608Y-100993473D01*
X184535962Y-101337001D01*
X184535638Y-101708967D01*
X184677683Y-102052743D01*
X184710800Y-102085918D01*
X184710800Y-103932973D01*
X184610000Y-103912560D01*
X182610000Y-103912560D01*
X182374683Y-103956838D01*
X182158559Y-104095910D01*
X182013569Y-104308110D01*
X181962560Y-104560000D01*
X181257440Y-104560000D01*
X181213162Y-104324683D01*
X181074090Y-104108559D01*
X180861890Y-103963569D01*
X180610000Y-103912560D01*
X178610000Y-103912560D01*
X178374683Y-103956838D01*
X178158559Y-104095910D01*
X178013569Y-104308110D01*
X177962560Y-104560000D01*
X143709402Y-104560000D01*
X143533400Y-104383998D01*
X143533400Y-93827600D01*
X143513802Y-93729073D01*
X143475548Y-93536760D01*
X143310801Y-93290199D01*
X143056801Y-93036199D01*
X142810239Y-92871452D01*
X142519400Y-92813600D01*
X140812733Y-92813600D01*
X140812962Y-92550233D01*
X140670917Y-92206457D01*
X140408127Y-91943208D01*
X140064599Y-91800562D01*
X139692633Y-91800238D01*
X139348857Y-91942283D01*
X139085608Y-92205073D01*
X138942962Y-92548601D01*
X138942638Y-92920567D01*
X121360000Y-92920567D01*
X121360000Y-89320000D01*
X139862560Y-89320000D01*
X139862560Y-91020000D01*
X139906838Y-91255317D01*
X140045910Y-91471441D01*
X140258110Y-91616431D01*
X140510000Y-91667440D01*
X142510000Y-91667440D01*
X142745317Y-91623162D01*
X142961441Y-91484090D01*
X143106431Y-91271890D01*
X143157440Y-91020000D01*
X143157440Y-89320000D01*
X143862560Y-89320000D01*
X143862560Y-91020000D01*
X143906838Y-91255317D01*
X144045910Y-91471441D01*
X144096435Y-91505963D01*
X144090199Y-91512199D01*
X143925452Y-91758761D01*
X143867600Y-92049600D01*
X143867600Y-96545400D01*
X143925452Y-96836239D01*
X144090199Y-97082801D01*
X145334799Y-98327401D01*
X145581360Y-98492148D01*
X145872200Y-98550000D01*
X146212560Y-98550000D01*
X146212560Y-98640000D01*
X146256838Y-98875317D01*
X146395910Y-99091441D01*
X146608110Y-99236431D01*
X146860000Y-99287440D01*
X148754219Y-99287440D01*
X148620362Y-99609801D01*
X148620038Y-99981767D01*
X148762083Y-100325543D01*
X149024873Y-100588792D01*
X149368401Y-100731438D01*
X149740367Y-100731762D01*
X150084143Y-100589717D01*
X150347392Y-100326927D01*
X150490038Y-99983399D01*
X150490362Y-99611433D01*
X150355108Y-99284094D01*
X150372001Y-99267201D01*
X150460124Y-99135316D01*
X150608110Y-99236431D01*
X150860000Y-99287440D01*
X152860000Y-99287440D01*
X153095317Y-99243162D01*
X153311441Y-99104090D01*
X153456431Y-98891890D01*
X153507440Y-98640000D01*
X153507440Y-98550000D01*
X155102560Y-98550000D01*
X155102560Y-98640000D01*
X155146838Y-98875317D01*
X155285910Y-99091441D01*
X155498110Y-99236431D01*
X155750000Y-99287440D01*
X156988238Y-99287440D01*
X159939799Y-102239001D01*
X160186361Y-102403748D01*
X160477200Y-102461600D01*
X161787213Y-102461600D01*
X161817683Y-102535343D01*
X162080473Y-102798592D01*
X162424001Y-102941238D01*
X162795967Y-102941562D01*
X163139743Y-102799517D01*
X163402992Y-102536727D01*
X163545638Y-102193199D01*
X163545962Y-101821233D01*
X163403917Y-101477457D01*
X163141127Y-101214208D01*
X162797599Y-101071562D01*
X162704638Y-101071481D01*
X162596839Y-100999452D01*
X162306000Y-100941600D01*
X160792002Y-100941600D01*
X159857569Y-100007167D01*
X161878838Y-100007167D01*
X162020883Y-100350943D01*
X162283673Y-100614192D01*
X162627201Y-100756838D01*
X162999167Y-100757162D01*
X163342943Y-100615117D01*
X163376118Y-100582000D01*
X164236400Y-100582000D01*
X164527239Y-100524148D01*
X164773801Y-100359401D01*
X165075235Y-100057967D01*
X169219438Y-100057967D01*
X169361483Y-100401743D01*
X169624273Y-100664992D01*
X169967801Y-100807638D01*
X170339767Y-100807962D01*
X170683543Y-100665917D01*
X170946792Y-100403127D01*
X171089438Y-100059599D01*
X171089762Y-99687633D01*
X170947717Y-99343857D01*
X170914600Y-99310682D01*
X170914600Y-95024974D01*
X170997592Y-94942127D01*
X171140238Y-94598599D01*
X171140562Y-94226633D01*
X170998517Y-93882857D01*
X170735727Y-93619608D01*
X170392199Y-93476962D01*
X170020233Y-93476638D01*
X169676457Y-93618683D01*
X169413208Y-93881473D01*
X169270562Y-94225001D01*
X169270238Y-94596967D01*
X169394600Y-94897947D01*
X169394600Y-99310337D01*
X169362408Y-99342473D01*
X169219762Y-99686001D01*
X169219438Y-100057967D01*
X165075235Y-100057967D01*
X166577201Y-98556001D01*
X166741948Y-98309439D01*
X166799800Y-98018600D01*
X166799800Y-94970600D01*
X166746499Y-94702639D01*
X166741948Y-94679760D01*
X166577201Y-94433199D01*
X166517722Y-94373720D01*
X166517762Y-94328233D01*
X166375717Y-93984457D01*
X166112927Y-93721208D01*
X165769399Y-93578562D01*
X165397433Y-93578238D01*
X165053657Y-93720283D01*
X164790408Y-93983073D01*
X164647762Y-94326601D01*
X164647438Y-94698567D01*
X164789483Y-95042343D01*
X165052273Y-95305592D01*
X165279800Y-95400070D01*
X165279800Y-97703798D01*
X163921598Y-99062000D01*
X163376463Y-99062000D01*
X163344327Y-99029808D01*
X163000799Y-98887162D01*
X162628833Y-98886838D01*
X162285057Y-99028883D01*
X162021808Y-99291673D01*
X161879162Y-99635201D01*
X161878838Y-100007167D01*
X159857569Y-100007167D01*
X158397440Y-98547038D01*
X158397440Y-98075750D01*
X159115000Y-98075750D01*
X159115000Y-98766310D01*
X159211673Y-98999699D01*
X159390302Y-99178327D01*
X159623691Y-99275000D01*
X160464250Y-99275000D01*
X160623000Y-99116250D01*
X160623000Y-97917000D01*
X160877000Y-97917000D01*
X160877000Y-99116250D01*
X161035750Y-99275000D01*
X161876309Y-99275000D01*
X162109698Y-99178327D01*
X162288327Y-98999699D01*
X162385000Y-98766310D01*
X162385000Y-98075750D01*
X162226250Y-97917000D01*
X160877000Y-97917000D01*
X160623000Y-97917000D01*
X159273750Y-97917000D01*
X159115000Y-98075750D01*
X158397440Y-98075750D01*
X158397440Y-96940000D01*
X158373674Y-96813690D01*
X159115000Y-96813690D01*
X159115000Y-97504250D01*
X159273750Y-97663000D01*
X160623000Y-97663000D01*
X160623000Y-96463750D01*
X160877000Y-96463750D01*
X160877000Y-97663000D01*
X162226250Y-97663000D01*
X162385000Y-97504250D01*
X162385000Y-96813690D01*
X162288327Y-96580301D01*
X162109698Y-96401673D01*
X161876309Y-96305000D01*
X161035750Y-96305000D01*
X160877000Y-96463750D01*
X160623000Y-96463750D01*
X160464250Y-96305000D01*
X159623691Y-96305000D01*
X159390302Y-96401673D01*
X159211673Y-96580301D01*
X159115000Y-96813690D01*
X158373674Y-96813690D01*
X158353162Y-96704683D01*
X158214090Y-96488559D01*
X158001890Y-96343569D01*
X157750000Y-96292560D01*
X155750000Y-96292560D01*
X155514683Y-96336838D01*
X155298559Y-96475910D01*
X155153569Y-96688110D01*
X155102560Y-96940000D01*
X155102560Y-97030000D01*
X154985999Y-97030000D01*
X154986162Y-96842833D01*
X154844117Y-96499057D01*
X154633200Y-96287772D01*
X154633200Y-94361000D01*
X154575348Y-94070161D01*
X154410601Y-93823599D01*
X151890000Y-91302998D01*
X151890000Y-90007440D01*
X151980000Y-90007440D01*
X152215317Y-89963162D01*
X152431441Y-89824090D01*
X152576431Y-89611890D01*
X152627440Y-89360000D01*
X152627440Y-88246967D01*
X153903238Y-88246967D01*
X154045283Y-88590743D01*
X154308073Y-88853992D01*
X154651601Y-88996638D01*
X155023567Y-88996962D01*
X155367343Y-88854917D01*
X155630592Y-88592127D01*
X155773238Y-88248599D01*
X155773562Y-87876633D01*
X155631517Y-87532857D01*
X155598400Y-87499682D01*
X155598400Y-84719002D01*
X156499402Y-83818000D01*
X159669245Y-83818000D01*
X159669090Y-83996551D01*
X159600000Y-83982560D01*
X157900000Y-83982560D01*
X157664683Y-84026838D01*
X157448559Y-84165910D01*
X157303569Y-84378110D01*
X157252560Y-84630000D01*
X157252560Y-86630000D01*
X157296838Y-86865317D01*
X157435910Y-87081441D01*
X157648110Y-87226431D01*
X157900000Y-87277440D01*
X159600000Y-87277440D01*
X159835317Y-87233162D01*
X160051441Y-87094090D01*
X160196431Y-86881890D01*
X160247440Y-86630000D01*
X160247440Y-86390000D01*
X160445200Y-86390000D01*
X160736039Y-86332148D01*
X160982601Y-86167401D01*
X161141601Y-86008401D01*
X161306348Y-85761839D01*
X161364200Y-85471000D01*
X161364200Y-84433263D01*
X161396392Y-84401127D01*
X161539038Y-84057599D01*
X161539247Y-83818000D01*
X163707867Y-83818000D01*
X163707638Y-84081367D01*
X163849683Y-84425143D01*
X163882800Y-84458318D01*
X163882800Y-85217000D01*
X163936364Y-85486281D01*
X163936238Y-85630767D01*
X164011368Y-85812595D01*
X163767760Y-85861052D01*
X163521199Y-86025799D01*
X162471120Y-87075878D01*
X162425633Y-87075838D01*
X162081857Y-87217883D01*
X161818608Y-87480673D01*
X161675962Y-87824201D01*
X161675638Y-88196167D01*
X161817683Y-88539943D01*
X162080473Y-88803192D01*
X162241364Y-88870000D01*
X160247440Y-88870000D01*
X160247440Y-88630000D01*
X160203162Y-88394683D01*
X160064090Y-88178559D01*
X159851890Y-88033569D01*
X159600000Y-87982560D01*
X157900000Y-87982560D01*
X157664683Y-88026838D01*
X157448559Y-88165910D01*
X157303569Y-88378110D01*
X157252560Y-88630000D01*
X157252560Y-90630000D01*
X157296838Y-90865317D01*
X157435910Y-91081441D01*
X157648110Y-91226431D01*
X157900000Y-91277440D01*
X159600000Y-91277440D01*
X159835317Y-91233162D01*
X160051441Y-91094090D01*
X160196431Y-90881890D01*
X160247440Y-90630000D01*
X160247440Y-90390000D01*
X179009126Y-90390000D01*
X179149273Y-90530392D01*
X179492801Y-90673038D01*
X179864767Y-90673362D01*
X180208543Y-90531317D01*
X180265800Y-90474160D01*
X180265800Y-92344398D01*
X178593294Y-94016904D01*
X178516917Y-93832057D01*
X178254127Y-93568808D01*
X177910599Y-93426162D01*
X177538633Y-93425838D01*
X177194857Y-93567883D01*
X176931608Y-93830673D01*
X176788962Y-94174201D01*
X176788638Y-94546167D01*
X176930683Y-94889943D01*
X177014600Y-94974007D01*
X177014600Y-101291537D01*
X176982408Y-101323673D01*
X176839762Y-101667201D01*
X176839438Y-102039167D01*
X176981483Y-102382943D01*
X177244273Y-102646192D01*
X177587801Y-102788838D01*
X177959767Y-102789162D01*
X178303543Y-102647117D01*
X178566792Y-102384327D01*
X178709438Y-102040799D01*
X178709762Y-101668833D01*
X178567717Y-101325057D01*
X178534600Y-101291882D01*
X178534600Y-96225202D01*
X181563201Y-93196601D01*
X181727948Y-92950039D01*
X181785800Y-92659200D01*
X181785800Y-89770967D01*
X183519638Y-89770967D01*
X183661683Y-90114743D01*
X183924473Y-90377992D01*
X184268001Y-90520638D01*
X184314877Y-90520679D01*
X185127889Y-91333691D01*
X185068857Y-91358083D01*
X184805608Y-91620873D01*
X184662962Y-91964401D01*
X184662638Y-92336367D01*
X184804683Y-92680143D01*
X185067473Y-92943392D01*
X185411001Y-93086038D01*
X185457877Y-93086079D01*
X185568399Y-93196601D01*
X185814961Y-93361348D01*
X186105800Y-93419200D01*
X188470000Y-93419200D01*
X188470000Y-97583491D01*
X188234608Y-97818473D01*
X188091962Y-98162001D01*
X188091638Y-98533967D01*
X188233683Y-98877743D01*
X188496473Y-99140992D01*
X188840001Y-99283638D01*
X189211967Y-99283962D01*
X189555743Y-99141917D01*
X189818992Y-98879127D01*
X189961638Y-98535599D01*
X189961854Y-98287096D01*
X189990000Y-98145600D01*
X189990000Y-90007440D01*
X190080000Y-90007440D01*
X190315317Y-89963162D01*
X190531441Y-89824090D01*
X190676431Y-89611890D01*
X190727440Y-89360000D01*
X190727440Y-87360000D01*
X190683162Y-87124683D01*
X190544090Y-86908559D01*
X190331890Y-86763569D01*
X190080000Y-86712560D01*
X188380000Y-86712560D01*
X188144683Y-86756838D01*
X187928559Y-86895910D01*
X187783569Y-87108110D01*
X187732560Y-87360000D01*
X187732560Y-89360000D01*
X187776838Y-89595317D01*
X187915910Y-89811441D01*
X188082748Y-89925436D01*
X187812057Y-90037283D01*
X187778882Y-90070400D01*
X186014202Y-90070400D01*
X185389922Y-89446120D01*
X185389962Y-89400633D01*
X185247917Y-89056857D01*
X184985127Y-88793608D01*
X184641599Y-88650962D01*
X184269633Y-88650638D01*
X183925857Y-88792683D01*
X183662608Y-89055473D01*
X183519962Y-89399001D01*
X183519638Y-89770967D01*
X181785800Y-89770967D01*
X181785800Y-86116002D01*
X184591802Y-83310000D01*
X187105198Y-83310000D01*
X187732560Y-83937362D01*
X187732560Y-85360000D01*
X187776838Y-85595317D01*
X187915910Y-85811441D01*
X188128110Y-85956431D01*
X188380000Y-86007440D01*
X190080000Y-86007440D01*
X190315317Y-85963162D01*
X190531441Y-85824090D01*
X190676431Y-85611890D01*
X190727440Y-85360000D01*
X190727440Y-83360000D01*
X190683162Y-83124683D01*
X190544090Y-82908559D01*
X190331890Y-82763569D01*
X190080000Y-82712560D01*
X188657362Y-82712560D01*
X188180000Y-82235198D01*
X188180000Y-81507440D01*
X188420000Y-81507440D01*
X188655317Y-81463162D01*
X188871441Y-81324090D01*
X189016431Y-81111890D01*
X189067440Y-80860000D01*
X189067440Y-79160000D01*
X189023162Y-78924683D01*
X188884090Y-78708559D01*
X188671890Y-78563569D01*
X188420000Y-78512560D01*
X186420000Y-78512560D01*
X186184683Y-78556838D01*
X185968559Y-78695910D01*
X185823569Y-78908110D01*
X185772560Y-79160000D01*
X185772560Y-80860000D01*
X185816838Y-81095317D01*
X185955910Y-81311441D01*
X186168110Y-81456431D01*
X186420000Y-81507440D01*
X186660000Y-81507440D01*
X186660000Y-81790000D01*
X184277000Y-81790000D01*
X183986161Y-81847852D01*
X183739599Y-82012599D01*
X180488399Y-85263799D01*
X180323652Y-85510361D01*
X180265800Y-85801200D01*
X180265800Y-89001979D01*
X180209927Y-88946008D01*
X179866399Y-88803362D01*
X179494433Y-88803038D01*
X179332372Y-88870000D01*
X170770078Y-88870000D01*
X170792918Y-88847200D01*
X172999400Y-88847200D01*
X173290239Y-88789348D01*
X173536801Y-88624601D01*
X177016601Y-85144801D01*
X177181348Y-84898240D01*
X177239200Y-84607400D01*
X177239200Y-83830002D01*
X179561762Y-81507440D01*
X180800000Y-81507440D01*
X181035317Y-81463162D01*
X181251441Y-81324090D01*
X181396431Y-81111890D01*
X181447440Y-80860000D01*
X181447440Y-80770000D01*
X181772560Y-80770000D01*
X181772560Y-80860000D01*
X181816838Y-81095317D01*
X181955910Y-81311441D01*
X182168110Y-81456431D01*
X182420000Y-81507440D01*
X184420000Y-81507440D01*
X184655317Y-81463162D01*
X184871441Y-81324090D01*
X185016431Y-81111890D01*
X185067440Y-80860000D01*
X185067440Y-79160000D01*
X185023162Y-78924683D01*
X184884090Y-78708559D01*
X184671890Y-78563569D01*
X184420000Y-78512560D01*
X182420000Y-78512560D01*
X182184683Y-78556838D01*
X181968559Y-78695910D01*
X181823569Y-78908110D01*
X181772560Y-79160000D01*
X181772560Y-79250000D01*
X181447440Y-79250000D01*
X181447440Y-79160000D01*
X181403162Y-78924683D01*
X181264090Y-78708559D01*
X181051890Y-78563569D01*
X180800000Y-78512560D01*
X178800000Y-78512560D01*
X178564683Y-78556838D01*
X178348559Y-78695910D01*
X178203569Y-78908110D01*
X178152560Y-79160000D01*
X178152560Y-80767038D01*
X175941799Y-82977799D01*
X175777052Y-83224361D01*
X175719200Y-83515200D01*
X175719200Y-84292598D01*
X172684598Y-87327200D01*
X170793263Y-87327200D01*
X170761127Y-87295008D01*
X170417599Y-87152362D01*
X170045633Y-87152038D01*
X169701857Y-87294083D01*
X169438608Y-87556873D01*
X169295962Y-87900401D01*
X169295638Y-88272367D01*
X169437683Y-88616143D01*
X169691097Y-88870000D01*
X166723600Y-88870000D01*
X166723600Y-88341200D01*
X166665748Y-88050361D01*
X166501001Y-87803799D01*
X165984322Y-87287120D01*
X165984362Y-87241633D01*
X165979033Y-87228736D01*
X166170801Y-87100601D01*
X169301002Y-83970400D01*
X169976800Y-83970400D01*
X170267639Y-83912548D01*
X170514201Y-83747801D01*
X172717401Y-81544601D01*
X172742231Y-81507440D01*
X173180000Y-81507440D01*
X173415317Y-81463162D01*
X173631441Y-81324090D01*
X173776431Y-81111890D01*
X173827440Y-80860000D01*
X173827440Y-80770000D01*
X174152560Y-80770000D01*
X174152560Y-80860000D01*
X174196838Y-81095317D01*
X174335910Y-81311441D01*
X174548110Y-81456431D01*
X174800000Y-81507440D01*
X176800000Y-81507440D01*
X177035317Y-81463162D01*
X177251441Y-81324090D01*
X177396431Y-81111890D01*
X177447440Y-80860000D01*
X177447440Y-79160000D01*
X177403162Y-78924683D01*
X177264090Y-78708559D01*
X177051890Y-78563569D01*
X176800000Y-78512560D01*
X174800000Y-78512560D01*
X174564683Y-78556838D01*
X174348559Y-78695910D01*
X174203569Y-78908110D01*
X174152560Y-79160000D01*
X174152560Y-79250000D01*
X173827440Y-79250000D01*
X173827440Y-79160000D01*
X173783162Y-78924683D01*
X173644090Y-78708559D01*
X173431890Y-78563569D01*
X173180000Y-78512560D01*
X171180000Y-78512560D01*
X170944683Y-78556838D01*
X170728559Y-78695910D01*
X170583569Y-78908110D01*
X170532560Y-79160000D01*
X170532560Y-80860000D01*
X170576838Y-81095317D01*
X170715910Y-81311441D01*
X170766435Y-81345963D01*
X169661998Y-82450400D01*
X168986200Y-82450400D01*
X168695360Y-82508252D01*
X168448799Y-82672999D01*
X165806514Y-85315284D01*
X165806562Y-85260433D01*
X165664517Y-84916657D01*
X165402800Y-84654483D01*
X165402800Y-84458663D01*
X165434992Y-84426527D01*
X165577638Y-84082999D01*
X165577869Y-83818000D01*
X165760400Y-83818000D01*
X166051239Y-83760148D01*
X166297801Y-83595401D01*
X168385762Y-81507440D01*
X169180000Y-81507440D01*
X169415317Y-81463162D01*
X169631441Y-81324090D01*
X169776431Y-81111890D01*
X169827440Y-80860000D01*
X169827440Y-79160000D01*
X169783162Y-78924683D01*
X169644090Y-78708559D01*
X169431890Y-78563569D01*
X169180000Y-78512560D01*
X167180000Y-78512560D01*
X166944683Y-78556838D01*
X166728559Y-78695910D01*
X166583569Y-78908110D01*
X166532560Y-79160000D01*
X166532560Y-80860000D01*
X166576838Y-81095317D01*
X166604811Y-81138787D01*
X165445598Y-82298000D01*
X156184600Y-82298000D01*
X155893760Y-82355852D01*
X155647199Y-82520599D01*
X154300999Y-83866799D01*
X154136252Y-84113361D01*
X154078400Y-84404200D01*
X154078400Y-87499337D01*
X154046208Y-87531473D01*
X153903562Y-87875001D01*
X153903238Y-88246967D01*
X152627440Y-88246967D01*
X152627440Y-87360000D01*
X152583162Y-87124683D01*
X152444090Y-86908559D01*
X152231890Y-86763569D01*
X151980000Y-86712560D01*
X150280000Y-86712560D01*
X150044683Y-86756838D01*
X150003398Y-86783404D01*
X150779362Y-86007440D01*
X151980000Y-86007440D01*
X152215317Y-85963162D01*
X152431441Y-85824090D01*
X152576431Y-85611890D01*
X152627440Y-85360000D01*
X152627440Y-83360000D01*
X152583162Y-83124683D01*
X152444090Y-82908559D01*
X152231890Y-82763569D01*
X151980000Y-82712560D01*
X150557362Y-82712560D01*
X148427440Y-80582638D01*
X148427440Y-79980907D01*
X153455000Y-79980907D01*
X153455000Y-80039093D01*
X153568039Y-80607378D01*
X153889946Y-81089147D01*
X154371715Y-81411054D01*
X154940000Y-81524093D01*
X155508285Y-81411054D01*
X155990054Y-81089147D01*
X156217702Y-80748447D01*
X156284817Y-80891358D01*
X156713076Y-81281645D01*
X157123110Y-81451476D01*
X157353000Y-81330155D01*
X157353000Y-80137000D01*
X157333000Y-80137000D01*
X157333000Y-79883000D01*
X157353000Y-79883000D01*
X157353000Y-78689845D01*
X157607000Y-78689845D01*
X157607000Y-79883000D01*
X157627000Y-79883000D01*
X157627000Y-80137000D01*
X157607000Y-80137000D01*
X157607000Y-81330155D01*
X157836890Y-81451476D01*
X158246924Y-81281645D01*
X158675183Y-80891358D01*
X158742298Y-80748447D01*
X158969946Y-81089147D01*
X159451715Y-81411054D01*
X160020000Y-81524093D01*
X160588285Y-81411054D01*
X161070054Y-81089147D01*
X161097850Y-81047548D01*
X161106838Y-81095317D01*
X161245910Y-81311441D01*
X161458110Y-81456431D01*
X161710000Y-81507440D01*
X163410000Y-81507440D01*
X163645317Y-81463162D01*
X163861441Y-81324090D01*
X164006431Y-81111890D01*
X164057440Y-80860000D01*
X164057440Y-79160000D01*
X164013162Y-78924683D01*
X163874090Y-78708559D01*
X163661890Y-78563569D01*
X163410000Y-78512560D01*
X161710000Y-78512560D01*
X161474683Y-78556838D01*
X161258559Y-78695910D01*
X161113569Y-78908110D01*
X161099914Y-78975541D01*
X161070054Y-78930853D01*
X160588285Y-78608946D01*
X160020000Y-78495907D01*
X159451715Y-78608946D01*
X158969946Y-78930853D01*
X158742298Y-79271553D01*
X158675183Y-79128642D01*
X158246924Y-78738355D01*
X157836890Y-78568524D01*
X157607000Y-78689845D01*
X157353000Y-78689845D01*
X157123110Y-78568524D01*
X156713076Y-78738355D01*
X156284817Y-79128642D01*
X156217702Y-79271553D01*
X155990054Y-78930853D01*
X155508285Y-78608946D01*
X154940000Y-78495907D01*
X154371715Y-78608946D01*
X153889946Y-78930853D01*
X153568039Y-79412622D01*
X153455000Y-79980907D01*
X148427440Y-79980907D01*
X148427440Y-79160000D01*
X148383162Y-78924683D01*
X148244090Y-78708559D01*
X148031890Y-78563569D01*
X147780000Y-78512560D01*
X145780000Y-78512560D01*
X145544683Y-78556838D01*
X145328559Y-78695910D01*
X145183569Y-78908110D01*
X145132560Y-79160000D01*
X145132560Y-80860000D01*
X145176838Y-81095317D01*
X145315910Y-81311441D01*
X145528110Y-81456431D01*
X145780000Y-81507440D01*
X147202638Y-81507440D01*
X149632560Y-83937362D01*
X149632560Y-85004638D01*
X148678920Y-85958278D01*
X148633433Y-85958238D01*
X148289657Y-86100283D01*
X148026408Y-86363073D01*
X147883762Y-86706601D01*
X147883438Y-87078567D01*
X148025483Y-87422343D01*
X148288273Y-87685592D01*
X148631801Y-87828238D01*
X149003767Y-87828562D01*
X149347543Y-87686517D01*
X149610792Y-87423727D01*
X149632560Y-87371304D01*
X149632560Y-89360000D01*
X149676838Y-89595317D01*
X149815910Y-89811441D01*
X150028110Y-89956431D01*
X150280000Y-90007440D01*
X150370000Y-90007440D01*
X150370000Y-91617800D01*
X150427852Y-91908639D01*
X150592599Y-92155201D01*
X153113200Y-94675802D01*
X153113200Y-96344464D01*
X153111890Y-96343569D01*
X152860000Y-96292560D01*
X150860000Y-96292560D01*
X150624683Y-96336838D01*
X150594600Y-96356196D01*
X150594600Y-95533063D01*
X150626792Y-95500927D01*
X150769438Y-95157399D01*
X150769762Y-94785433D01*
X150627717Y-94441657D01*
X150364927Y-94178408D01*
X150021399Y-94035762D01*
X149649433Y-94035438D01*
X149305657Y-94177483D01*
X149042408Y-94440273D01*
X148899762Y-94783801D01*
X148899438Y-95155767D01*
X149041483Y-95499543D01*
X149074600Y-95532718D01*
X149074600Y-96336018D01*
X148860000Y-96292560D01*
X146860000Y-96292560D01*
X146624683Y-96336838D01*
X146408559Y-96475910D01*
X146263569Y-96688110D01*
X146212560Y-96940000D01*
X146212560Y-97030000D01*
X146187002Y-97030000D01*
X145387600Y-96230598D01*
X145387600Y-92364402D01*
X146047401Y-91704601D01*
X146072231Y-91667440D01*
X146510000Y-91667440D01*
X146745317Y-91623162D01*
X146961441Y-91484090D01*
X147106431Y-91271890D01*
X147157440Y-91020000D01*
X147157440Y-89320000D01*
X147113162Y-89084683D01*
X146974090Y-88868559D01*
X146761890Y-88723569D01*
X146510000Y-88672560D01*
X144510000Y-88672560D01*
X144274683Y-88716838D01*
X144058559Y-88855910D01*
X143913569Y-89068110D01*
X143862560Y-89320000D01*
X143157440Y-89320000D01*
X143113162Y-89084683D01*
X142974090Y-88868559D01*
X142761890Y-88723569D01*
X142510000Y-88672560D01*
X140510000Y-88672560D01*
X140274683Y-88716838D01*
X140058559Y-88855910D01*
X139913569Y-89068110D01*
X139862560Y-89320000D01*
X121360000Y-89320000D01*
X121360000Y-83954367D01*
X123601038Y-83954367D01*
X123743083Y-84298143D01*
X124005873Y-84561392D01*
X124349401Y-84704038D01*
X124721367Y-84704362D01*
X125065143Y-84562317D01*
X125277713Y-84350118D01*
X125277438Y-84665567D01*
X125419483Y-85009343D01*
X125682273Y-85272592D01*
X126025801Y-85415238D01*
X126397767Y-85415562D01*
X126741543Y-85273517D01*
X126774718Y-85240400D01*
X127326847Y-85240400D01*
X127536473Y-85450392D01*
X127880001Y-85593038D01*
X128251967Y-85593362D01*
X128595743Y-85451317D01*
X128858992Y-85188527D01*
X129001638Y-84844999D01*
X129001962Y-84473033D01*
X128859917Y-84129257D01*
X128728602Y-83997713D01*
X128960592Y-83766127D01*
X129103238Y-83422599D01*
X129103562Y-83050633D01*
X128961517Y-82706857D01*
X128698727Y-82443608D01*
X128355199Y-82300962D01*
X128287499Y-82300903D01*
X128103639Y-82178052D01*
X127812800Y-82120200D01*
X125425200Y-82120200D01*
X125134361Y-82178052D01*
X124887799Y-82342799D01*
X124396520Y-82834078D01*
X124351033Y-82834038D01*
X124007257Y-82976083D01*
X123744008Y-83238873D01*
X123601362Y-83582401D01*
X123601038Y-83954367D01*
X121360000Y-83954367D01*
X121360000Y-81695312D01*
X121417954Y-81782046D01*
X122230976Y-82325289D01*
X123190000Y-82516051D01*
X124149024Y-82325289D01*
X124962046Y-81782046D01*
X125505289Y-80969024D01*
X125696051Y-80010000D01*
X125526976Y-79160000D01*
X125892560Y-79160000D01*
X125892560Y-80860000D01*
X125936838Y-81095317D01*
X126075910Y-81311441D01*
X126288110Y-81456431D01*
X126540000Y-81507440D01*
X128540000Y-81507440D01*
X128775317Y-81463162D01*
X128991441Y-81324090D01*
X129136431Y-81111890D01*
X129187440Y-80860000D01*
X129187440Y-79160000D01*
X129892560Y-79160000D01*
X129892560Y-80860000D01*
X129936838Y-81095317D01*
X130075910Y-81311441D01*
X130288110Y-81456431D01*
X130540000Y-81507440D01*
X130780000Y-81507440D01*
X130780000Y-87725000D01*
X130837852Y-88015839D01*
X130890926Y-88095270D01*
X130890838Y-88196167D01*
X131032883Y-88539943D01*
X131295673Y-88803192D01*
X131639201Y-88945838D01*
X132011167Y-88946162D01*
X132354943Y-88804117D01*
X132618192Y-88541327D01*
X132760838Y-88197799D01*
X132761162Y-87825833D01*
X132619117Y-87482057D01*
X132356327Y-87218808D01*
X132300000Y-87195419D01*
X132300000Y-81507440D01*
X132540000Y-81507440D01*
X132775317Y-81463162D01*
X132991441Y-81324090D01*
X133136431Y-81111890D01*
X133187440Y-80860000D01*
X133187440Y-80770000D01*
X133512560Y-80770000D01*
X133512560Y-80860000D01*
X133556838Y-81095317D01*
X133695910Y-81311441D01*
X133908110Y-81456431D01*
X134160000Y-81507440D01*
X136160000Y-81507440D01*
X136395317Y-81463162D01*
X136611441Y-81324090D01*
X136756431Y-81111890D01*
X136807440Y-80860000D01*
X136807440Y-79160000D01*
X137512560Y-79160000D01*
X137512560Y-80860000D01*
X137556838Y-81095317D01*
X137695910Y-81311441D01*
X137908110Y-81456431D01*
X138160000Y-81507440D01*
X138400000Y-81507440D01*
X138400000Y-87521800D01*
X138457852Y-87812639D01*
X138622599Y-88059201D01*
X138688678Y-88125280D01*
X138688638Y-88170767D01*
X138830683Y-88514543D01*
X139093473Y-88777792D01*
X139437001Y-88920438D01*
X139808967Y-88920762D01*
X140152743Y-88778717D01*
X140415992Y-88515927D01*
X140558638Y-88172399D01*
X140558962Y-87800433D01*
X140416917Y-87456657D01*
X140154127Y-87193408D01*
X139920000Y-87096189D01*
X139920000Y-81507440D01*
X140160000Y-81507440D01*
X140395317Y-81463162D01*
X140611441Y-81324090D01*
X140756431Y-81111890D01*
X140807440Y-80860000D01*
X140807440Y-80770000D01*
X141132560Y-80770000D01*
X141132560Y-80860000D01*
X141176838Y-81095317D01*
X141315910Y-81311441D01*
X141528110Y-81456431D01*
X141780000Y-81507440D01*
X143780000Y-81507440D01*
X144015317Y-81463162D01*
X144231441Y-81324090D01*
X144376431Y-81111890D01*
X144427440Y-80860000D01*
X144427440Y-79160000D01*
X144383162Y-78924683D01*
X144244090Y-78708559D01*
X144031890Y-78563569D01*
X143780000Y-78512560D01*
X141780000Y-78512560D01*
X141544683Y-78556838D01*
X141328559Y-78695910D01*
X141183569Y-78908110D01*
X141132560Y-79160000D01*
X141132560Y-79250000D01*
X140807440Y-79250000D01*
X140807440Y-79160000D01*
X140763162Y-78924683D01*
X140624090Y-78708559D01*
X140411890Y-78563569D01*
X140160000Y-78512560D01*
X138160000Y-78512560D01*
X137924683Y-78556838D01*
X137708559Y-78695910D01*
X137563569Y-78908110D01*
X137512560Y-79160000D01*
X136807440Y-79160000D01*
X136763162Y-78924683D01*
X136624090Y-78708559D01*
X136411890Y-78563569D01*
X136160000Y-78512560D01*
X134160000Y-78512560D01*
X133924683Y-78556838D01*
X133708559Y-78695910D01*
X133563569Y-78908110D01*
X133512560Y-79160000D01*
X133512560Y-79250000D01*
X133187440Y-79250000D01*
X133187440Y-79160000D01*
X133143162Y-78924683D01*
X133004090Y-78708559D01*
X132791890Y-78563569D01*
X132540000Y-78512560D01*
X130540000Y-78512560D01*
X130304683Y-78556838D01*
X130088559Y-78695910D01*
X129943569Y-78908110D01*
X129892560Y-79160000D01*
X129187440Y-79160000D01*
X129143162Y-78924683D01*
X129004090Y-78708559D01*
X128791890Y-78563569D01*
X128540000Y-78512560D01*
X126540000Y-78512560D01*
X126304683Y-78556838D01*
X126088559Y-78695910D01*
X125943569Y-78908110D01*
X125892560Y-79160000D01*
X125526976Y-79160000D01*
X125505289Y-79050976D01*
X124962046Y-78237954D01*
X124875312Y-78180000D01*
X193894688Y-78180000D01*
X193807954Y-78237954D01*
M02*
