M48
;DRILL file {KiCad 4.0.7} date 07/09/18 15:47:49
;FORMAT={-:-/ absolute / metric / decimal}
FMAT,2
METRIC,TZ
T1C0.400
T2C1.000
%
G90
G05
M71
T1
X124.536Y-83.769
X126.213Y-84.48
X127.152Y-80.112
X128.067Y-84.658
X128.168Y-83.236
X131.826Y-88.011
X132.105Y-98.222
X135.509Y-94.259
X139.344Y-107.493
X139.624Y-87.986
X139.878Y-92.735
X139.979Y-99.898
X141.783Y-90.17
X143.688Y-105.613
X147.879Y-97.46
X148.819Y-86.893
X149.555Y-99.797
X149.835Y-94.971
X151.13Y-88.36
X154.051Y-97.028
X154.838Y-88.062
X157.201Y-83.82
X160.604Y-83.871
X162.611Y-88.011
X162.611Y-102.006
X162.814Y-99.822
X164.643Y-83.896
X164.795Y-98.044
X164.871Y-85.446
X165.049Y-87.427
X165.583Y-94.513
X166.091Y-104.978
X166.37Y-102.057
X170.155Y-99.873
X170.205Y-94.412
X170.231Y-88.087
X177.724Y-94.361
X177.775Y-101.854
X179.68Y-89.738
X183.642Y-105.613
X184.455Y-89.586
X185.445Y-109.245
X185.471Y-101.524
X185.598Y-92.151
X188.341Y-90.83
X189.027Y-98.349
T2
X154.94Y-80.01
X157.48Y-80.01
X160.02Y-80.01
X162.56Y-80.01
T0
M30
