G04 #@! TF.FileFunction,Legend,Top*
%FSLAX46Y46*%
G04 Gerber Fmt 4.6, Leading zero omitted, Abs format (unit mm)*
G04 Created by KiCad (PCBNEW 4.0.7) date 07/09/18 18:26:11*
%MOMM*%
%LPD*%
G01*
G04 APERTURE LIST*
%ADD10C,0.100000*%
%ADD11C,0.120000*%
%ADD12C,0.200000*%
%ADD13C,0.150000*%
G04 APERTURE END LIST*
D10*
X141627334Y-107504667D02*
X141627334Y-106804667D01*
X141860667Y-107304667D01*
X142094000Y-106804667D01*
X142094000Y-107504667D01*
X142427334Y-107504667D02*
X142427334Y-107038000D01*
X142427334Y-106804667D02*
X142394000Y-106838000D01*
X142427334Y-106871333D01*
X142460667Y-106838000D01*
X142427334Y-106804667D01*
X142427334Y-106871333D01*
X143060667Y-107471333D02*
X142994000Y-107504667D01*
X142860667Y-107504667D01*
X142794000Y-107471333D01*
X142760667Y-107438000D01*
X142727333Y-107371333D01*
X142727333Y-107171333D01*
X142760667Y-107104667D01*
X142794000Y-107071333D01*
X142860667Y-107038000D01*
X142994000Y-107038000D01*
X143060667Y-107071333D01*
X143360667Y-107438000D02*
X143394000Y-107471333D01*
X143360667Y-107504667D01*
X143327333Y-107471333D01*
X143360667Y-107438000D01*
X143360667Y-107504667D01*
X154440001Y-82358667D02*
X154440001Y-81658667D01*
X154840001Y-82358667D01*
X154840001Y-81658667D01*
X155473334Y-82325333D02*
X155406667Y-82358667D01*
X155273334Y-82358667D01*
X155206667Y-82325333D01*
X155173334Y-82292000D01*
X155140000Y-82225333D01*
X155140000Y-82025333D01*
X155173334Y-81958667D01*
X155206667Y-81925333D01*
X155273334Y-81892000D01*
X155406667Y-81892000D01*
X155473334Y-81925333D01*
X161705334Y-82158667D02*
X162038668Y-82158667D01*
X161638668Y-82358667D02*
X161872001Y-81658667D01*
X162105334Y-82358667D01*
X162338668Y-81892000D02*
X162338668Y-82358667D01*
X162338668Y-81958667D02*
X162372001Y-81925333D01*
X162438668Y-81892000D01*
X162538668Y-81892000D01*
X162605334Y-81925333D01*
X162638668Y-81992000D01*
X162638668Y-82358667D01*
X163272001Y-82358667D02*
X163272001Y-81992000D01*
X163238667Y-81925333D01*
X163172001Y-81892000D01*
X163038667Y-81892000D01*
X162972001Y-81925333D01*
X163272001Y-82325333D02*
X163205334Y-82358667D01*
X163038667Y-82358667D01*
X162972001Y-82325333D01*
X162938667Y-82258667D01*
X162938667Y-82192000D01*
X162972001Y-82125333D01*
X163038667Y-82092000D01*
X163205334Y-82092000D01*
X163272001Y-82058667D01*
X163705334Y-82358667D02*
X163638667Y-82325333D01*
X163605334Y-82258667D01*
X163605334Y-81658667D01*
X164072001Y-82358667D02*
X164005334Y-82325333D01*
X163972001Y-82292000D01*
X163938667Y-82225333D01*
X163938667Y-82025333D01*
X163972001Y-81958667D01*
X164005334Y-81925333D01*
X164072001Y-81892000D01*
X164172001Y-81892000D01*
X164238667Y-81925333D01*
X164272001Y-81958667D01*
X164305334Y-82025333D01*
X164305334Y-82225333D01*
X164272001Y-82292000D01*
X164238667Y-82325333D01*
X164172001Y-82358667D01*
X164072001Y-82358667D01*
X164905334Y-81892000D02*
X164905334Y-82458667D01*
X164872000Y-82525333D01*
X164838667Y-82558667D01*
X164772000Y-82592000D01*
X164672000Y-82592000D01*
X164605334Y-82558667D01*
X164905334Y-82325333D02*
X164838667Y-82358667D01*
X164705334Y-82358667D01*
X164638667Y-82325333D01*
X164605334Y-82292000D01*
X164572000Y-82225333D01*
X164572000Y-82025333D01*
X164605334Y-81958667D01*
X164638667Y-81925333D01*
X164705334Y-81892000D01*
X164838667Y-81892000D01*
X164905334Y-81925333D01*
X159186667Y-81658667D02*
X159420000Y-82358667D01*
X159653333Y-81658667D01*
X160186667Y-82325333D02*
X160120000Y-82358667D01*
X159986667Y-82358667D01*
X159920000Y-82325333D01*
X159886667Y-82292000D01*
X159853333Y-82225333D01*
X159853333Y-82025333D01*
X159886667Y-81958667D01*
X159920000Y-81925333D01*
X159986667Y-81892000D01*
X160120000Y-81892000D01*
X160186667Y-81925333D01*
X160786667Y-82325333D02*
X160720000Y-82358667D01*
X160586667Y-82358667D01*
X160520000Y-82325333D01*
X160486667Y-82292000D01*
X160453333Y-82225333D01*
X160453333Y-82025333D01*
X160486667Y-81958667D01*
X160520000Y-81925333D01*
X160586667Y-81892000D01*
X160720000Y-81892000D01*
X160786667Y-81925333D01*
X157030000Y-81692000D02*
X156963334Y-81658667D01*
X156863334Y-81658667D01*
X156763334Y-81692000D01*
X156696667Y-81758667D01*
X156663334Y-81825333D01*
X156630000Y-81958667D01*
X156630000Y-82058667D01*
X156663334Y-82192000D01*
X156696667Y-82258667D01*
X156763334Y-82325333D01*
X156863334Y-82358667D01*
X156930000Y-82358667D01*
X157030000Y-82325333D01*
X157063334Y-82292000D01*
X157063334Y-82058667D01*
X156930000Y-82058667D01*
X157363334Y-81892000D02*
X157363334Y-82358667D01*
X157363334Y-81958667D02*
X157396667Y-81925333D01*
X157463334Y-81892000D01*
X157563334Y-81892000D01*
X157630000Y-81925333D01*
X157663334Y-81992000D01*
X157663334Y-82358667D01*
X158296667Y-82358667D02*
X158296667Y-81658667D01*
X158296667Y-82325333D02*
X158230000Y-82358667D01*
X158096667Y-82358667D01*
X158030000Y-82325333D01*
X157996667Y-82292000D01*
X157963333Y-82225333D01*
X157963333Y-82025333D01*
X157996667Y-81958667D01*
X158030000Y-81925333D01*
X158096667Y-81892000D01*
X158230000Y-81892000D01*
X158296667Y-81925333D01*
X187380667Y-100105333D02*
X187480667Y-100138667D01*
X187647334Y-100138667D01*
X187714001Y-100105333D01*
X187747334Y-100072000D01*
X187780667Y-100005333D01*
X187780667Y-99938667D01*
X187747334Y-99872000D01*
X187714001Y-99838667D01*
X187647334Y-99805333D01*
X187514001Y-99772000D01*
X187447334Y-99738667D01*
X187414001Y-99705333D01*
X187380667Y-99638667D01*
X187380667Y-99572000D01*
X187414001Y-99505333D01*
X187447334Y-99472000D01*
X187514001Y-99438667D01*
X187680667Y-99438667D01*
X187780667Y-99472000D01*
X188080668Y-99672000D02*
X188080668Y-100138667D01*
X188080668Y-99738667D02*
X188114001Y-99705333D01*
X188180668Y-99672000D01*
X188280668Y-99672000D01*
X188347334Y-99705333D01*
X188380668Y-99772000D01*
X188380668Y-100138667D01*
X189014001Y-100138667D02*
X189014001Y-99438667D01*
X189014001Y-100105333D02*
X188947334Y-100138667D01*
X188814001Y-100138667D01*
X188747334Y-100105333D01*
X188714001Y-100072000D01*
X188680667Y-100005333D01*
X188680667Y-99805333D01*
X188714001Y-99738667D01*
X188747334Y-99705333D01*
X188814001Y-99672000D01*
X188947334Y-99672000D01*
X189014001Y-99705333D01*
X179832000Y-100179143D02*
X179879619Y-100226762D01*
X179832000Y-100274381D01*
X179784381Y-100226762D01*
X179832000Y-100179143D01*
X179832000Y-100274381D01*
X172259619Y-100226762D02*
X172259619Y-100274381D01*
X172212000Y-100369619D01*
X172164381Y-100417238D01*
X164592000Y-100179143D02*
X164639619Y-100226762D01*
X164592000Y-100274381D01*
X164544381Y-100226762D01*
X164592000Y-100179143D01*
X164592000Y-100274381D01*
X164592000Y-99893429D02*
X164544381Y-99322000D01*
X164592000Y-99274381D01*
X164639619Y-99322000D01*
X164592000Y-99893429D01*
X164592000Y-99274381D01*
X156924381Y-100179143D02*
X156972000Y-100226762D01*
X156924381Y-100274381D01*
X156876762Y-100226762D01*
X156924381Y-100179143D01*
X156924381Y-100274381D01*
X156733905Y-99322000D02*
X156829143Y-99274381D01*
X157067239Y-99274381D01*
X157162477Y-99322000D01*
X157210096Y-99417238D01*
X157210096Y-99512476D01*
X157162477Y-99607714D01*
X157114858Y-99655333D01*
X157019619Y-99702952D01*
X156972000Y-99750571D01*
X156924381Y-99845810D01*
X156924381Y-99893429D01*
X149415524Y-100528381D02*
X149606000Y-100528381D01*
X149701239Y-100480762D01*
X149748858Y-100433143D01*
X149844096Y-100290286D01*
X149891715Y-100099810D01*
X149891715Y-99718857D01*
X149844096Y-99623619D01*
X149796477Y-99576000D01*
X149701239Y-99528381D01*
X149510762Y-99528381D01*
X149415524Y-99576000D01*
X149367905Y-99623619D01*
X149320286Y-99718857D01*
X149320286Y-99956952D01*
X149367905Y-100052190D01*
X149415524Y-100099810D01*
X149510762Y-100147429D01*
X149701239Y-100147429D01*
X149796477Y-100099810D01*
X149844096Y-100052190D01*
X149891715Y-99956952D01*
X141890762Y-99702952D02*
X141795524Y-99655333D01*
X141747905Y-99607714D01*
X141700286Y-99512476D01*
X141700286Y-99464857D01*
X141747905Y-99369619D01*
X141795524Y-99322000D01*
X141890762Y-99274381D01*
X142081239Y-99274381D01*
X142176477Y-99322000D01*
X142224096Y-99369619D01*
X142271715Y-99464857D01*
X142271715Y-99512476D01*
X142224096Y-99607714D01*
X142176477Y-99655333D01*
X142081239Y-99702952D01*
X141890762Y-99702952D01*
X141795524Y-99750571D01*
X141747905Y-99798190D01*
X141700286Y-99893429D01*
X141700286Y-100083905D01*
X141747905Y-100179143D01*
X141795524Y-100226762D01*
X141890762Y-100274381D01*
X142081239Y-100274381D01*
X142176477Y-100226762D01*
X142224096Y-100179143D01*
X142271715Y-100083905D01*
X142271715Y-99893429D01*
X142224096Y-99798190D01*
X142176477Y-99750571D01*
X142081239Y-99702952D01*
X134032667Y-99274381D02*
X134699334Y-99274381D01*
X134270762Y-100274381D01*
X187515524Y-91654381D02*
X187515524Y-91844857D01*
X187896477Y-91654381D02*
X187896477Y-91844857D01*
X180133619Y-91654381D02*
X180038381Y-91844857D01*
X172513619Y-92606762D02*
X172513619Y-92654381D01*
X172466000Y-92749619D01*
X172418381Y-92797238D01*
X172466000Y-92035333D02*
X172513619Y-92082952D01*
X172466000Y-92130571D01*
X172418381Y-92082952D01*
X172466000Y-92035333D01*
X172466000Y-92130571D01*
X164846000Y-92559143D02*
X164893619Y-92606762D01*
X164846000Y-92654381D01*
X164798381Y-92606762D01*
X164846000Y-92559143D01*
X164846000Y-92654381D01*
X164846000Y-92035333D02*
X164893619Y-92082952D01*
X164846000Y-92130571D01*
X164798381Y-92082952D01*
X164846000Y-92035333D01*
X164846000Y-92130571D01*
X157654572Y-91606762D02*
X156797429Y-92892476D01*
X149796477Y-91654381D02*
X149606000Y-91654381D01*
X149510762Y-91702000D01*
X149463143Y-91749619D01*
X149367905Y-91892476D01*
X149320286Y-92082952D01*
X149320286Y-92463905D01*
X149367905Y-92559143D01*
X149415524Y-92606762D01*
X149510762Y-92654381D01*
X149701239Y-92654381D01*
X149796477Y-92606762D01*
X149844096Y-92559143D01*
X149891715Y-92463905D01*
X149891715Y-92225810D01*
X149844096Y-92130571D01*
X149796477Y-92082952D01*
X149701239Y-92035333D01*
X149510762Y-92035333D01*
X149415524Y-92082952D01*
X149367905Y-92130571D01*
X149320286Y-92225810D01*
X142224096Y-91654381D02*
X141747905Y-91654381D01*
X141700286Y-92130571D01*
X141747905Y-92082952D01*
X141843143Y-92035333D01*
X142081239Y-92035333D01*
X142176477Y-92082952D01*
X142224096Y-92130571D01*
X142271715Y-92225810D01*
X142271715Y-92463905D01*
X142224096Y-92559143D01*
X142176477Y-92606762D01*
X142081239Y-92654381D01*
X141843143Y-92654381D01*
X141747905Y-92606762D01*
X141700286Y-92559143D01*
X134556477Y-91987714D02*
X134556477Y-92654381D01*
X134318381Y-91606762D02*
X134080286Y-92321048D01*
X134699334Y-92321048D01*
X126746000Y-91654381D02*
X126746000Y-91892476D01*
X126507905Y-91797238D02*
X126746000Y-91892476D01*
X126984096Y-91797238D01*
X126603143Y-92082952D02*
X126746000Y-91892476D01*
X126888858Y-92082952D01*
X195540286Y-85066190D02*
X195492667Y-85018571D01*
X195397429Y-84970952D01*
X195302191Y-84970952D01*
X195206953Y-85018571D01*
X195159333Y-85066190D01*
X195111714Y-85161429D01*
X195111714Y-85256667D01*
X195159333Y-85351905D01*
X195206953Y-85399524D01*
X195302191Y-85447143D01*
X195397429Y-85447143D01*
X195492667Y-85399524D01*
X195540286Y-85351905D01*
X195540286Y-84970952D02*
X195540286Y-85351905D01*
X195587905Y-85399524D01*
X195635524Y-85399524D01*
X195730762Y-85351905D01*
X195778381Y-85256667D01*
X195778381Y-85018571D01*
X195683143Y-84875714D01*
X195540286Y-84780476D01*
X195349810Y-84732857D01*
X195159333Y-84780476D01*
X195016476Y-84875714D01*
X194921238Y-85018571D01*
X194873619Y-85209048D01*
X194921238Y-85399524D01*
X195016476Y-85542381D01*
X195159333Y-85637619D01*
X195349810Y-85685238D01*
X195540286Y-85637619D01*
X195683143Y-85542381D01*
X187325048Y-84907429D02*
X188086953Y-84907429D01*
X187706001Y-85288381D02*
X187706001Y-84526476D01*
X179451048Y-84653429D02*
X180212953Y-84653429D01*
X171831048Y-85129619D02*
X172592953Y-85129619D01*
X164401524Y-85415333D02*
X164449143Y-85367714D01*
X164544381Y-85224857D01*
X164592000Y-85129619D01*
X164639619Y-84986762D01*
X164687238Y-84748667D01*
X164687238Y-84558190D01*
X164639619Y-84320095D01*
X164592000Y-84177238D01*
X164544381Y-84082000D01*
X164449143Y-83939143D01*
X164401524Y-83891524D01*
X157416477Y-85415333D02*
X157368857Y-85367714D01*
X157273619Y-85224857D01*
X157226000Y-85129619D01*
X157178381Y-84986762D01*
X157130762Y-84748667D01*
X157130762Y-84558190D01*
X157178381Y-84320095D01*
X157226000Y-84177238D01*
X157273619Y-84082000D01*
X157368857Y-83939143D01*
X157416477Y-83891524D01*
X149272667Y-84034381D02*
X149891715Y-84034381D01*
X149558381Y-84415333D01*
X149701239Y-84415333D01*
X149796477Y-84462952D01*
X149844096Y-84510571D01*
X149891715Y-84605810D01*
X149891715Y-84843905D01*
X149844096Y-84939143D01*
X149796477Y-84986762D01*
X149701239Y-85034381D01*
X149415524Y-85034381D01*
X149320286Y-84986762D01*
X149272667Y-84939143D01*
X141700286Y-84129619D02*
X141747905Y-84082000D01*
X141843143Y-84034381D01*
X142081239Y-84034381D01*
X142176477Y-84082000D01*
X142224096Y-84129619D01*
X142271715Y-84224857D01*
X142271715Y-84320095D01*
X142224096Y-84462952D01*
X141652667Y-85034381D01*
X142271715Y-85034381D01*
X134651715Y-85034381D02*
X134080286Y-85034381D01*
X134366000Y-85034381D02*
X134366000Y-84034381D01*
X134270762Y-84177238D01*
X134175524Y-84272476D01*
X134080286Y-84320095D01*
X126436476Y-84367714D02*
X127150762Y-84367714D01*
X126722190Y-83939143D02*
X126436476Y-85224857D01*
X127055524Y-84796286D02*
X126341238Y-84796286D01*
X126769810Y-85224857D02*
X127055524Y-83939143D01*
X131043335Y-80126667D02*
X131376669Y-80126667D01*
X130976669Y-80326667D02*
X131210002Y-79626667D01*
X131443335Y-80326667D01*
X131610002Y-79860000D02*
X131976669Y-79860000D01*
X131610002Y-80326667D01*
X131976669Y-80326667D01*
X132510002Y-80293333D02*
X132443336Y-80326667D01*
X132310002Y-80326667D01*
X132243336Y-80293333D01*
X132210002Y-80226667D01*
X132210002Y-79960000D01*
X132243336Y-79893333D01*
X132310002Y-79860000D01*
X132443336Y-79860000D01*
X132510002Y-79893333D01*
X132543336Y-79960000D01*
X132543336Y-80026667D01*
X132210002Y-80093333D01*
X132843336Y-80326667D02*
X132843336Y-79860000D01*
X132843336Y-79993333D02*
X132876669Y-79926667D01*
X132910002Y-79893333D01*
X132976669Y-79860000D01*
X133043336Y-79860000D01*
X133176669Y-79860000D02*
X133443335Y-79860000D01*
X133276669Y-79626667D02*
X133276669Y-80226667D01*
X133310002Y-80293333D01*
X133376669Y-80326667D01*
X133443335Y-80326667D01*
X133610002Y-79860000D02*
X133776669Y-80326667D01*
X133943335Y-79860000D02*
X133776669Y-80326667D01*
X133710002Y-80493333D01*
X133676669Y-80526667D01*
X133610002Y-80560000D01*
X134710001Y-80126667D02*
X135043335Y-80126667D01*
X134643335Y-80326667D02*
X134876668Y-79626667D01*
X135110001Y-80326667D01*
X135343335Y-79860000D02*
X135343335Y-80326667D01*
X135343335Y-79926667D02*
X135376668Y-79893333D01*
X135443335Y-79860000D01*
X135543335Y-79860000D01*
X135610001Y-79893333D01*
X135643335Y-79960000D01*
X135643335Y-80326667D01*
X136276668Y-80326667D02*
X136276668Y-79960000D01*
X136243334Y-79893333D01*
X136176668Y-79860000D01*
X136043334Y-79860000D01*
X135976668Y-79893333D01*
X136276668Y-80293333D02*
X136210001Y-80326667D01*
X136043334Y-80326667D01*
X135976668Y-80293333D01*
X135943334Y-80226667D01*
X135943334Y-80160000D01*
X135976668Y-80093333D01*
X136043334Y-80060000D01*
X136210001Y-80060000D01*
X136276668Y-80026667D01*
X136710001Y-80326667D02*
X136643334Y-80293333D01*
X136610001Y-80226667D01*
X136610001Y-79626667D01*
X137076668Y-80326667D02*
X137010001Y-80293333D01*
X136976668Y-80260000D01*
X136943334Y-80193333D01*
X136943334Y-79993333D01*
X136976668Y-79926667D01*
X137010001Y-79893333D01*
X137076668Y-79860000D01*
X137176668Y-79860000D01*
X137243334Y-79893333D01*
X137276668Y-79926667D01*
X137310001Y-79993333D01*
X137310001Y-80193333D01*
X137276668Y-80260000D01*
X137243334Y-80293333D01*
X137176668Y-80326667D01*
X137076668Y-80326667D01*
X137910001Y-79860000D02*
X137910001Y-80426667D01*
X137876667Y-80493333D01*
X137843334Y-80526667D01*
X137776667Y-80560000D01*
X137676667Y-80560000D01*
X137610001Y-80526667D01*
X137910001Y-80293333D02*
X137843334Y-80326667D01*
X137710001Y-80326667D01*
X137643334Y-80293333D01*
X137610001Y-80260000D01*
X137576667Y-80193333D01*
X137576667Y-79993333D01*
X137610001Y-79926667D01*
X137643334Y-79893333D01*
X137710001Y-79860000D01*
X137843334Y-79860000D01*
X137910001Y-79893333D01*
X138776667Y-80326667D02*
X138776667Y-79626667D01*
X139176667Y-80326667D02*
X138876667Y-79926667D01*
X139176667Y-79626667D02*
X138776667Y-80026667D01*
X139743333Y-80293333D02*
X139676667Y-80326667D01*
X139543333Y-80326667D01*
X139476667Y-80293333D01*
X139443333Y-80226667D01*
X139443333Y-79960000D01*
X139476667Y-79893333D01*
X139543333Y-79860000D01*
X139676667Y-79860000D01*
X139743333Y-79893333D01*
X139776667Y-79960000D01*
X139776667Y-80026667D01*
X139443333Y-80093333D01*
X140010000Y-79860000D02*
X140176667Y-80326667D01*
X140343333Y-79860000D02*
X140176667Y-80326667D01*
X140110000Y-80493333D01*
X140076667Y-80526667D01*
X140010000Y-80560000D01*
X140610000Y-80326667D02*
X140610000Y-79626667D01*
X140610000Y-79893333D02*
X140676666Y-79860000D01*
X140810000Y-79860000D01*
X140876666Y-79893333D01*
X140910000Y-79926667D01*
X140943333Y-79993333D01*
X140943333Y-80193333D01*
X140910000Y-80260000D01*
X140876666Y-80293333D01*
X140810000Y-80326667D01*
X140676666Y-80326667D01*
X140610000Y-80293333D01*
X141343333Y-80326667D02*
X141276666Y-80293333D01*
X141243333Y-80260000D01*
X141209999Y-80193333D01*
X141209999Y-79993333D01*
X141243333Y-79926667D01*
X141276666Y-79893333D01*
X141343333Y-79860000D01*
X141443333Y-79860000D01*
X141509999Y-79893333D01*
X141543333Y-79926667D01*
X141576666Y-79993333D01*
X141576666Y-80193333D01*
X141543333Y-80260000D01*
X141509999Y-80293333D01*
X141443333Y-80326667D01*
X141343333Y-80326667D01*
X142176666Y-80326667D02*
X142176666Y-79960000D01*
X142143332Y-79893333D01*
X142076666Y-79860000D01*
X141943332Y-79860000D01*
X141876666Y-79893333D01*
X142176666Y-80293333D02*
X142109999Y-80326667D01*
X141943332Y-80326667D01*
X141876666Y-80293333D01*
X141843332Y-80226667D01*
X141843332Y-80160000D01*
X141876666Y-80093333D01*
X141943332Y-80060000D01*
X142109999Y-80060000D01*
X142176666Y-80026667D01*
X142509999Y-80326667D02*
X142509999Y-79860000D01*
X142509999Y-79993333D02*
X142543332Y-79926667D01*
X142576665Y-79893333D01*
X142643332Y-79860000D01*
X142709999Y-79860000D01*
X143243332Y-80326667D02*
X143243332Y-79626667D01*
X143243332Y-80293333D02*
X143176665Y-80326667D01*
X143043332Y-80326667D01*
X142976665Y-80293333D01*
X142943332Y-80260000D01*
X142909998Y-80193333D01*
X142909998Y-79993333D01*
X142943332Y-79926667D01*
X142976665Y-79893333D01*
X143043332Y-79860000D01*
X143176665Y-79860000D01*
X143243332Y-79893333D01*
D11*
X150030000Y-107570000D02*
X149730000Y-107570000D01*
X149730000Y-107570000D02*
X149730000Y-110870000D01*
X149730000Y-110870000D02*
X150030000Y-110870000D01*
X152230000Y-107570000D02*
X152530000Y-107570000D01*
X152530000Y-107570000D02*
X152530000Y-110870000D01*
X152530000Y-110870000D02*
X152230000Y-110870000D01*
X157650000Y-107570000D02*
X157350000Y-107570000D01*
X157350000Y-107570000D02*
X157350000Y-110870000D01*
X157350000Y-110870000D02*
X157650000Y-110870000D01*
X159850000Y-107570000D02*
X160150000Y-107570000D01*
X160150000Y-107570000D02*
X160150000Y-110870000D01*
X160150000Y-110870000D02*
X159850000Y-110870000D01*
X138600000Y-107570000D02*
X138300000Y-107570000D01*
X138300000Y-107570000D02*
X138300000Y-110870000D01*
X138300000Y-110870000D02*
X138600000Y-110870000D01*
X140800000Y-107570000D02*
X141100000Y-107570000D01*
X141100000Y-107570000D02*
X141100000Y-110870000D01*
X141100000Y-110870000D02*
X140800000Y-110870000D01*
X125560000Y-88010000D02*
X125860000Y-88010000D01*
X125860000Y-88010000D02*
X125860000Y-84710000D01*
X125860000Y-84710000D02*
X125560000Y-84710000D01*
X123360000Y-88010000D02*
X123060000Y-88010000D01*
X123060000Y-88010000D02*
X123060000Y-84710000D01*
X123060000Y-84710000D02*
X123360000Y-84710000D01*
X125560000Y-103250000D02*
X125860000Y-103250000D01*
X125860000Y-103250000D02*
X125860000Y-99950000D01*
X125860000Y-99950000D02*
X125560000Y-99950000D01*
X123360000Y-103250000D02*
X123060000Y-103250000D01*
X123060000Y-103250000D02*
X123060000Y-99950000D01*
X123060000Y-99950000D02*
X123360000Y-99950000D01*
X161460000Y-99950000D02*
X161160000Y-99950000D01*
X161160000Y-99950000D02*
X161160000Y-103250000D01*
X161160000Y-103250000D02*
X161460000Y-103250000D01*
X163660000Y-99950000D02*
X163960000Y-99950000D01*
X163960000Y-99950000D02*
X163960000Y-103250000D01*
X163960000Y-103250000D02*
X163660000Y-103250000D01*
X191940000Y-92330000D02*
X191640000Y-92330000D01*
X191640000Y-92330000D02*
X191640000Y-95630000D01*
X191640000Y-95630000D02*
X191940000Y-95630000D01*
X194140000Y-92330000D02*
X194440000Y-92330000D01*
X194440000Y-92330000D02*
X194440000Y-95630000D01*
X194440000Y-95630000D02*
X194140000Y-95630000D01*
X146220000Y-99950000D02*
X145920000Y-99950000D01*
X145920000Y-99950000D02*
X145920000Y-103250000D01*
X145920000Y-103250000D02*
X146220000Y-103250000D01*
X148420000Y-99950000D02*
X148720000Y-99950000D01*
X148720000Y-99950000D02*
X148720000Y-103250000D01*
X148720000Y-103250000D02*
X148420000Y-103250000D01*
X138600000Y-92330000D02*
X138300000Y-92330000D01*
X138300000Y-92330000D02*
X138300000Y-95630000D01*
X138300000Y-95630000D02*
X138600000Y-95630000D01*
X140800000Y-92330000D02*
X141100000Y-92330000D01*
X141100000Y-92330000D02*
X141100000Y-95630000D01*
X141100000Y-95630000D02*
X140800000Y-95630000D01*
X140800000Y-88010000D02*
X141100000Y-88010000D01*
X141100000Y-88010000D02*
X141100000Y-84710000D01*
X141100000Y-84710000D02*
X140800000Y-84710000D01*
X138600000Y-88010000D02*
X138300000Y-88010000D01*
X138300000Y-88010000D02*
X138300000Y-84710000D01*
X138300000Y-84710000D02*
X138600000Y-84710000D01*
X184320000Y-99950000D02*
X184020000Y-99950000D01*
X184020000Y-99950000D02*
X184020000Y-103250000D01*
X184020000Y-103250000D02*
X184320000Y-103250000D01*
X186520000Y-99950000D02*
X186820000Y-99950000D01*
X186820000Y-99950000D02*
X186820000Y-103250000D01*
X186820000Y-103250000D02*
X186520000Y-103250000D01*
X146220000Y-92330000D02*
X145920000Y-92330000D01*
X145920000Y-92330000D02*
X145920000Y-95630000D01*
X145920000Y-95630000D02*
X146220000Y-95630000D01*
X148420000Y-92330000D02*
X148720000Y-92330000D01*
X148720000Y-92330000D02*
X148720000Y-95630000D01*
X148720000Y-95630000D02*
X148420000Y-95630000D01*
X153840000Y-92330000D02*
X153540000Y-92330000D01*
X153540000Y-92330000D02*
X153540000Y-95630000D01*
X153540000Y-95630000D02*
X153840000Y-95630000D01*
X156040000Y-92330000D02*
X156340000Y-92330000D01*
X156340000Y-92330000D02*
X156340000Y-95630000D01*
X156340000Y-95630000D02*
X156040000Y-95630000D01*
X161460000Y-92330000D02*
X161160000Y-92330000D01*
X161160000Y-92330000D02*
X161160000Y-95630000D01*
X161160000Y-95630000D02*
X161460000Y-95630000D01*
X163660000Y-92330000D02*
X163960000Y-92330000D01*
X163960000Y-92330000D02*
X163960000Y-95630000D01*
X163960000Y-95630000D02*
X163660000Y-95630000D01*
X178900000Y-88010000D02*
X179200000Y-88010000D01*
X179200000Y-88010000D02*
X179200000Y-84710000D01*
X179200000Y-84710000D02*
X178900000Y-84710000D01*
X176700000Y-88010000D02*
X176400000Y-88010000D01*
X176400000Y-88010000D02*
X176400000Y-84710000D01*
X176400000Y-84710000D02*
X176700000Y-84710000D01*
X161290000Y-78680000D02*
X153610000Y-78680000D01*
X153610000Y-78680000D02*
X153610000Y-81340000D01*
X153610000Y-81340000D02*
X161290000Y-81340000D01*
X161290000Y-81340000D02*
X161290000Y-78680000D01*
X162560000Y-78680000D02*
X163890000Y-78680000D01*
X163890000Y-78680000D02*
X163890000Y-80010000D01*
X169080000Y-92330000D02*
X168780000Y-92330000D01*
X168780000Y-92330000D02*
X168780000Y-95630000D01*
X168780000Y-95630000D02*
X169080000Y-95630000D01*
X171280000Y-92330000D02*
X171580000Y-92330000D01*
X171580000Y-92330000D02*
X171580000Y-95630000D01*
X171580000Y-95630000D02*
X171280000Y-95630000D01*
X176700000Y-92330000D02*
X176400000Y-92330000D01*
X176400000Y-92330000D02*
X176400000Y-95630000D01*
X176400000Y-95630000D02*
X176700000Y-95630000D01*
X178900000Y-92330000D02*
X179200000Y-92330000D01*
X179200000Y-92330000D02*
X179200000Y-95630000D01*
X179200000Y-95630000D02*
X178900000Y-95630000D01*
X184320000Y-92330000D02*
X184020000Y-92330000D01*
X184020000Y-92330000D02*
X184020000Y-95630000D01*
X184020000Y-95630000D02*
X184320000Y-95630000D01*
X186520000Y-92330000D02*
X186820000Y-92330000D01*
X186820000Y-92330000D02*
X186820000Y-95630000D01*
X186820000Y-95630000D02*
X186520000Y-95630000D01*
X178900000Y-103250000D02*
X179200000Y-103250000D01*
X179200000Y-103250000D02*
X179200000Y-99950000D01*
X179200000Y-99950000D02*
X178900000Y-99950000D01*
X176700000Y-103250000D02*
X176400000Y-103250000D01*
X176400000Y-103250000D02*
X176400000Y-99950000D01*
X176400000Y-99950000D02*
X176700000Y-99950000D01*
X169080000Y-99950000D02*
X168780000Y-99950000D01*
X168780000Y-99950000D02*
X168780000Y-103250000D01*
X168780000Y-103250000D02*
X169080000Y-103250000D01*
X171280000Y-99950000D02*
X171580000Y-99950000D01*
X171580000Y-99950000D02*
X171580000Y-103250000D01*
X171580000Y-103250000D02*
X171280000Y-103250000D01*
X186520000Y-88010000D02*
X186820000Y-88010000D01*
X186820000Y-88010000D02*
X186820000Y-84710000D01*
X186820000Y-84710000D02*
X186520000Y-84710000D01*
X184320000Y-88010000D02*
X184020000Y-88010000D01*
X184020000Y-88010000D02*
X184020000Y-84710000D01*
X184020000Y-84710000D02*
X184320000Y-84710000D01*
X194140000Y-88010000D02*
X194440000Y-88010000D01*
X194440000Y-88010000D02*
X194440000Y-84710000D01*
X194440000Y-84710000D02*
X194140000Y-84710000D01*
X191940000Y-88010000D02*
X191640000Y-88010000D01*
X191640000Y-88010000D02*
X191640000Y-84710000D01*
X191640000Y-84710000D02*
X191940000Y-84710000D01*
X123360000Y-92330000D02*
X123060000Y-92330000D01*
X123060000Y-92330000D02*
X123060000Y-95630000D01*
X123060000Y-95630000D02*
X123360000Y-95630000D01*
X125560000Y-92330000D02*
X125860000Y-92330000D01*
X125860000Y-92330000D02*
X125860000Y-95630000D01*
X125860000Y-95630000D02*
X125560000Y-95630000D01*
X148420000Y-88010000D02*
X148720000Y-88010000D01*
X148720000Y-88010000D02*
X148720000Y-84710000D01*
X148720000Y-84710000D02*
X148420000Y-84710000D01*
X146220000Y-88010000D02*
X145920000Y-88010000D01*
X145920000Y-88010000D02*
X145920000Y-84710000D01*
X145920000Y-84710000D02*
X146220000Y-84710000D01*
X191940000Y-99950000D02*
X191640000Y-99950000D01*
X191640000Y-99950000D02*
X191640000Y-103250000D01*
X191640000Y-103250000D02*
X191940000Y-103250000D01*
X194140000Y-99950000D02*
X194440000Y-99950000D01*
X194440000Y-99950000D02*
X194440000Y-103250000D01*
X194440000Y-103250000D02*
X194140000Y-103250000D01*
X133180000Y-95630000D02*
X133480000Y-95630000D01*
X133480000Y-95630000D02*
X133480000Y-92330000D01*
X133480000Y-92330000D02*
X133180000Y-92330000D01*
X130980000Y-95630000D02*
X130680000Y-95630000D01*
X130680000Y-95630000D02*
X130680000Y-92330000D01*
X130680000Y-92330000D02*
X130980000Y-92330000D01*
X130980000Y-107570000D02*
X130680000Y-107570000D01*
X130680000Y-107570000D02*
X130680000Y-110870000D01*
X130680000Y-110870000D02*
X130980000Y-110870000D01*
X133180000Y-107570000D02*
X133480000Y-107570000D01*
X133480000Y-107570000D02*
X133480000Y-110870000D01*
X133480000Y-110870000D02*
X133180000Y-110870000D01*
X178900000Y-110870000D02*
X179200000Y-110870000D01*
X179200000Y-110870000D02*
X179200000Y-107570000D01*
X179200000Y-107570000D02*
X178900000Y-107570000D01*
X176700000Y-110870000D02*
X176400000Y-110870000D01*
X176400000Y-110870000D02*
X176400000Y-107570000D01*
X176400000Y-107570000D02*
X176700000Y-107570000D01*
X165270000Y-107570000D02*
X164970000Y-107570000D01*
X164970000Y-107570000D02*
X164970000Y-110870000D01*
X164970000Y-110870000D02*
X165270000Y-110870000D01*
X167470000Y-107570000D02*
X167770000Y-107570000D01*
X167770000Y-107570000D02*
X167770000Y-110870000D01*
X167770000Y-110870000D02*
X167470000Y-110870000D01*
X184320000Y-107570000D02*
X184020000Y-107570000D01*
X184020000Y-107570000D02*
X184020000Y-110870000D01*
X184020000Y-110870000D02*
X184320000Y-110870000D01*
X186520000Y-107570000D02*
X186820000Y-107570000D01*
X186820000Y-107570000D02*
X186820000Y-110870000D01*
X186820000Y-110870000D02*
X186520000Y-110870000D01*
X156040000Y-88010000D02*
X156340000Y-88010000D01*
X156340000Y-88010000D02*
X156340000Y-84710000D01*
X156340000Y-84710000D02*
X156040000Y-84710000D01*
X153840000Y-88010000D02*
X153540000Y-88010000D01*
X153540000Y-88010000D02*
X153540000Y-84710000D01*
X153540000Y-84710000D02*
X153840000Y-84710000D01*
X171280000Y-88010000D02*
X171580000Y-88010000D01*
X171580000Y-88010000D02*
X171580000Y-84710000D01*
X171580000Y-84710000D02*
X171280000Y-84710000D01*
X169080000Y-88010000D02*
X168780000Y-88010000D01*
X168780000Y-88010000D02*
X168780000Y-84710000D01*
X168780000Y-84710000D02*
X169080000Y-84710000D01*
X153840000Y-99950000D02*
X153540000Y-99950000D01*
X153540000Y-99950000D02*
X153540000Y-103250000D01*
X153540000Y-103250000D02*
X153840000Y-103250000D01*
X156040000Y-99950000D02*
X156340000Y-99950000D01*
X156340000Y-99950000D02*
X156340000Y-103250000D01*
X156340000Y-103250000D02*
X156040000Y-103250000D01*
X130980000Y-99950000D02*
X130680000Y-99950000D01*
X130680000Y-99950000D02*
X130680000Y-103250000D01*
X130680000Y-103250000D02*
X130980000Y-103250000D01*
X133180000Y-99950000D02*
X133480000Y-99950000D01*
X133480000Y-99950000D02*
X133480000Y-103250000D01*
X133480000Y-103250000D02*
X133180000Y-103250000D01*
X138600000Y-99950000D02*
X138300000Y-99950000D01*
X138300000Y-99950000D02*
X138300000Y-103250000D01*
X138300000Y-103250000D02*
X138600000Y-103250000D01*
X140800000Y-99950000D02*
X141100000Y-99950000D01*
X141100000Y-99950000D02*
X141100000Y-103250000D01*
X141100000Y-103250000D02*
X140800000Y-103250000D01*
X163660000Y-88010000D02*
X163960000Y-88010000D01*
X163960000Y-88010000D02*
X163960000Y-84710000D01*
X163960000Y-84710000D02*
X163660000Y-84710000D01*
X161460000Y-88010000D02*
X161160000Y-88010000D01*
X161160000Y-88010000D02*
X161160000Y-84710000D01*
X161160000Y-84710000D02*
X161460000Y-84710000D01*
X133180000Y-88010000D02*
X133480000Y-88010000D01*
X133480000Y-88010000D02*
X133480000Y-84710000D01*
X133480000Y-84710000D02*
X133180000Y-84710000D01*
X130980000Y-88010000D02*
X130680000Y-88010000D01*
X130680000Y-88010000D02*
X130680000Y-84710000D01*
X130680000Y-84710000D02*
X130980000Y-84710000D01*
D10*
X156950001Y-106376000D02*
X157183334Y-106376000D01*
X157283334Y-106742667D02*
X156950001Y-106742667D01*
X156950001Y-106042667D01*
X157283334Y-106042667D01*
X157550000Y-106709333D02*
X157650000Y-106742667D01*
X157816667Y-106742667D01*
X157883334Y-106709333D01*
X157916667Y-106676000D01*
X157950000Y-106609333D01*
X157950000Y-106542667D01*
X157916667Y-106476000D01*
X157883334Y-106442667D01*
X157816667Y-106409333D01*
X157683334Y-106376000D01*
X157616667Y-106342667D01*
X157583334Y-106309333D01*
X157550000Y-106242667D01*
X157550000Y-106176000D01*
X157583334Y-106109333D01*
X157616667Y-106076000D01*
X157683334Y-106042667D01*
X157850000Y-106042667D01*
X157950000Y-106076000D01*
X158250001Y-106742667D02*
X158250001Y-106042667D01*
X158516667Y-106042667D01*
X158583334Y-106076000D01*
X158616667Y-106109333D01*
X158650001Y-106176000D01*
X158650001Y-106276000D01*
X158616667Y-106342667D01*
X158583334Y-106376000D01*
X158516667Y-106409333D01*
X158250001Y-106409333D01*
X158916667Y-106542667D02*
X159250001Y-106542667D01*
X158850001Y-106742667D02*
X159083334Y-106042667D01*
X159316667Y-106742667D01*
X159950001Y-106676000D02*
X159916667Y-106709333D01*
X159816667Y-106742667D01*
X159750001Y-106742667D01*
X159650001Y-106709333D01*
X159583334Y-106642667D01*
X159550001Y-106576000D01*
X159516667Y-106442667D01*
X159516667Y-106342667D01*
X159550001Y-106209333D01*
X159583334Y-106142667D01*
X159650001Y-106076000D01*
X159750001Y-106042667D01*
X159816667Y-106042667D01*
X159916667Y-106076000D01*
X159950001Y-106109333D01*
X160250001Y-106376000D02*
X160483334Y-106376000D01*
X160583334Y-106742667D02*
X160250001Y-106742667D01*
X160250001Y-106042667D01*
X160583334Y-106042667D01*
D12*
X156899458Y-116453457D02*
X157399458Y-116453457D01*
X157613744Y-117239171D02*
X156899458Y-117239171D01*
X156899458Y-115739171D01*
X157613744Y-115739171D01*
X158185172Y-117167743D02*
X158399458Y-117239171D01*
X158756601Y-117239171D01*
X158899458Y-117167743D01*
X158970887Y-117096314D01*
X159042315Y-116953457D01*
X159042315Y-116810600D01*
X158970887Y-116667743D01*
X158899458Y-116596314D01*
X158756601Y-116524886D01*
X158470887Y-116453457D01*
X158328029Y-116382029D01*
X158256601Y-116310600D01*
X158185172Y-116167743D01*
X158185172Y-116024886D01*
X158256601Y-115882029D01*
X158328029Y-115810600D01*
X158470887Y-115739171D01*
X158828029Y-115739171D01*
X159042315Y-115810600D01*
X159685172Y-117239171D02*
X159685172Y-115739171D01*
X160256600Y-115739171D01*
X160399458Y-115810600D01*
X160470886Y-115882029D01*
X160542315Y-116024886D01*
X160542315Y-116239171D01*
X160470886Y-116382029D01*
X160399458Y-116453457D01*
X160256600Y-116524886D01*
X159685172Y-116524886D01*
X161113743Y-116810600D02*
X161828029Y-116810600D01*
X160970886Y-117239171D02*
X161470886Y-115739171D01*
X161970886Y-117239171D01*
X163328029Y-117096314D02*
X163256600Y-117167743D01*
X163042314Y-117239171D01*
X162899457Y-117239171D01*
X162685172Y-117167743D01*
X162542314Y-117024886D01*
X162470886Y-116882029D01*
X162399457Y-116596314D01*
X162399457Y-116382029D01*
X162470886Y-116096314D01*
X162542314Y-115953457D01*
X162685172Y-115810600D01*
X162899457Y-115739171D01*
X163042314Y-115739171D01*
X163256600Y-115810600D01*
X163328029Y-115882029D01*
X163970886Y-116453457D02*
X164470886Y-116453457D01*
X164685172Y-117239171D02*
X163970886Y-117239171D01*
X163970886Y-115739171D01*
X164685172Y-115739171D01*
X142168572Y-110430571D02*
X142311429Y-110430571D01*
X142454286Y-110502000D01*
X142525715Y-110573429D01*
X142597144Y-110716286D01*
X142668572Y-111002000D01*
X142668572Y-111359143D01*
X142597144Y-111644857D01*
X142525715Y-111787714D01*
X142454286Y-111859143D01*
X142311429Y-111930571D01*
X142168572Y-111930571D01*
X142025715Y-111859143D01*
X141954286Y-111787714D01*
X141882858Y-111644857D01*
X141811429Y-111359143D01*
X141811429Y-111002000D01*
X141882858Y-110716286D01*
X141954286Y-110573429D01*
X142025715Y-110502000D01*
X142168572Y-110430571D01*
X126388857Y-88896000D02*
X127103143Y-88896000D01*
X126246000Y-89324571D02*
X126746000Y-87824571D01*
X127246000Y-89324571D01*
D13*
X123674285Y-105068667D02*
X124150476Y-105068667D01*
X123579047Y-105354381D02*
X123912380Y-104354381D01*
X124245714Y-105354381D01*
X124721904Y-105354381D02*
X124626666Y-105306762D01*
X124579047Y-105211524D01*
X124579047Y-104354381D01*
X124960000Y-104687714D02*
X125340952Y-104687714D01*
X125102857Y-104354381D02*
X125102857Y-105211524D01*
X125150476Y-105306762D01*
X125245714Y-105354381D01*
X125340952Y-105354381D01*
D12*
X165207143Y-103778857D02*
X165421429Y-103850286D01*
X165492857Y-103921714D01*
X165564286Y-104064571D01*
X165564286Y-104278857D01*
X165492857Y-104421714D01*
X165421429Y-104493143D01*
X165278571Y-104564571D01*
X164707143Y-104564571D01*
X164707143Y-103064571D01*
X165207143Y-103064571D01*
X165350000Y-103136000D01*
X165421429Y-103207429D01*
X165492857Y-103350286D01*
X165492857Y-103493143D01*
X165421429Y-103636000D01*
X165350000Y-103707429D01*
X165207143Y-103778857D01*
X164707143Y-103778857D01*
D13*
X191174953Y-97210571D02*
X191317810Y-97258190D01*
X191365429Y-97305810D01*
X191413048Y-97401048D01*
X191413048Y-97543905D01*
X191365429Y-97639143D01*
X191317810Y-97686762D01*
X191222572Y-97734381D01*
X190841619Y-97734381D01*
X190841619Y-96734381D01*
X191174953Y-96734381D01*
X191270191Y-96782000D01*
X191317810Y-96829619D01*
X191365429Y-96924857D01*
X191365429Y-97020095D01*
X191317810Y-97115333D01*
X191270191Y-97162952D01*
X191174953Y-97210571D01*
X190841619Y-97210571D01*
X192270191Y-97686762D02*
X192174953Y-97734381D01*
X191984476Y-97734381D01*
X191889238Y-97686762D01*
X191841619Y-97639143D01*
X191794000Y-97543905D01*
X191794000Y-97258190D01*
X191841619Y-97162952D01*
X191889238Y-97115333D01*
X191984476Y-97067714D01*
X192174953Y-97067714D01*
X192270191Y-97115333D01*
X192698762Y-97734381D02*
X192698762Y-96734381D01*
X192794000Y-97353429D02*
X193079715Y-97734381D01*
X193079715Y-97067714D02*
X192698762Y-97448667D01*
X193460667Y-97686762D02*
X193603524Y-97734381D01*
X193841620Y-97734381D01*
X193936858Y-97686762D01*
X193984477Y-97639143D01*
X194032096Y-97543905D01*
X194032096Y-97448667D01*
X193984477Y-97353429D01*
X193936858Y-97305810D01*
X193841620Y-97258190D01*
X193651143Y-97210571D01*
X193555905Y-97162952D01*
X193508286Y-97115333D01*
X193460667Y-97020095D01*
X193460667Y-96924857D01*
X193508286Y-96829619D01*
X193555905Y-96782000D01*
X193651143Y-96734381D01*
X193889239Y-96734381D01*
X194032096Y-96782000D01*
X194460667Y-97067714D02*
X194460667Y-98067714D01*
X194460667Y-97115333D02*
X194555905Y-97067714D01*
X194746382Y-97067714D01*
X194841620Y-97115333D01*
X194889239Y-97162952D01*
X194936858Y-97258190D01*
X194936858Y-97543905D01*
X194889239Y-97639143D01*
X194841620Y-97686762D01*
X194746382Y-97734381D01*
X194555905Y-97734381D01*
X194460667Y-97686762D01*
X195794001Y-97686762D02*
X195698763Y-97734381D01*
X195508286Y-97734381D01*
X195413048Y-97686762D01*
X195365429Y-97639143D01*
X195317810Y-97543905D01*
X195317810Y-97258190D01*
X195365429Y-97162952D01*
X195413048Y-97115333D01*
X195508286Y-97067714D01*
X195698763Y-97067714D01*
X195794001Y-97115333D01*
D12*
X150324286Y-104421714D02*
X150252857Y-104493143D01*
X150038571Y-104564571D01*
X149895714Y-104564571D01*
X149681429Y-104493143D01*
X149538571Y-104350286D01*
X149467143Y-104207429D01*
X149395714Y-103921714D01*
X149395714Y-103707429D01*
X149467143Y-103421714D01*
X149538571Y-103278857D01*
X149681429Y-103136000D01*
X149895714Y-103064571D01*
X150038571Y-103064571D01*
X150252857Y-103136000D01*
X150324286Y-103207429D01*
X141847143Y-96690571D02*
X141847143Y-95190571D01*
X142204286Y-95190571D01*
X142418571Y-95262000D01*
X142561429Y-95404857D01*
X142632857Y-95547714D01*
X142704286Y-95833429D01*
X142704286Y-96047714D01*
X142632857Y-96333429D01*
X142561429Y-96476286D01*
X142418571Y-96619143D01*
X142204286Y-96690571D01*
X141847143Y-96690571D01*
X141664572Y-88538857D02*
X142164572Y-88538857D01*
X142378858Y-89324571D02*
X141664572Y-89324571D01*
X141664572Y-87824571D01*
X142378858Y-87824571D01*
X187352857Y-103993143D02*
X187995714Y-103993143D01*
X187352857Y-103636000D02*
X188210000Y-103636000D01*
X188424286Y-104421714D02*
X188352857Y-104493143D01*
X188138571Y-104564571D01*
X187995714Y-104564571D01*
X187781429Y-104493143D01*
X187638571Y-104350286D01*
X187567143Y-104207429D01*
X187495714Y-103921714D01*
X187495714Y-103707429D01*
X187567143Y-103421714D01*
X187638571Y-103278857D01*
X187781429Y-103136000D01*
X187995714Y-103064571D01*
X188138571Y-103064571D01*
X188352857Y-103136000D01*
X188424286Y-103207429D01*
X149820286Y-95904857D02*
X149320286Y-95904857D01*
X149320286Y-96690571D02*
X149320286Y-95190571D01*
X150034572Y-95190571D01*
X157872857Y-95262000D02*
X157730000Y-95190571D01*
X157515714Y-95190571D01*
X157301429Y-95262000D01*
X157158571Y-95404857D01*
X157087143Y-95547714D01*
X157015714Y-95833429D01*
X157015714Y-96047714D01*
X157087143Y-96333429D01*
X157158571Y-96476286D01*
X157301429Y-96619143D01*
X157515714Y-96690571D01*
X157658571Y-96690571D01*
X157872857Y-96619143D01*
X157944286Y-96547714D01*
X157944286Y-96047714D01*
X157658571Y-96047714D01*
X164671429Y-96690571D02*
X164671429Y-95190571D01*
X164671429Y-95904857D02*
X165528572Y-95904857D01*
X165528572Y-96690571D02*
X165528572Y-95190571D01*
X179832000Y-89324571D02*
X179832000Y-87824571D01*
D13*
X164342381Y-80343333D02*
X165056667Y-80343333D01*
X165199524Y-80390953D01*
X165294762Y-80486191D01*
X165342381Y-80629048D01*
X165342381Y-80724286D01*
X165342381Y-79343333D02*
X165342381Y-79914762D01*
X165342381Y-79629048D02*
X164342381Y-79629048D01*
X164485238Y-79724286D01*
X164580476Y-79819524D01*
X164628095Y-79914762D01*
D12*
X172680286Y-95190571D02*
X172680286Y-96262000D01*
X172608858Y-96476286D01*
X172466001Y-96619143D01*
X172251715Y-96690571D01*
X172108858Y-96690571D01*
X179947143Y-96690571D02*
X179947143Y-95190571D01*
X180804286Y-96690571D02*
X180161429Y-95833429D01*
X180804286Y-95190571D02*
X179947143Y-96047714D01*
X188424286Y-96690571D02*
X187710000Y-96690571D01*
X187710000Y-95190571D01*
X179840000Y-104564571D02*
X179840000Y-103064571D01*
X180340000Y-104136000D01*
X180840000Y-103064571D01*
X180840000Y-104564571D01*
X172291429Y-104564571D02*
X172291429Y-103064571D01*
X173148572Y-104564571D01*
X173148572Y-103064571D01*
X187563143Y-87824571D02*
X187848857Y-87824571D01*
X187991715Y-87896000D01*
X188134572Y-88038857D01*
X188206000Y-88324571D01*
X188206000Y-88824571D01*
X188134572Y-89110286D01*
X187991715Y-89253143D01*
X187848857Y-89324571D01*
X187563143Y-89324571D01*
X187420286Y-89253143D01*
X187277429Y-89110286D01*
X187206000Y-88824571D01*
X187206000Y-88324571D01*
X187277429Y-88038857D01*
X187420286Y-87896000D01*
X187563143Y-87824571D01*
X194933143Y-89324571D02*
X194933143Y-87824571D01*
X195504571Y-87824571D01*
X195647429Y-87896000D01*
X195718857Y-87967429D01*
X195790286Y-88110286D01*
X195790286Y-88324571D01*
X195718857Y-88467429D01*
X195647429Y-88538857D01*
X195504571Y-88610286D01*
X194933143Y-88610286D01*
X127571429Y-96833429D02*
X127428572Y-96762000D01*
X127285715Y-96619143D01*
X127071429Y-96404857D01*
X126928572Y-96333429D01*
X126785715Y-96333429D01*
X126857143Y-96690571D02*
X126714286Y-96619143D01*
X126571429Y-96476286D01*
X126500000Y-96190571D01*
X126500000Y-95690571D01*
X126571429Y-95404857D01*
X126714286Y-95262000D01*
X126857143Y-95190571D01*
X127142857Y-95190571D01*
X127285715Y-95262000D01*
X127428572Y-95404857D01*
X127500000Y-95690571D01*
X127500000Y-96190571D01*
X127428572Y-96476286D01*
X127285715Y-96619143D01*
X127142857Y-96690571D01*
X126857143Y-96690571D01*
X150070286Y-89324571D02*
X149570286Y-88610286D01*
X149213143Y-89324571D02*
X149213143Y-87824571D01*
X149784571Y-87824571D01*
X149927429Y-87896000D01*
X149998857Y-87967429D01*
X150070286Y-88110286D01*
X150070286Y-88324571D01*
X149998857Y-88467429D01*
X149927429Y-88538857D01*
X149784571Y-88610286D01*
X149213143Y-88610286D01*
D13*
X190920952Y-104830571D02*
X191254286Y-104830571D01*
X191397143Y-105354381D02*
X190920952Y-105354381D01*
X190920952Y-104354381D01*
X191397143Y-104354381D01*
X191825714Y-104687714D02*
X191825714Y-105354381D01*
X191825714Y-104782952D02*
X191873333Y-104735333D01*
X191968571Y-104687714D01*
X192111429Y-104687714D01*
X192206667Y-104735333D01*
X192254286Y-104830571D01*
X192254286Y-105354381D01*
X192587619Y-104687714D02*
X192968571Y-104687714D01*
X192730476Y-104354381D02*
X192730476Y-105211524D01*
X192778095Y-105306762D01*
X192873333Y-105354381D01*
X192968571Y-105354381D01*
X193301905Y-105354381D02*
X193301905Y-104687714D01*
X193301905Y-104878190D02*
X193349524Y-104782952D01*
X193397143Y-104735333D01*
X193492381Y-104687714D01*
X193587620Y-104687714D01*
X194301906Y-105306762D02*
X194206668Y-105354381D01*
X194016191Y-105354381D01*
X193920953Y-105306762D01*
X193873334Y-105211524D01*
X193873334Y-104830571D01*
X193920953Y-104735333D01*
X194016191Y-104687714D01*
X194206668Y-104687714D01*
X194301906Y-104735333D01*
X194349525Y-104830571D01*
X194349525Y-104925810D01*
X193873334Y-105021048D01*
X195159049Y-105306762D02*
X195063811Y-105354381D01*
X194873334Y-105354381D01*
X194778096Y-105306762D01*
X194730477Y-105211524D01*
X194730477Y-104830571D01*
X194778096Y-104735333D01*
X194873334Y-104687714D01*
X195063811Y-104687714D01*
X195159049Y-104735333D01*
X195206668Y-104830571D01*
X195206668Y-104925810D01*
X194730477Y-105021048D01*
D12*
X134191429Y-96619143D02*
X134405715Y-96690571D01*
X134762858Y-96690571D01*
X134905715Y-96619143D01*
X134977144Y-96547714D01*
X135048572Y-96404857D01*
X135048572Y-96262000D01*
X134977144Y-96119143D01*
X134905715Y-96047714D01*
X134762858Y-95976286D01*
X134477144Y-95904857D01*
X134334286Y-95833429D01*
X134262858Y-95762000D01*
X134191429Y-95619143D01*
X134191429Y-95476286D01*
X134262858Y-95333429D01*
X134334286Y-95262000D01*
X134477144Y-95190571D01*
X134834286Y-95190571D01*
X135048572Y-95262000D01*
D13*
X126976381Y-109878762D02*
X127119238Y-109926381D01*
X127357334Y-109926381D01*
X127452572Y-109878762D01*
X127500191Y-109831143D01*
X127547810Y-109735905D01*
X127547810Y-109640667D01*
X127500191Y-109545429D01*
X127452572Y-109497810D01*
X127357334Y-109450190D01*
X127166857Y-109402571D01*
X127071619Y-109354952D01*
X127024000Y-109307333D01*
X126976381Y-109212095D01*
X126976381Y-109116857D01*
X127024000Y-109021619D01*
X127071619Y-108974000D01*
X127166857Y-108926381D01*
X127404953Y-108926381D01*
X127547810Y-108974000D01*
X127976381Y-109926381D02*
X127976381Y-108926381D01*
X128404953Y-109926381D02*
X128404953Y-109402571D01*
X128357334Y-109307333D01*
X128262096Y-109259714D01*
X128119238Y-109259714D01*
X128024000Y-109307333D01*
X127976381Y-109354952D01*
X128881143Y-109926381D02*
X128881143Y-109259714D01*
X128881143Y-108926381D02*
X128833524Y-108974000D01*
X128881143Y-109021619D01*
X128928762Y-108974000D01*
X128881143Y-108926381D01*
X128881143Y-109021619D01*
X129214476Y-109259714D02*
X129595428Y-109259714D01*
X129357333Y-109926381D02*
X129357333Y-109069238D01*
X129404952Y-108974000D01*
X129500190Y-108926381D01*
X129595428Y-108926381D01*
X129785905Y-109259714D02*
X130166857Y-109259714D01*
X129928762Y-108926381D02*
X129928762Y-109783524D01*
X129976381Y-109878762D01*
X130071619Y-109926381D01*
X130166857Y-109926381D01*
X171934381Y-109878762D02*
X172077238Y-109926381D01*
X172315334Y-109926381D01*
X172410572Y-109878762D01*
X172458191Y-109831143D01*
X172505810Y-109735905D01*
X172505810Y-109640667D01*
X172458191Y-109545429D01*
X172410572Y-109497810D01*
X172315334Y-109450190D01*
X172124857Y-109402571D01*
X172029619Y-109354952D01*
X171982000Y-109307333D01*
X171934381Y-109212095D01*
X171934381Y-109116857D01*
X171982000Y-109021619D01*
X172029619Y-108974000D01*
X172124857Y-108926381D01*
X172362953Y-108926381D01*
X172505810Y-108974000D01*
X172934381Y-109926381D02*
X172934381Y-108926381D01*
X173362953Y-109926381D02*
X173362953Y-109402571D01*
X173315334Y-109307333D01*
X173220096Y-109259714D01*
X173077238Y-109259714D01*
X172982000Y-109307333D01*
X172934381Y-109354952D01*
X173839143Y-109926381D02*
X173839143Y-109259714D01*
X173839143Y-108926381D02*
X173791524Y-108974000D01*
X173839143Y-109021619D01*
X173886762Y-108974000D01*
X173839143Y-108926381D01*
X173839143Y-109021619D01*
X174172476Y-109259714D02*
X174553428Y-109259714D01*
X174315333Y-109926381D02*
X174315333Y-109069238D01*
X174362952Y-108974000D01*
X174458190Y-108926381D01*
X174553428Y-108926381D01*
X174743905Y-109259714D02*
X175124857Y-109259714D01*
X174886762Y-108926381D02*
X174886762Y-109783524D01*
X174934381Y-109878762D01*
X175029619Y-109926381D01*
X175124857Y-109926381D01*
D12*
X156645458Y-116453457D02*
X157145458Y-116453457D01*
X157359744Y-117239171D02*
X156645458Y-117239171D01*
X156645458Y-115739171D01*
X157359744Y-115739171D01*
X157931172Y-117167743D02*
X158145458Y-117239171D01*
X158502601Y-117239171D01*
X158645458Y-117167743D01*
X158716887Y-117096314D01*
X158788315Y-116953457D01*
X158788315Y-116810600D01*
X158716887Y-116667743D01*
X158645458Y-116596314D01*
X158502601Y-116524886D01*
X158216887Y-116453457D01*
X158074029Y-116382029D01*
X158002601Y-116310600D01*
X157931172Y-116167743D01*
X157931172Y-116024886D01*
X158002601Y-115882029D01*
X158074029Y-115810600D01*
X158216887Y-115739171D01*
X158574029Y-115739171D01*
X158788315Y-115810600D01*
X159431172Y-117239171D02*
X159431172Y-115739171D01*
X160002600Y-115739171D01*
X160145458Y-115810600D01*
X160216886Y-115882029D01*
X160288315Y-116024886D01*
X160288315Y-116239171D01*
X160216886Y-116382029D01*
X160145458Y-116453457D01*
X160002600Y-116524886D01*
X159431172Y-116524886D01*
X160859743Y-116810600D02*
X161574029Y-116810600D01*
X160716886Y-117239171D02*
X161216886Y-115739171D01*
X161716886Y-117239171D01*
X163074029Y-117096314D02*
X163002600Y-117167743D01*
X162788314Y-117239171D01*
X162645457Y-117239171D01*
X162431172Y-117167743D01*
X162288314Y-117024886D01*
X162216886Y-116882029D01*
X162145457Y-116596314D01*
X162145457Y-116382029D01*
X162216886Y-116096314D01*
X162288314Y-115953457D01*
X162431172Y-115810600D01*
X162645457Y-115739171D01*
X162788314Y-115739171D01*
X163002600Y-115810600D01*
X163074029Y-115882029D01*
X163716886Y-116453457D02*
X164216886Y-116453457D01*
X164431172Y-117239171D02*
X163716886Y-117239171D01*
X163716886Y-115739171D01*
X164431172Y-115739171D01*
D13*
X187444286Y-111910762D02*
X187587143Y-111958381D01*
X187825239Y-111958381D01*
X187920477Y-111910762D01*
X187968096Y-111863143D01*
X188015715Y-111767905D01*
X188015715Y-111672667D01*
X187968096Y-111577429D01*
X187920477Y-111529810D01*
X187825239Y-111482190D01*
X187634762Y-111434571D01*
X187539524Y-111386952D01*
X187491905Y-111339333D01*
X187444286Y-111244095D01*
X187444286Y-111148857D01*
X187491905Y-111053619D01*
X187539524Y-111006000D01*
X187634762Y-110958381D01*
X187872858Y-110958381D01*
X188015715Y-111006000D01*
X188349048Y-111291714D02*
X188587143Y-111958381D01*
X188825239Y-111291714D02*
X188587143Y-111958381D01*
X188491905Y-112196476D01*
X188444286Y-112244095D01*
X188349048Y-112291714D01*
X189206191Y-111958381D02*
X189206191Y-111291714D01*
X189206191Y-111386952D02*
X189253810Y-111339333D01*
X189349048Y-111291714D01*
X189491906Y-111291714D01*
X189587144Y-111339333D01*
X189634763Y-111434571D01*
X189634763Y-111958381D01*
X189634763Y-111434571D02*
X189682382Y-111339333D01*
X189777620Y-111291714D01*
X189920477Y-111291714D01*
X190015715Y-111339333D01*
X190063334Y-111434571D01*
X190063334Y-111958381D01*
X190539524Y-111958381D02*
X190539524Y-110958381D01*
X190539524Y-111339333D02*
X190634762Y-111291714D01*
X190825239Y-111291714D01*
X190920477Y-111339333D01*
X190968096Y-111386952D01*
X191015715Y-111482190D01*
X191015715Y-111767905D01*
X190968096Y-111863143D01*
X190920477Y-111910762D01*
X190825239Y-111958381D01*
X190634762Y-111958381D01*
X190539524Y-111910762D01*
D12*
X156797429Y-87824571D02*
X157654572Y-87824571D01*
X157226001Y-89324571D02*
X157226001Y-87824571D01*
X172037429Y-87824571D02*
X172037429Y-89038857D01*
X172108857Y-89181714D01*
X172180286Y-89253143D01*
X172323143Y-89324571D01*
X172608857Y-89324571D01*
X172751715Y-89253143D01*
X172823143Y-89181714D01*
X172894572Y-89038857D01*
X172894572Y-87824571D01*
X156980000Y-103064571D02*
X157480000Y-104564571D01*
X157980000Y-103064571D01*
X134231143Y-103064571D02*
X134588286Y-104564571D01*
X134874000Y-103493143D01*
X135159714Y-104564571D01*
X135516857Y-103064571D01*
X141740001Y-103064571D02*
X142740001Y-104564571D01*
X142740001Y-103064571D02*
X141740001Y-104564571D01*
X164846000Y-88610286D02*
X164846000Y-89324571D01*
X164346000Y-87824571D02*
X164846000Y-88610286D01*
X165346000Y-87824571D01*
X134120001Y-87824571D02*
X135120001Y-87824571D01*
X134120001Y-89324571D01*
X135120001Y-89324571D01*
M02*
